<svg width="390" height="884" viewBox="0 0 390 884" fill="none" xmlns="http://www.w3.org/2000/svg">
<g clip-path="url(#clip0_6_77)">
<rect width="390" height="884" fill="url(#paint0_linear_6_77)"/>
<rect x="155" y="64" width="80" height="80" rx="32" fill="url(#paint1_linear_6_77)"/>
<g filter="url(#filter0_dd_6_77)">
<rect x="155" y="64" width="80" height="80" rx="32" fill="white" fill-opacity="0.01" shape-rendering="crispEdges"/>
</g>
<rect x="140" y="55" width="110" height="98" rx="49" fill="white"/>
<g filter="url(#filter1_d_6_77)">
<rect x="131" y="40" width="128" height="128" rx="64" fill="white" fill-opacity="0.01" shape-rendering="crispEdges"/>
</g>
<path d="M195 130.236C188.861 128.712 183.792 125.238 179.795 119.815C175.798 114.393 173.799 108.371 173.799 101.75V85.6712L195 77.7635L216.201 85.6712V101.75C216.201 108.371 214.203 114.393 210.205 119.815C206.208 125.238 201.14 128.712 195 130.236Z" fill="#1F3D89"/>
<rect x="180.799" y="94.7635" width="38" height="38" rx="19" fill="#5B21B6"/>
<rect x="180.799" y="94.7635" width="38" height="38" rx="19" stroke="white" stroke-width="2"/>
<g filter="url(#filter2_dd_6_77)">
<rect x="179.799" y="93.7635" width="40" height="40" rx="20" fill="white" fill-opacity="0.01" shape-rendering="crispEdges"/>
</g>
<path d="M196.986 121.264C195.681 121.264 194.573 120.809 193.663 119.899C192.754 118.989 192.299 117.882 192.299 116.576C192.299 115.951 192.417 115.354 192.653 114.784C192.889 114.215 193.229 113.708 193.674 113.264L199.299 107.639C199.743 107.194 200.25 106.854 200.82 106.618C201.389 106.382 201.986 106.264 202.611 106.264C203.917 106.264 205.025 106.718 205.934 107.628C206.844 108.538 207.299 109.645 207.299 110.951C207.299 111.576 207.181 112.173 206.945 112.743C206.709 113.312 206.368 113.819 205.924 114.264L200.299 119.889C199.854 120.333 199.347 120.673 198.778 120.909C198.209 121.145 197.611 121.264 196.986 121.264ZM202.528 115.305L204.757 113.097C205.035 112.819 205.25 112.493 205.403 112.118C205.556 111.743 205.632 111.354 205.632 110.951C205.632 110.118 205.337 109.406 204.747 108.816C204.156 108.225 203.445 107.93 202.611 107.93C202.209 107.93 201.82 108.007 201.445 108.159C201.07 108.312 200.743 108.527 200.466 108.805L198.257 111.034L202.528 115.305ZM196.986 119.597C197.389 119.597 197.778 119.52 198.153 119.368C198.528 119.215 198.854 119 199.132 118.722L201.341 116.493L197.07 112.222L194.841 114.43C194.563 114.708 194.347 115.034 194.195 115.409C194.042 115.784 193.966 116.173 193.966 116.576C193.966 117.409 194.261 118.121 194.851 118.711C195.441 119.302 196.153 119.597 196.986 119.597Z" fill="white"/>
<path d="M114.315 194V171.65H122.865C124.405 171.65 125.77 171.92 126.96 172.46C128.15 173 129.085 173.8 129.765 174.86C130.445 175.92 130.785 177.23 130.785 178.79C130.785 180.31 130.435 181.605 129.735 182.675C129.035 183.745 128.095 184.55 126.915 185.09L132.015 194H126.795L121.275 184.13L124.275 185.9H118.965V194H114.315ZM118.965 181.85H122.895C123.555 181.85 124.125 181.72 124.605 181.46C125.085 181.2 125.46 180.84 125.73 180.38C126 179.92 126.135 179.39 126.135 178.79C126.135 178.17 126 177.63 125.73 177.17C125.46 176.71 125.085 176.35 124.605 176.09C124.125 175.83 123.555 175.7 122.895 175.7H118.965V181.85ZM131.955 194L137.685 185.78L131.925 177.62H137.145L141.465 183.98H139.185L143.505 177.62H148.725L142.965 185.78L148.665 194H143.475L139.245 187.64H141.405L137.175 194H131.955ZM161.025 194.36C159.425 194.36 157.935 194.07 156.555 193.49C155.175 192.91 153.965 192.1 152.925 191.06C151.885 190.02 151.075 188.8 150.495 187.4C149.915 186 149.625 184.47 149.625 182.81C149.625 181.15 149.905 179.615 150.465 178.205C151.025 176.795 151.815 175.575 152.835 174.545C153.855 173.515 155.05 172.715 156.42 172.145C157.79 171.575 159.285 171.29 160.905 171.29C162.525 171.29 163.98 171.56 165.27 172.1C166.56 172.64 167.655 173.36 168.555 174.26C169.455 175.16 170.095 176.16 170.475 177.26L166.365 179.24C165.985 178.16 165.32 177.265 164.37 176.555C163.42 175.845 162.265 175.49 160.905 175.49C159.585 175.49 158.425 175.8 157.425 176.42C156.425 177.04 155.65 177.895 155.1 178.985C154.55 180.075 154.275 181.35 154.275 182.81C154.275 184.27 154.565 185.55 155.145 186.65C155.725 187.75 156.52 188.61 157.53 189.23C158.54 189.85 159.705 190.16 161.025 190.16C162.045 190.16 163 189.965 163.89 189.575C164.78 189.185 165.5 188.62 166.05 187.88C166.6 187.14 166.875 186.25 166.875 185.21V183.35L169.005 185.15H160.905V181.25H171.525V183.62C171.525 185.44 171.225 187.025 170.625 188.375C170.025 189.725 169.22 190.845 168.21 191.735C167.2 192.625 166.07 193.285 164.82 193.715C163.57 194.145 162.305 194.36 161.025 194.36ZM179.205 194.36C177.885 194.36 176.76 194.075 175.83 193.505C174.9 192.935 174.195 192.14 173.715 191.12C173.235 190.1 172.995 188.91 172.995 187.55V177.62H177.495V187.19C177.495 187.81 177.62 188.355 177.87 188.825C178.12 189.295 178.475 189.66 178.935 189.92C179.395 190.18 179.915 190.31 180.495 190.31C181.095 190.31 181.62 190.18 182.07 189.92C182.52 189.66 182.87 189.295 183.12 188.825C183.37 188.355 183.495 187.81 183.495 187.19V177.62H187.995V194H183.795V190.76L184.035 191.48C183.655 192.46 183.04 193.185 182.19 193.655C181.34 194.125 180.345 194.36 179.205 194.36ZM195.615 194.36C194.435 194.36 193.415 194.17 192.555 193.79C191.695 193.41 191.035 192.865 190.575 192.155C190.115 191.445 189.885 190.6 189.885 189.62C189.885 188.7 190.095 187.885 190.515 187.175C190.935 186.465 191.58 185.87 192.45 185.39C193.32 184.91 194.405 184.57 195.705 184.37L200.715 183.56V186.86L196.515 187.61C195.875 187.73 195.385 187.935 195.045 188.225C194.705 188.515 194.535 188.93 194.535 189.47C194.535 189.97 194.725 190.36 195.105 190.64C195.485 190.92 195.955 191.06 196.515 191.06C197.255 191.06 197.905 190.9 198.465 190.58C199.025 190.26 199.46 189.825 199.77 189.275C200.08 188.725 200.235 188.12 200.235 187.46V183.2C200.235 182.58 199.99 182.06 199.5 181.64C199.01 181.22 198.345 181.01 197.505 181.01C196.705 181.01 196 181.23 195.39 181.67C194.78 182.11 194.335 182.69 194.055 183.41L190.455 181.7C190.775 180.78 191.285 179.99 191.985 179.33C192.685 178.67 193.525 178.16 194.505 177.8C195.485 177.44 196.555 177.26 197.715 177.26C199.095 177.26 200.315 177.51 201.375 178.01C202.435 178.51 203.26 179.205 203.85 180.095C204.44 180.985 204.735 182.02 204.735 183.2V194H200.535V191.36L201.555 191.18C201.075 191.9 200.545 192.495 199.965 192.965C199.385 193.435 198.735 193.785 198.015 194.015C197.295 194.245 196.495 194.36 195.615 194.36ZM207.285 194V177.62H211.485V181.55L211.185 180.98C211.545 179.6 212.14 178.665 212.97 178.175C213.8 177.685 214.785 177.44 215.925 177.44H216.885V181.34H215.475C214.375 181.34 213.485 181.675 212.805 182.345C212.125 183.015 211.785 183.96 211.785 185.18V194H207.285ZM225.825 194.36C224.225 194.36 222.795 193.98 221.535 193.22C220.275 192.46 219.28 191.43 218.55 190.13C217.82 188.83 217.455 187.39 217.455 185.81C217.455 184.21 217.825 182.765 218.565 181.475C219.305 180.185 220.305 179.16 221.565 178.4C222.825 177.64 224.235 177.26 225.795 177.26C226.995 177.26 228.06 177.485 228.99 177.935C229.92 178.385 230.655 179.02 231.195 179.84L230.505 180.74V171.29H235.005V194H230.805V191L231.225 191.93C230.665 192.73 229.905 193.335 228.945 193.745C227.985 194.155 226.945 194.36 225.825 194.36ZM226.365 190.31C227.185 190.31 227.905 190.12 228.525 189.74C229.145 189.36 229.63 188.83 229.98 188.15C230.33 187.47 230.505 186.69 230.505 185.81C230.505 184.93 230.33 184.15 229.98 183.47C229.63 182.79 229.145 182.26 228.525 181.88C227.905 181.5 227.185 181.31 226.365 181.31C225.545 181.31 224.81 181.505 224.16 181.895C223.51 182.285 223.005 182.815 222.645 183.485C222.285 184.155 222.105 184.93 222.105 185.81C222.105 186.69 222.285 187.47 222.645 188.15C223.005 188.83 223.51 189.36 224.16 189.74C224.81 190.12 225.545 190.31 226.365 190.31ZM237.555 194V177.62H242.055V194H237.555ZM237.555 176.15V171.65H242.055V176.15H237.555ZM249.675 194.36C248.495 194.36 247.475 194.17 246.615 193.79C245.755 193.41 245.095 192.865 244.635 192.155C244.175 191.445 243.945 190.6 243.945 189.62C243.945 188.7 244.155 187.885 244.575 187.175C244.995 186.465 245.64 185.87 246.51 185.39C247.38 184.91 248.465 184.57 249.765 184.37L254.775 183.56V186.86L250.575 187.61C249.935 187.73 249.445 187.935 249.105 188.225C248.765 188.515 248.595 188.93 248.595 189.47C248.595 189.97 248.785 190.36 249.165 190.64C249.545 190.92 250.015 191.06 250.575 191.06C251.315 191.06 251.965 190.9 252.525 190.58C253.085 190.26 253.52 189.825 253.83 189.275C254.14 188.725 254.295 188.12 254.295 187.46V183.2C254.295 182.58 254.05 182.06 253.56 181.64C253.07 181.22 252.405 181.01 251.565 181.01C250.765 181.01 250.06 181.23 249.45 181.67C248.84 182.11 248.395 182.69 248.115 183.41L244.515 181.7C244.835 180.78 245.345 179.99 246.045 179.33C246.745 178.67 247.585 178.16 248.565 177.8C249.545 177.44 250.615 177.26 251.775 177.26C253.155 177.26 254.375 177.51 255.435 178.01C256.495 178.51 257.32 179.205 257.91 180.095C258.5 180.985 258.795 182.02 258.795 183.2V194H254.595V191.36L255.615 191.18C255.135 191.9 254.605 192.495 254.025 192.965C253.445 193.435 252.795 193.785 252.075 194.015C251.355 194.245 250.555 194.36 249.675 194.36ZM261.345 194V177.62H265.545V180.86L265.305 180.14C265.685 179.16 266.3 178.435 267.15 177.965C268 177.495 268.995 177.26 270.135 177.26C271.375 177.26 272.46 177.52 273.39 178.04C274.32 178.56 275.045 179.285 275.565 180.215C276.085 181.145 276.345 182.233 276.345 183.479V194H271.845V184.43C271.845 183.79 271.72 183.24 271.47 182.78C271.22 182.32 270.869 181.96 270.417 181.7C269.965 181.44 269.445 181.31 268.857 181.31C268.269 181.31 267.745 181.44 267.285 181.7C266.825 181.96 266.47 182.32 266.22 182.78C265.97 183.24 265.845 183.79 265.845 184.43V194H261.345Z" fill="white"/>
<path d="M102.807 221V210.92H104.053V221H102.807ZM111.886 221V217.213C111.886 216.856 111.853 216.512 111.789 216.181C111.725 215.849 111.615 215.551 111.459 215.286C111.302 215.021 111.092 214.812 110.829 214.658C110.565 214.504 110.234 214.427 109.835 214.427C109.522 214.427 109.238 214.48 108.982 214.586C108.727 214.692 108.508 214.852 108.326 215.066C108.144 215.279 108.003 215.548 107.904 215.872C107.805 216.197 107.756 216.578 107.756 217.017L106.937 216.765C106.937 216.035 107.068 215.406 107.332 214.88C107.596 214.354 107.967 213.95 108.445 213.667C108.923 213.385 109.487 213.244 110.136 213.244C110.623 213.244 111.04 213.321 111.387 213.475C111.733 213.629 112.021 213.834 112.25 214.089C112.478 214.345 112.658 214.629 112.789 214.943C112.919 215.257 113.011 215.577 113.065 215.902C113.119 216.228 113.146 216.534 113.146 216.821V221H111.886ZM106.496 221V213.44H107.616V215.463H107.756V221H106.496ZM119.537 221C119.086 221.091 118.643 221.128 118.208 221.112C117.773 221.096 117.385 221.007 117.043 220.846C116.701 220.685 116.443 220.433 116.268 220.09C116.118 219.794 116.038 219.493 116.026 219.187C116.014 218.881 116.009 218.534 116.009 218.144V211.34H117.255V218.088C117.255 218.398 117.258 218.663 117.265 218.881C117.272 219.099 117.32 219.287 117.409 219.446C117.577 219.747 117.844 219.923 118.21 219.973C118.576 220.023 119.019 220.008 119.537 219.929V221ZM114.476 214.469V213.44H119.537V214.469H114.476ZM124.388 221.21C123.643 221.21 122.995 221.046 122.442 220.718C121.889 220.39 121.459 219.931 121.152 219.339C120.845 218.748 120.692 218.058 120.692 217.269C120.692 216.443 120.843 215.728 121.145 215.123C121.447 214.519 121.87 214.053 122.415 213.724C122.96 213.394 123.599 213.23 124.332 213.23C125.09 213.23 125.736 213.405 126.271 213.755C126.805 214.105 127.207 214.604 127.476 215.253C127.746 215.902 127.861 216.674 127.821 217.57H126.565V217.122C126.551 216.193 126.362 215.499 125.998 215.04C125.634 214.58 125.092 214.35 124.374 214.35C123.601 214.35 123.015 214.597 122.615 215.092C122.215 215.587 122.015 216.296 122.015 217.22C122.015 218.111 122.215 218.802 122.615 219.292C123.015 219.782 123.587 220.027 124.332 220.027C124.831 220.027 125.265 219.913 125.634 219.684C126.002 219.455 126.292 219.126 126.502 218.697L127.699 219.11C127.402 219.777 126.959 220.294 126.37 220.66C125.781 221.027 125.12 221.21 124.388 221.21ZM121.595 217.57V216.569H127.181V217.57H121.595ZM129.869 221V210.71H131.115V221H129.869ZM133.705 221V210.71H134.951V221H133.705ZM137.541 212.103V210.815H138.787V212.103H137.541ZM137.541 221V213.44H138.787V221H137.541ZM144.296 224.57C143.899 224.57 143.512 224.51 143.134 224.39C142.756 224.27 142.409 224.087 142.094 223.842C141.779 223.597 141.517 223.287 141.307 222.911L142.448 222.309C142.634 222.68 142.898 222.949 143.24 223.116C143.582 223.283 143.936 223.366 144.303 223.366C144.783 223.366 145.182 223.279 145.498 223.104C145.814 222.929 146.048 222.668 146.201 222.323C146.354 221.978 146.428 221.548 146.424 221.035V218.97H146.571V213.44H147.677V221.049C147.677 221.257 147.67 221.456 147.657 221.646C147.644 221.836 147.621 222.024 147.586 222.211C147.488 222.748 147.294 223.19 147.005 223.538C146.715 223.885 146.342 224.144 145.885 224.315C145.427 224.485 144.898 224.57 144.296 224.57ZM144.205 221.21C143.5 221.21 142.895 221.034 142.39 220.683C141.885 220.332 141.496 219.855 141.224 219.252C140.952 218.649 140.817 217.969 140.817 217.213C140.817 216.457 140.952 215.779 141.224 215.178C141.496 214.577 141.885 214.102 142.39 213.753C142.895 213.404 143.498 213.23 144.198 213.23C144.909 213.23 145.508 213.403 145.995 213.75C146.481 214.096 146.849 214.57 147.099 215.171C147.349 215.772 147.474 216.452 147.474 217.213C147.474 217.967 147.349 218.645 147.099 219.248C146.849 219.851 146.482 220.329 145.997 220.682C145.511 221.034 144.914 221.21 144.205 221.21ZM144.359 220.069C144.867 220.069 145.285 219.947 145.612 219.702C145.938 219.456 146.18 219.119 146.336 218.688C146.492 218.258 146.571 217.766 146.571 217.213C146.571 216.655 146.492 216.162 146.334 215.734C146.177 215.306 145.937 214.972 145.615 214.731C145.293 214.491 144.886 214.371 144.394 214.371C143.88 214.371 143.457 214.497 143.123 214.749C142.789 215.001 142.542 215.342 142.381 215.771C142.22 216.2 142.14 216.681 142.14 217.213C142.14 217.75 142.221 218.234 142.385 218.666C142.548 219.097 142.793 219.439 143.121 219.691C143.449 219.943 143.862 220.069 144.359 220.069ZM153.263 221.21C152.518 221.21 151.87 221.046 151.317 220.718C150.764 220.39 150.334 219.931 150.027 219.339C149.72 218.748 149.567 218.058 149.567 217.269C149.567 216.443 149.718 215.728 150.02 215.123C150.322 214.519 150.745 214.053 151.29 213.724C151.835 213.394 152.474 213.23 153.207 213.23C153.965 213.23 154.611 213.405 155.146 213.755C155.68 214.105 156.082 214.604 156.351 215.253C156.621 215.902 156.736 216.674 156.696 217.57H155.44V217.122C155.426 216.193 155.237 215.499 154.873 215.04C154.509 214.58 153.967 214.35 153.249 214.35C152.476 214.35 151.89 214.597 151.49 215.092C151.09 215.587 150.89 216.296 150.89 217.22C150.89 218.111 151.09 218.802 151.49 219.292C151.89 219.782 152.462 220.027 153.207 220.027C153.706 220.027 154.14 219.913 154.509 219.684C154.877 219.455 155.167 219.126 155.377 218.697L156.574 219.11C156.277 219.777 155.834 220.294 155.245 220.66C154.656 221.027 153.995 221.21 153.263 221.21ZM150.47 217.57V216.569H156.056V217.57H150.47ZM163.777 221V217.213C163.777 216.856 163.744 216.512 163.68 216.181C163.616 215.849 163.506 215.551 163.35 215.286C163.193 215.021 162.983 214.812 162.72 214.658C162.456 214.504 162.125 214.427 161.726 214.427C161.413 214.427 161.129 214.48 160.873 214.586C160.618 214.692 160.399 214.852 160.217 215.066C160.035 215.279 159.894 215.548 159.795 215.872C159.696 216.197 159.647 216.578 159.647 217.017L158.828 216.765C158.828 216.035 158.959 215.406 159.223 214.88C159.487 214.354 159.858 213.95 160.336 213.667C160.814 213.385 161.378 213.244 162.027 213.244C162.514 213.244 162.931 213.321 163.278 213.475C163.624 213.629 163.912 213.834 164.141 214.089C164.369 214.345 164.549 214.629 164.68 214.943C164.81 215.257 164.902 215.577 164.956 215.902C165.01 216.228 165.037 216.534 165.037 216.821V221H163.777ZM158.387 221V213.44H159.507V215.463H159.647V221H158.387ZM171.428 221C170.977 221.091 170.534 221.128 170.099 221.112C169.664 221.096 169.276 221.007 168.934 220.846C168.592 220.685 168.334 220.433 168.159 220.09C168.009 219.794 167.929 219.493 167.917 219.187C167.905 218.881 167.9 218.534 167.9 218.144V211.34H169.146V218.088C169.146 218.398 169.149 218.663 169.156 218.881C169.163 219.099 169.211 219.287 169.3 219.446C169.468 219.747 169.735 219.923 170.101 219.973C170.467 220.023 170.91 220.008 171.428 219.929V221ZM166.367 214.469V213.44H171.428V214.469H166.367ZM176.468 221V210.92H177.602L181.41 218.949L185.197 210.92H186.345V220.993H185.162V213.657L181.739 221H181.074L177.651 213.657V221H176.468ZM191.931 221.21C191.186 221.21 190.538 221.046 189.985 220.718C189.432 220.39 189.002 219.931 188.695 219.339C188.388 218.748 188.235 218.058 188.235 217.269C188.235 216.443 188.386 215.728 188.688 215.123C188.99 214.519 189.413 214.053 189.958 213.724C190.503 213.394 191.142 213.23 191.875 213.23C192.633 213.23 193.279 213.405 193.814 213.755C194.348 214.105 194.75 214.604 195.019 215.253C195.289 215.902 195.404 216.674 195.364 217.57H194.108V217.122C194.094 216.193 193.905 215.499 193.541 215.04C193.177 214.58 192.635 214.35 191.917 214.35C191.144 214.35 190.558 214.597 190.158 215.092C189.758 215.587 189.558 216.296 189.558 217.22C189.558 218.111 189.758 218.802 190.158 219.292C190.558 219.782 191.13 220.027 191.875 220.027C192.374 220.027 192.808 219.913 193.177 219.684C193.545 219.455 193.835 219.126 194.045 218.697L195.242 219.11C194.945 219.777 194.502 220.294 193.913 220.66C193.324 221.027 192.663 221.21 191.931 221.21ZM189.138 217.57V216.569H194.724V217.57H189.138ZM200.24 221.21C199.535 221.21 198.93 221.034 198.425 220.683C197.92 220.332 197.531 219.855 197.259 219.252C196.987 218.649 196.852 217.969 196.852 217.213C196.852 216.457 196.987 215.779 197.259 215.178C197.531 214.577 197.92 214.102 198.425 213.753C198.93 213.404 199.533 213.23 200.233 213.23C200.944 213.23 201.543 213.403 202.03 213.75C202.516 214.096 202.884 214.57 203.134 215.171C203.384 215.772 203.509 216.452 203.509 217.213C203.509 217.967 203.384 218.645 203.134 219.248C202.884 219.851 202.517 220.329 202.032 220.682C201.546 221.034 200.949 221.21 200.24 221.21ZM200.394 220.069C200.902 220.069 201.32 219.947 201.647 219.702C201.973 219.456 202.215 219.119 202.371 218.688C202.527 218.258 202.606 217.766 202.606 217.213C202.606 216.655 202.527 216.162 202.369 215.734C202.212 215.306 201.972 214.972 201.65 214.731C201.328 214.491 200.921 214.371 200.429 214.371C199.915 214.371 199.492 214.497 199.158 214.749C198.824 215.001 198.577 215.342 198.416 215.771C198.255 216.2 198.175 216.681 198.175 217.213C198.175 217.75 198.256 218.234 198.42 218.666C198.583 219.097 198.828 219.439 199.156 219.691C199.484 219.943 199.897 220.069 200.394 220.069ZM202.606 221V215.435H202.466V210.92H203.719V221H202.606ZM206.169 212.103V210.815H207.415V212.103H206.169ZM206.169 221V213.44H207.415V221H206.169ZM213.05 221.21C212.282 221.21 211.631 221.038 211.097 220.696C210.562 220.353 210.155 219.881 209.875 219.28C209.595 218.679 209.452 217.992 209.445 217.22C209.452 216.434 209.599 215.741 209.886 215.141C210.173 214.541 210.584 214.073 211.121 213.736C211.658 213.399 212.305 213.23 213.064 213.23C213.859 213.23 214.545 213.426 215.122 213.818C215.698 214.21 216.085 214.747 216.284 215.428L215.052 215.799C214.891 215.36 214.632 215.02 214.275 214.777C213.918 214.534 213.509 214.413 213.05 214.413C212.532 214.413 212.105 214.533 211.769 214.773C211.433 215.014 211.183 215.345 211.02 215.767C210.856 216.19 210.772 216.674 210.768 217.22C210.775 218.062 210.969 218.741 211.35 219.255C211.732 219.77 212.298 220.027 213.05 220.027C213.542 220.027 213.951 219.914 214.278 219.688C214.605 219.461 214.853 219.133 215.024 218.704L216.284 219.033C216.02 219.738 215.61 220.277 215.055 220.65C214.5 221.023 213.831 221.21 213.05 221.21ZM220.148 221.21C219.583 221.21 219.11 221.107 218.728 220.9C218.347 220.694 218.06 220.42 217.867 220.078C217.675 219.736 217.579 219.362 217.579 218.956C217.579 218.559 217.654 218.216 217.804 217.925C217.955 217.635 218.168 217.392 218.445 217.197C218.721 217.002 219.051 216.849 219.434 216.737C219.793 216.641 220.195 216.557 220.639 216.483C221.084 216.41 221.535 216.343 221.992 216.284C222.449 216.224 222.878 216.165 223.277 216.107L222.829 216.366C222.84 215.696 222.705 215.2 222.424 214.877C222.143 214.554 221.657 214.392 220.967 214.392C220.509 214.392 220.108 214.496 219.764 214.705C219.42 214.914 219.179 215.251 219.042 215.715L217.859 215.358C218.038 214.695 218.39 214.175 218.914 213.797C219.438 213.419 220.127 213.23 220.981 213.23C221.664 213.23 222.252 213.352 222.745 213.597C223.237 213.843 223.592 214.212 223.809 214.707C223.916 214.94 223.984 215.194 224.012 215.467C224.04 215.74 224.054 216.025 224.054 216.324V221H222.948V219.187L223.207 219.355C222.922 219.969 222.523 220.431 222.011 220.743C221.499 221.054 220.878 221.21 220.148 221.21ZM220.337 220.167C220.785 220.167 221.173 220.087 221.502 219.927C221.831 219.767 222.096 219.555 222.297 219.29C222.497 219.025 222.628 218.737 222.689 218.424C222.756 218.191 222.794 217.931 222.802 217.645C222.81 217.359 222.815 217.138 222.815 216.982L223.249 217.171C222.843 217.229 222.443 217.284 222.05 217.335C221.657 217.387 221.285 217.441 220.935 217.498C220.585 217.555 220.271 217.624 219.994 217.703C219.786 217.768 219.593 217.853 219.414 217.957C219.236 218.061 219.092 218.193 218.982 218.354C218.872 218.515 218.818 218.713 218.818 218.949C218.818 219.157 218.869 219.353 218.973 219.539C219.077 219.724 219.24 219.875 219.463 219.992C219.686 220.109 219.977 220.167 220.337 220.167ZM230.445 221C229.994 221.091 229.551 221.128 229.116 221.112C228.681 221.096 228.293 221.007 227.951 220.846C227.609 220.685 227.351 220.433 227.176 220.09C227.026 219.794 226.946 219.493 226.934 219.187C226.922 218.881 226.917 218.534 226.917 218.144V211.34H228.163V218.088C228.163 218.398 228.166 218.663 228.173 218.881C228.18 219.099 228.228 219.287 228.317 219.446C228.485 219.747 228.752 219.923 229.118 219.973C229.484 220.023 229.927 220.008 230.445 219.929V221ZM225.384 214.469V213.44H230.445V214.469H225.384ZM232.475 212.103V210.815H233.721V212.103H232.475ZM232.475 221V213.44H233.721V221H232.475ZM239.391 221.21C238.637 221.21 237.988 221.04 237.445 220.699C236.901 220.358 236.483 219.888 236.19 219.287C235.897 218.686 235.751 217.995 235.751 217.213C235.751 216.422 235.9 215.727 236.199 215.129C236.497 214.53 236.919 214.064 237.464 213.731C238.009 213.397 238.651 213.23 239.391 213.23C240.147 213.23 240.797 213.4 241.342 213.739C241.887 214.079 242.305 214.548 242.598 215.146C242.891 215.745 243.038 216.434 243.038 217.213C243.038 218.004 242.89 218.699 242.595 219.299C242.3 219.899 241.879 220.367 241.333 220.704C240.787 221.041 240.14 221.21 239.391 221.21ZM239.391 220.027C240.172 220.027 240.755 219.766 241.139 219.243C241.523 218.72 241.715 218.044 241.715 217.213C241.715 216.361 241.521 215.682 241.134 215.174C240.746 214.667 240.165 214.413 239.391 214.413C238.863 214.413 238.429 214.532 238.087 214.77C237.745 215.008 237.491 215.337 237.324 215.757C237.157 216.177 237.074 216.662 237.074 217.213C237.074 218.065 237.27 218.747 237.662 219.259C238.054 219.771 238.63 220.027 239.391 220.027ZM250.311 221V217.213C250.311 216.856 250.278 216.512 250.214 216.181C250.15 215.849 250.04 215.551 249.884 215.286C249.727 215.021 249.517 214.812 249.254 214.658C248.99 214.504 248.659 214.427 248.26 214.427C247.947 214.427 247.663 214.48 247.407 214.586C247.152 214.692 246.933 214.852 246.751 215.066C246.569 215.279 246.428 215.548 246.329 215.872C246.23 216.197 246.181 216.578 246.181 217.017L245.362 216.765C245.362 216.035 245.493 215.406 245.757 214.88C246.021 214.354 246.392 213.95 246.87 213.667C247.348 213.385 247.912 213.244 248.561 213.244C249.048 213.244 249.465 213.321 249.812 213.475C250.158 213.629 250.446 213.834 250.675 214.089C250.903 214.345 251.083 214.629 251.214 214.943C251.344 215.257 251.436 215.577 251.49 215.902C251.544 216.228 251.571 216.534 251.571 216.821V221H250.311ZM244.921 221V213.44H246.041V215.463H246.181V221H244.921ZM261.035 221.21C260.029 221.21 259.176 220.988 258.476 220.545C257.776 220.102 257.243 219.486 256.878 218.697C256.513 217.908 256.331 216.996 256.331 215.96C256.331 214.924 256.513 214.012 256.878 213.223C257.243 212.434 257.776 211.818 258.476 211.375C259.176 210.932 260.029 210.71 261.035 210.71C262.201 210.71 263.161 211.007 263.913 211.601C264.666 212.195 265.186 212.992 265.473 213.993L264.206 214.329C264 213.578 263.633 212.985 263.105 212.551C262.576 212.117 261.886 211.9 261.035 211.9C260.283 211.9 259.658 212.07 259.159 212.411C258.659 212.752 258.284 213.227 258.032 213.837C257.78 214.447 257.651 215.155 257.647 215.96C257.642 216.765 257.766 217.472 258.018 218.081C258.27 218.69 258.648 219.165 259.152 219.507C259.656 219.849 260.283 220.02 261.035 220.02C261.886 220.02 262.576 219.802 263.105 219.365C263.633 218.929 264 218.338 264.206 217.591L265.473 217.927C265.186 218.928 264.666 219.725 263.913 220.319C263.161 220.913 262.201 221.21 261.035 221.21ZM269.512 221.21C268.947 221.21 268.474 221.107 268.092 220.9C267.711 220.694 267.424 220.42 267.231 220.078C267.039 219.736 266.943 219.362 266.943 218.956C266.943 218.559 267.018 218.216 267.168 217.925C267.319 217.635 267.532 217.392 267.809 217.197C268.085 217.002 268.415 216.849 268.798 216.737C269.157 216.641 269.559 216.557 270.003 216.483C270.448 216.41 270.899 216.343 271.356 216.284C271.813 216.224 272.242 216.165 272.641 216.107L272.193 216.366C272.204 215.696 272.069 215.2 271.788 214.877C271.507 214.554 271.021 214.392 270.331 214.392C269.873 214.392 269.472 214.496 269.128 214.705C268.784 214.914 268.543 215.251 268.406 215.715L267.223 215.358C267.402 214.695 267.754 214.175 268.278 213.797C268.802 213.419 269.491 213.23 270.345 213.23C271.028 213.23 271.616 213.352 272.109 213.597C272.601 213.843 272.956 214.212 273.173 214.707C273.28 214.94 273.348 215.194 273.376 215.467C273.404 215.74 273.418 216.025 273.418 216.324V221H272.312V219.187L272.571 219.355C272.286 219.969 271.887 220.431 271.375 220.743C270.863 221.054 270.242 221.21 269.512 221.21ZM269.701 220.167C270.149 220.167 270.537 220.087 270.866 219.927C271.195 219.767 271.46 219.555 271.661 219.29C271.861 219.025 271.992 218.737 272.053 218.424C272.12 218.191 272.158 217.931 272.166 217.645C272.174 217.359 272.179 217.138 272.179 216.982L272.613 217.171C272.207 217.229 271.807 217.284 271.414 217.335C271.021 217.387 270.649 217.441 270.299 217.498C269.949 217.555 269.635 217.624 269.358 217.703C269.15 217.768 268.957 217.853 268.778 217.957C268.6 218.061 268.456 218.193 268.346 218.354C268.236 218.515 268.182 218.713 268.182 218.949C268.182 219.157 268.233 219.353 268.337 219.539C268.441 219.724 268.604 219.875 268.827 219.992C269.05 220.109 269.341 220.167 269.701 220.167ZM275.588 221V213.44H276.701V215.267L276.519 215.029C276.607 214.796 276.723 214.581 276.865 214.385C277.007 214.189 277.167 214.028 277.345 213.902C277.538 213.746 277.759 213.625 278.008 213.541C278.256 213.457 278.509 213.407 278.766 213.391C279.022 213.375 279.263 213.391 279.487 213.44V214.609C279.225 214.541 278.938 214.524 278.624 214.557C278.31 214.589 278.021 214.702 277.758 214.896C277.513 215.071 277.324 215.282 277.192 215.528C277.06 215.774 276.969 216.041 276.918 216.327C276.866 216.614 276.841 216.907 276.841 217.206V221H275.588ZM284.303 221.21C283.558 221.21 282.91 221.046 282.357 220.718C281.804 220.39 281.374 219.931 281.067 219.339C280.76 218.748 280.607 218.058 280.607 217.269C280.607 216.443 280.758 215.728 281.06 215.123C281.362 214.519 281.785 214.053 282.33 213.724C282.875 213.394 283.514 213.23 284.247 213.23C285.005 213.23 285.651 213.405 286.186 213.755C286.72 214.105 287.122 214.604 287.391 215.253C287.661 215.902 287.776 216.674 287.736 217.57H286.48V217.122C286.466 216.193 286.277 215.499 285.913 215.04C285.549 214.58 285.007 214.35 284.289 214.35C283.516 214.35 282.93 214.597 282.53 215.092C282.13 215.587 281.93 216.296 281.93 217.22C281.93 218.111 282.13 218.802 282.53 219.292C282.93 219.782 283.502 220.027 284.247 220.027C284.746 220.027 285.18 219.913 285.549 219.684C285.917 219.455 286.207 219.126 286.417 218.697L287.614 219.11C287.317 219.777 286.874 220.294 286.285 220.66C285.696 221.027 285.035 221.21 284.303 221.21ZM281.51 217.57V216.569H287.096V217.57H281.51Z" fill="#94A3B8"/>
<foreignObject x="14" y="262" width="362" height="496.02"><div xmlns="http://www.w3.org/1999/xhtml" style="backdrop-filter:blur(6px);clip-path:url(#bgblur_1_6_77_clip_path);height:100%;width:100%"></div></foreignObject><g data-figma-bg-blur-radius="12">
<rect x="26" y="274" width="338" height="472" rx="20" fill="#101622" fill-opacity="0.6"/>
<rect x="26.5" y="274.5" width="337" height="471" rx="19.5" stroke="white" stroke-opacity="0.1"/>
<g filter="url(#filter4_d_6_77)">
<rect x="26" y="274" width="338" height="472.02" rx="20" fill="white" fill-opacity="0.01" shape-rendering="crispEdges"/>
</g>
<path d="M51.858 312V303.06H57.807V304.5H53.493V306.798H57.567V308.238H53.493V310.56H57.807V312H51.858ZM59.598 312V303.06H61.158L64.509 307.608H63.762L67.038 303.06H68.598V312H66.963V304.923L67.599 305.079L64.194 309.6H64.002L60.69 305.079L61.233 304.923V312H59.598ZM70.188 312L73.272 303.06H75.384L78.468 312H76.695L76.053 310.086H72.597L71.952 312H70.188ZM73.062 308.646H75.582L74.103 304.194H74.553L73.062 308.646ZM80.058 312V303.06H81.693V312H80.058ZM84.006 312V303.06H85.641V310.56H89.466V312H84.006Z" fill="#94A3B8"/>
<rect x="51" y="323" width="288" height="54" rx="24" fill="#1E2532"/>
<rect x="51.5" y="323.5" width="287" height="53" rx="23.5" stroke="#334155" stroke-opacity="0.5"/>
<g clip-path="url(#clip2_6_77)">
<path d="M103.36 356V351.592C103.36 351.112 103.315 350.672 103.224 350.272C103.133 349.867 102.987 349.515 102.784 349.216C102.587 348.912 102.328 348.677 102.008 348.512C101.693 348.347 101.309 348.264 100.856 348.264C100.44 348.264 100.072 348.336 99.752 348.48C99.4373 348.624 99.1707 348.832 98.952 349.104C98.7387 349.371 98.576 349.696 98.464 350.08C98.352 350.464 98.296 350.901 98.296 351.392L97.464 351.208C97.464 350.323 97.6187 349.579 97.928 348.976C98.2373 348.373 98.664 347.917 99.208 347.608C99.752 347.299 100.376 347.144 101.08 347.144C101.597 347.144 102.048 347.224 102.432 347.384C102.821 347.544 103.149 347.76 103.416 348.032C103.688 348.304 103.907 348.616 104.072 348.968C104.237 349.315 104.357 349.685 104.432 350.08C104.507 350.469 104.544 350.859 104.544 351.248V356H103.36ZM97.112 356V347.36H98.176V349.488H98.296V356H97.112ZM109.092 356.24C108.441 356.24 107.895 356.123 107.452 355.888C107.015 355.653 106.687 355.341 106.468 354.952C106.249 354.563 106.14 354.139 106.14 353.68C106.14 353.211 106.233 352.811 106.42 352.48C106.612 352.144 106.871 351.869 107.196 351.656C107.527 351.443 107.908 351.28 108.34 351.168C108.777 351.061 109.26 350.968 109.788 350.888C110.321 350.803 110.841 350.731 111.348 350.672C111.86 350.608 112.308 350.547 112.692 350.488L112.276 350.744C112.292 349.891 112.127 349.259 111.78 348.848C111.433 348.437 110.831 348.232 109.972 348.232C109.38 348.232 108.879 348.365 108.468 348.632C108.063 348.899 107.777 349.32 107.612 349.896L106.468 349.56C106.665 348.787 107.063 348.187 107.66 347.76C108.257 347.333 109.033 347.12 109.988 347.12C110.777 347.12 111.447 347.269 111.996 347.568C112.551 347.861 112.943 348.288 113.172 348.848C113.279 349.099 113.348 349.379 113.38 349.688C113.412 349.997 113.428 350.312 113.428 350.632V356H112.38V353.832L112.684 353.96C112.391 354.701 111.935 355.267 111.316 355.656C110.697 356.045 109.956 356.24 109.092 356.24ZM109.228 355.224C109.777 355.224 110.257 355.125 110.668 354.928C111.079 354.731 111.409 354.461 111.66 354.12C111.911 353.773 112.073 353.384 112.148 352.952C112.212 352.675 112.247 352.371 112.252 352.04C112.257 351.704 112.26 351.453 112.26 351.288L112.708 351.52C112.308 351.573 111.873 351.627 111.404 351.68C110.94 351.733 110.481 351.795 110.028 351.864C109.58 351.933 109.175 352.016 108.812 352.112C108.567 352.181 108.329 352.28 108.1 352.408C107.871 352.531 107.681 352.696 107.532 352.904C107.388 353.112 107.316 353.371 107.316 353.68C107.316 353.931 107.377 354.173 107.5 354.408C107.628 354.643 107.831 354.837 108.108 354.992C108.391 355.147 108.764 355.224 109.228 355.224ZM125.815 356L125.823 350.328C125.823 349.661 125.636 349.139 125.263 348.76C124.895 348.376 124.425 348.184 123.855 348.184C123.529 348.184 123.212 348.259 122.903 348.408C122.593 348.557 122.337 348.797 122.135 349.128C121.937 349.459 121.839 349.891 121.839 350.424L121.143 350.224C121.127 349.605 121.247 349.064 121.503 348.6C121.764 348.136 122.121 347.776 122.575 347.52C123.033 347.259 123.551 347.128 124.127 347.128C124.996 347.128 125.692 347.397 126.215 347.936C126.737 348.469 126.999 349.192 126.999 350.104L126.991 356H125.815ZM115.503 356V347.36H116.559V349.488H116.687V356H115.503ZM120.671 356L120.679 350.408C120.679 349.72 120.495 349.179 120.127 348.784C119.764 348.384 119.284 348.184 118.687 348.184C118.089 348.184 117.607 348.389 117.239 348.8C116.871 349.205 116.687 349.747 116.687 350.424L115.983 350.04C115.983 349.485 116.113 348.989 116.375 348.552C116.636 348.109 116.993 347.763 117.447 347.512C117.9 347.256 118.415 347.128 118.991 347.128C119.54 347.128 120.028 347.245 120.455 347.48C120.887 347.715 121.225 348.056 121.471 348.504C121.716 348.952 121.839 349.496 121.839 350.136L121.831 356H120.671ZM132.682 356.24C131.84 356.24 131.109 356.053 130.49 355.68C129.877 355.307 129.4 354.781 129.058 354.104C128.717 353.427 128.546 352.632 128.546 351.72C128.546 350.776 128.714 349.96 129.05 349.272C129.386 348.584 129.858 348.053 130.466 347.68C131.08 347.307 131.802 347.12 132.634 347.12C133.488 347.12 134.216 347.317 134.818 347.712C135.421 348.101 135.877 348.661 136.186 349.392C136.496 350.123 136.637 350.995 136.61 352.008H135.41V351.592C135.389 350.472 135.146 349.627 134.682 349.056C134.224 348.485 133.552 348.2 132.666 348.2C131.738 348.2 131.026 348.501 130.53 349.104C130.04 349.707 129.794 350.565 129.794 351.68C129.794 352.768 130.04 353.613 130.53 354.216C131.026 354.813 131.728 355.112 132.634 355.112C133.253 355.112 133.792 354.971 134.25 354.688C134.714 354.4 135.08 353.987 135.346 353.448L136.442 353.872C136.101 354.624 135.597 355.208 134.93 355.624C134.269 356.035 133.52 356.24 132.682 356.24ZM129.378 352.008V351.024H135.978V352.008H129.378ZM144.522 357.68C143.668 357.68 142.879 357.531 142.154 357.232C141.428 356.939 140.796 356.528 140.258 356C139.719 355.467 139.298 354.84 138.994 354.12C138.695 353.4 138.546 352.616 138.546 351.768C138.546 350.867 138.692 350.045 138.986 349.304C139.279 348.557 139.692 347.915 140.226 347.376C140.764 346.832 141.402 346.413 142.138 346.12C142.874 345.827 143.682 345.68 144.562 345.68C145.57 345.68 146.45 345.843 147.202 346.168C147.959 346.488 148.583 346.925 149.074 347.48C149.564 348.029 149.922 348.648 150.146 349.336C150.375 350.024 150.471 350.736 150.434 351.472C150.38 352.48 150.14 353.24 149.714 353.752C149.292 354.264 148.703 354.52 147.946 354.52C147.455 354.52 147.028 354.405 146.666 354.176C146.303 353.947 146.06 353.624 145.938 353.208L146.322 353.248C146.135 353.627 145.855 353.901 145.482 354.072C145.114 354.243 144.73 354.328 144.33 354.328C143.844 354.328 143.418 354.224 143.05 354.016C142.687 353.803 142.402 353.509 142.194 353.136C141.991 352.763 141.89 352.331 141.89 351.84C141.89 351.328 141.996 350.885 142.21 350.512C142.423 350.139 142.716 349.851 143.09 349.648C143.463 349.445 143.884 349.344 144.354 349.344C144.7 349.344 145.058 349.416 145.426 349.56C145.799 349.704 146.084 349.939 146.282 350.264L145.97 350.616V349.568H146.818L146.81 352.168C146.81 352.563 146.9 352.885 147.082 353.136C147.268 353.381 147.575 353.504 148.002 353.504C148.29 353.504 148.53 353.424 148.722 353.264C148.919 353.104 149.071 352.88 149.178 352.592C149.284 352.299 149.346 351.955 149.362 351.56C149.394 350.749 149.29 350.04 149.05 349.432C148.81 348.824 148.468 348.317 148.026 347.912C147.583 347.501 147.068 347.195 146.482 346.992C145.9 346.789 145.279 346.688 144.618 346.688C143.818 346.688 143.106 346.821 142.482 347.088C141.863 347.355 141.338 347.723 140.906 348.192C140.479 348.661 140.156 349.203 139.938 349.816C139.719 350.424 139.615 351.072 139.626 351.76C139.631 352.469 139.759 353.125 140.01 353.728C140.266 354.325 140.618 354.845 141.066 355.288C141.514 355.725 142.036 356.064 142.634 356.304C143.231 356.549 143.879 356.672 144.578 356.672C145.031 356.672 145.484 356.613 145.938 356.496C146.396 356.379 146.804 356.216 147.162 356.008L147.538 356.904C147.074 357.165 146.586 357.36 146.074 357.488C145.562 357.616 145.044 357.68 144.522 357.68ZM144.394 353.304C144.81 353.304 145.148 353.184 145.41 352.944C145.676 352.704 145.81 352.333 145.81 351.832C145.81 351.341 145.682 350.971 145.426 350.72C145.175 350.469 144.839 350.344 144.418 350.344C143.938 350.344 143.57 350.475 143.314 350.736C143.063 350.997 142.938 351.363 142.938 351.832C142.938 352.307 143.068 352.672 143.33 352.928C143.591 353.179 143.946 353.304 144.394 353.304ZM156.495 356.24C155.652 356.24 154.921 356.053 154.303 355.68C153.689 355.307 153.212 354.781 152.871 354.104C152.529 353.427 152.359 352.632 152.359 351.72C152.359 350.776 152.527 349.96 152.863 349.272C153.199 348.584 153.671 348.053 154.279 347.68C154.892 347.307 155.615 347.12 156.447 347.12C157.3 347.12 158.028 347.317 158.631 347.712C159.233 348.101 159.689 348.661 159.999 349.392C160.308 350.123 160.449 350.995 160.423 352.008H159.223V351.592C159.201 350.472 158.959 349.627 158.495 349.056C158.036 348.485 157.364 348.2 156.479 348.2C155.551 348.2 154.839 348.501 154.343 349.104C153.852 349.707 153.607 350.565 153.607 351.68C153.607 352.768 153.852 353.613 154.343 354.216C154.839 354.813 155.54 355.112 156.447 355.112C157.065 355.112 157.604 354.971 158.063 354.688C158.527 354.4 158.892 353.987 159.159 353.448L160.255 353.872C159.913 354.624 159.409 355.208 158.743 355.624C158.081 356.035 157.332 356.24 156.495 356.24ZM153.191 352.008V351.024H159.791V352.008H153.191ZM160.926 356L164.302 351.632L160.998 347.36H162.406L164.99 350.728L167.55 347.36H168.958L165.654 351.632L169.038 356H167.622L164.99 352.536L162.342 356H160.926ZM172.483 356.24C171.832 356.24 171.285 356.123 170.843 355.888C170.405 355.653 170.077 355.341 169.859 354.952C169.64 354.563 169.531 354.139 169.531 353.68C169.531 353.211 169.624 352.811 169.811 352.48C170.003 352.144 170.261 351.869 170.587 351.656C170.917 351.443 171.299 351.28 171.731 351.168C172.168 351.061 172.651 350.968 173.179 350.888C173.712 350.803 174.232 350.731 174.739 350.672C175.251 350.608 175.699 350.547 176.083 350.488L175.667 350.744C175.683 349.891 175.517 349.259 175.171 348.848C174.824 348.437 174.221 348.232 173.363 348.232C172.771 348.232 172.269 348.365 171.859 348.632C171.453 348.899 171.168 349.32 171.003 349.896L169.859 349.56C170.056 348.787 170.453 348.187 171.051 347.76C171.648 347.333 172.424 347.12 173.379 347.12C174.168 347.12 174.837 347.269 175.387 347.568C175.941 347.861 176.333 348.288 176.563 348.848C176.669 349.099 176.739 349.379 176.771 349.688C176.803 349.997 176.819 350.312 176.819 350.632V356H175.771V353.832L176.075 353.96C175.781 354.701 175.325 355.267 174.707 355.656C174.088 356.045 173.347 356.24 172.483 356.24ZM172.619 355.224C173.168 355.224 173.648 355.125 174.059 354.928C174.469 354.731 174.8 354.461 175.051 354.12C175.301 353.773 175.464 353.384 175.539 352.952C175.603 352.675 175.637 352.371 175.643 352.04C175.648 351.704 175.651 351.453 175.651 351.288L176.099 351.52C175.699 351.573 175.264 351.627 174.795 351.68C174.331 351.733 173.872 351.795 173.419 351.864C172.971 351.933 172.565 352.016 172.203 352.112C171.957 352.181 171.72 352.28 171.491 352.408C171.261 352.531 171.072 352.696 170.923 352.904C170.779 353.112 170.707 353.371 170.707 353.68C170.707 353.931 170.768 354.173 170.891 354.408C171.019 354.643 171.221 354.837 171.499 354.992C171.781 355.147 172.155 355.224 172.619 355.224ZM189.205 356L189.213 350.328C189.213 349.661 189.027 349.139 188.653 348.76C188.285 348.376 187.816 348.184 187.245 348.184C186.92 348.184 186.603 348.259 186.293 348.408C185.984 348.557 185.728 348.797 185.525 349.128C185.328 349.459 185.229 349.891 185.229 350.424L184.533 350.224C184.517 349.605 184.637 349.064 184.893 348.6C185.155 348.136 185.512 347.776 185.965 347.52C186.424 347.259 186.941 347.128 187.517 347.128C188.387 347.128 189.083 347.397 189.605 347.936C190.128 348.469 190.389 349.192 190.389 350.104L190.381 356H189.205ZM178.893 356V347.36H179.949V349.488H180.077V356H178.893ZM184.061 356L184.069 350.408C184.069 349.72 183.885 349.179 183.517 348.784C183.155 348.384 182.675 348.184 182.077 348.184C181.48 348.184 180.997 348.389 180.629 348.8C180.261 349.205 180.077 349.747 180.077 350.424L179.373 350.04C179.373 349.485 179.504 348.989 179.765 348.552C180.027 348.109 180.384 347.763 180.837 347.512C181.291 347.256 181.805 347.128 182.381 347.128C182.931 347.128 183.419 347.245 183.845 347.48C184.277 347.715 184.616 348.056 184.861 348.504C185.107 348.952 185.229 349.496 185.229 350.136L185.221 356H184.061ZM196.344 356.24C195.549 356.24 194.877 356.04 194.328 355.64C193.778 355.235 193.362 354.688 193.08 354C192.797 353.307 192.656 352.531 192.656 351.672C192.656 350.797 192.797 350.019 193.08 349.336C193.368 348.648 193.789 348.107 194.344 347.712C194.898 347.317 195.581 347.12 196.392 347.12C197.181 347.12 197.858 347.32 198.424 347.72C198.989 348.12 199.421 348.664 199.72 349.352C200.024 350.04 200.176 350.813 200.176 351.672C200.176 352.536 200.024 353.312 199.72 354C199.416 354.688 198.978 355.235 198.408 355.64C197.837 356.04 197.149 356.24 196.344 356.24ZM192.456 359.84V347.36H193.512V353.864H193.64V359.84H192.456ZM196.224 355.144C196.826 355.144 197.328 354.992 197.728 354.688C198.128 354.384 198.426 353.971 198.624 353.448C198.826 352.92 198.928 352.328 198.928 351.672C198.928 351.021 198.829 350.435 198.632 349.912C198.434 349.389 198.133 348.976 197.728 348.672C197.328 348.368 196.818 348.216 196.2 348.216C195.597 348.216 195.096 348.363 194.696 348.656C194.301 348.949 194.005 349.357 193.808 349.88C193.61 350.397 193.512 350.995 193.512 351.672C193.512 352.339 193.61 352.936 193.808 353.464C194.005 353.987 194.304 354.397 194.704 354.696C195.104 354.995 195.61 355.144 196.224 355.144ZM202.093 356V344.24H203.269V356H202.093ZM209.323 356.24C208.48 356.24 207.75 356.053 207.131 355.68C206.518 355.307 206.04 354.781 205.699 354.104C205.358 353.427 205.187 352.632 205.187 351.72C205.187 350.776 205.355 349.96 205.691 349.272C206.027 348.584 206.499 348.053 207.107 347.68C207.72 347.307 208.443 347.12 209.275 347.12C210.128 347.12 210.856 347.317 211.459 347.712C212.062 348.101 212.518 348.661 212.827 349.392C213.136 350.123 213.278 350.995 213.251 352.008H212.051V351.592C212.03 350.472 211.787 349.627 211.323 349.056C210.864 348.485 210.192 348.2 209.307 348.2C208.379 348.2 207.667 348.501 207.171 349.104C206.68 349.707 206.435 350.565 206.435 351.68C206.435 352.768 206.68 353.613 207.171 354.216C207.667 354.813 208.368 355.112 209.275 355.112C209.894 355.112 210.432 354.971 210.891 354.688C211.355 354.4 211.72 353.987 211.987 353.448L213.083 353.872C212.742 354.624 212.238 355.208 211.571 355.624C210.91 356.035 210.16 356.24 209.323 356.24ZM206.019 352.008V351.024H212.619V352.008H206.019ZM214.938 356V354.632H216.306V356H214.938ZM222.36 356.24C221.491 356.24 220.755 356.045 220.152 355.656C219.55 355.267 219.091 354.731 218.776 354.048C218.467 353.36 218.307 352.571 218.296 351.68C218.307 350.773 218.472 349.979 218.792 349.296C219.112 348.608 219.574 348.075 220.176 347.696C220.779 347.312 221.51 347.12 222.368 347.12C223.243 347.12 224.003 347.333 224.648 347.76C225.299 348.187 225.744 348.771 225.984 349.512L224.832 349.88C224.63 349.363 224.307 348.963 223.864 348.68C223.427 348.392 222.926 348.248 222.36 348.248C221.726 348.248 221.2 348.395 220.784 348.688C220.368 348.976 220.059 349.379 219.856 349.896C219.654 350.413 219.55 351.008 219.544 351.68C219.555 352.715 219.795 353.547 220.264 354.176C220.734 354.8 221.432 355.112 222.36 355.112C222.947 355.112 223.446 354.979 223.856 354.712C224.272 354.44 224.587 354.045 224.8 353.528L225.984 353.88C225.664 354.648 225.195 355.235 224.576 355.64C223.958 356.04 223.219 356.24 222.36 356.24ZM231.009 356.24C230.151 356.24 229.417 356.045 228.809 355.656C228.201 355.267 227.735 354.728 227.409 354.04C227.084 353.352 226.921 352.563 226.921 351.672C226.921 350.765 227.087 349.971 227.417 349.288C227.748 348.605 228.217 348.075 228.825 347.696C229.439 347.312 230.167 347.12 231.009 347.12C231.873 347.12 232.609 347.315 233.217 347.704C233.831 348.088 234.297 348.624 234.617 349.312C234.943 349.995 235.105 350.781 235.105 351.672C235.105 352.579 234.943 353.376 234.617 354.064C234.292 354.747 233.823 355.28 233.209 355.664C232.596 356.048 231.863 356.24 231.009 356.24ZM231.009 355.112C231.969 355.112 232.684 354.795 233.153 354.16C233.623 353.52 233.857 352.691 233.857 351.672C233.857 350.627 233.62 349.795 233.145 349.176C232.676 348.557 231.964 348.248 231.009 348.248C230.364 348.248 229.831 348.395 229.409 348.688C228.993 348.976 228.681 349.379 228.473 349.896C228.271 350.408 228.169 351 228.169 351.672C228.169 352.712 228.409 353.547 228.889 354.176C229.369 354.8 230.076 355.112 231.009 355.112ZM247.174 356L247.182 350.328C247.182 349.661 246.995 349.139 246.622 348.76C246.254 348.376 245.785 348.184 245.214 348.184C244.889 348.184 244.571 348.259 244.262 348.408C243.953 348.557 243.697 348.797 243.494 349.128C243.297 349.459 243.198 349.891 243.198 350.424L242.502 350.224C242.486 349.605 242.606 349.064 242.862 348.6C243.123 348.136 243.481 347.776 243.934 347.52C244.393 347.259 244.91 347.128 245.486 347.128C246.355 347.128 247.051 347.397 247.574 347.936C248.097 348.469 248.358 349.192 248.358 350.104L248.35 356H247.174ZM236.862 356V347.36H237.918V349.488H238.046V356H236.862ZM242.03 356L242.038 350.408C242.038 349.72 241.854 349.179 241.486 348.784C241.123 348.384 240.643 348.184 240.046 348.184C239.449 348.184 238.966 348.389 238.598 348.8C238.23 349.205 238.046 349.747 238.046 350.424L237.342 350.04C237.342 349.485 237.473 348.989 237.734 348.552C237.995 348.109 238.353 347.763 238.806 347.512C239.259 347.256 239.774 347.128 240.35 347.128C240.899 347.128 241.387 347.245 241.814 347.48C242.246 347.715 242.585 348.056 242.83 348.504C243.075 348.952 243.198 349.496 243.198 350.136L243.19 356H242.03Z" fill="#64748B"/>
</g>
<path d="M68.3333 356.667C67.875 356.667 67.4826 356.503 67.1562 356.177C66.8299 355.851 66.6667 355.458 66.6667 355V345C66.6667 344.542 66.8299 344.149 67.1562 343.823C67.4826 343.497 67.875 343.333 68.3333 343.333H81.6667C82.125 343.333 82.5174 343.497 82.8437 343.823C83.1701 344.149 83.3333 344.542 83.3333 345V355C83.3333 355.458 83.1701 355.851 82.8437 356.177C82.5174 356.503 82.125 356.667 81.6667 356.667H68.3333ZM75 350.833L68.3333 346.667V355H81.6667V346.667L75 350.833ZM75 349.167L81.6667 345H68.3333L75 349.167ZM68.3333 346.667V345V346.667V355V346.667Z" fill="#94A3B8"/>
<path d="M318.213 351.163L322.45 346.925L321.381 345.856L318.213 349.025L316.638 347.45L315.569 348.519L318.213 351.163ZM319 356C317.262 355.562 315.828 354.566 314.697 353.009C313.566 351.453 313 349.725 313 347.825V343.25L319 341L325 343.25V347.825C325 349.725 324.434 351.453 323.303 353.009C322.172 354.566 320.738 355.562 319 356ZM319 354.425C320.3 354.012 321.375 353.188 322.225 351.95C323.075 350.712 323.5 349.337 323.5 347.825V344.281L319 342.594L314.5 344.281V347.825C314.5 349.337 314.925 350.712 315.775 351.95C316.625 353.188 317.7 354.012 319 354.425Z" fill="#2B6CEE" fill-opacity="0.5"/>
<path d="M51.858 410V401.06H55.2C55.808 401.06 56.3455 401.169 56.8125 401.388C57.2795 401.608 57.6455 401.928 57.9105 402.349C58.1755 402.77 58.308 403.282 58.308 403.886C58.308 404.478 58.174 404.984 57.906 405.404C57.638 405.824 57.271 406.145 56.805 406.367C56.339 406.589 55.804 406.7 55.2 406.7H53.493V410H51.858ZM53.493 405.26H55.221C55.515 405.26 55.77 405.202 55.986 405.087C56.202 404.972 56.3705 404.811 56.4915 404.605C56.6125 404.398 56.673 404.157 56.673 403.883C56.673 403.603 56.6125 403.36 56.4915 403.154C56.3705 402.948 56.202 402.787 55.986 402.672C55.77 402.557 55.515 402.5 55.221 402.5H53.493V405.26ZM58.788 410L61.872 401.06H63.984L67.068 410H65.295L64.653 408.086H61.197L60.552 410H58.788ZM61.662 406.646H64.182L62.703 402.194H63.153L61.662 406.646ZM71.73 410.144C71.168 410.144 70.6445 410.041 70.1595 409.833C69.6745 409.627 69.2585 409.337 68.9115 408.964C68.5645 408.59 68.308 408.157 68.142 407.663L69.501 407.069C69.721 407.587 70.0345 407.991 70.4415 408.28C70.8485 408.569 71.308 408.713 71.82 408.713C72.108 408.713 72.3575 408.668 72.5685 408.576C72.7795 408.486 72.944 408.36 73.062 408.199C73.18 408.038 73.239 407.848 73.239 407.63C73.239 407.364 73.161 407.146 73.005 406.975C72.849 406.804 72.613 406.669 72.297 406.571L70.581 406.019C69.889 405.799 69.3655 405.474 69.0105 405.046C68.6555 404.616 68.478 404.108 68.478 403.52C68.478 403.006 68.6045 402.553 68.8575 402.163C69.1105 401.771 69.463 401.466 69.915 401.246C70.367 401.026 70.885 400.916 71.469 400.916C72.005 400.916 72.4975 401.009 72.9465 401.197C73.3955 401.383 73.7815 401.643 74.1045 401.975C74.4275 402.307 74.668 402.699 74.826 403.151L73.482 403.748C73.308 403.304 73.0445 402.96 72.6915 402.715C72.3385 402.469 71.932 402.347 71.472 402.347C71.2 402.347 70.9595 402.392 70.7505 402.482C70.5415 402.572 70.38 402.701 70.266 402.867C70.152 403.035 70.095 403.228 70.095 403.448C70.095 403.696 70.175 403.915 70.335 404.105C70.495 404.295 70.737 404.441 71.061 404.543L72.702 405.062C73.418 405.288 73.9545 405.606 74.3115 406.016C74.6685 406.426 74.847 406.93 74.847 407.528C74.847 408.038 74.7145 408.49 74.4495 408.884C74.1845 409.278 73.819 409.587 73.353 409.809C72.887 410.032 72.346 410.144 71.73 410.144ZM80.094 410.144C79.532 410.144 79.0085 410.041 78.5235 409.833C78.0385 409.627 77.6225 409.337 77.2755 408.964C76.9285 408.59 76.672 408.157 76.506 407.663L77.865 407.069C78.085 407.587 78.3985 407.991 78.8055 408.28C79.2125 408.569 79.672 408.713 80.184 408.713C80.472 408.713 80.7215 408.668 80.9325 408.576C81.1435 408.486 81.308 408.36 81.426 408.199C81.544 408.038 81.603 407.848 81.603 407.63C81.603 407.364 81.525 407.146 81.369 406.975C81.213 406.804 80.977 406.669 80.661 406.571L78.945 406.019C78.253 405.799 77.7295 405.474 77.3745 405.046C77.0195 404.616 76.842 404.108 76.842 403.52C76.842 403.006 76.9685 402.553 77.2215 402.163C77.4745 401.771 77.827 401.466 78.279 401.246C78.731 401.026 79.249 400.916 79.833 400.916C80.369 400.916 80.8615 401.009 81.3105 401.197C81.7595 401.383 82.1455 401.643 82.4685 401.975C82.7915 402.307 83.032 402.699 83.19 403.151L81.846 403.748C81.672 403.304 81.4085 402.96 81.0555 402.715C80.7025 402.469 80.296 402.347 79.836 402.347C79.564 402.347 79.3235 402.392 79.1145 402.482C78.9055 402.572 78.744 402.701 78.63 402.867C78.516 403.035 78.459 403.228 78.459 403.448C78.459 403.696 78.539 403.915 78.699 404.105C78.859 404.295 79.101 404.441 79.425 404.543L81.066 405.062C81.782 405.288 82.3185 405.606 82.6755 406.016C83.0325 406.426 83.211 406.93 83.211 407.528C83.211 408.038 83.0785 408.49 82.8135 408.884C82.5485 409.278 82.183 409.587 81.717 409.809C81.251 410.032 80.71 410.144 80.094 410.144ZM86.817 410L84.42 401.06H86.175L88.053 408.677H87.597L89.562 401.06H91.257L93.219 408.677H92.76L94.641 401.06H96.396L93.999 410H92.124L90.147 402.59H90.669L88.692 410H86.817ZM102.156 410.144C101.496 410.144 100.883 410.028 100.316 409.797C99.7485 409.567 99.2535 409.242 98.8305 408.824C98.4075 408.406 98.077 407.916 97.839 407.355C97.601 406.795 97.482 406.184 97.482 405.524C97.482 404.864 97.5995 404.253 97.8345 403.693C98.0695 403.132 98.3985 402.644 98.8215 402.228C99.2445 401.813 99.7395 401.491 100.307 401.261C100.874 401.031 101.49 400.916 102.156 400.916C102.822 400.916 103.439 401.031 104.006 401.263C104.573 401.494 105.068 401.817 105.491 402.232C105.914 402.647 106.243 403.134 106.478 403.694C106.713 404.254 106.83 404.864 106.83 405.524C106.83 406.184 106.711 406.795 106.473 407.355C106.235 407.916 105.905 408.406 105.482 408.824C105.059 409.242 104.564 409.567 103.997 409.797C103.43 410.028 102.816 410.144 102.156 410.144ZM102.156 408.659C102.592 408.659 102.994 408.581 103.362 408.425C103.73 408.269 104.052 408.051 104.328 407.77C104.604 407.488 104.818 407.157 104.969 406.775C105.12 406.393 105.195 405.976 105.195 405.524C105.195 405.074 105.12 404.66 104.969 404.281C104.818 403.902 104.604 403.57 104.328 403.286C104.052 403.002 103.73 402.783 103.362 402.63C102.994 402.477 102.592 402.401 102.156 402.401C101.72 402.401 101.318 402.477 100.95 402.63C100.582 402.783 100.26 403.002 99.984 403.286C99.708 403.57 99.4945 403.902 99.3435 404.281C99.1925 404.66 99.117 405.074 99.117 405.524C99.117 405.976 99.1925 406.393 99.3435 406.775C99.4945 407.157 99.708 407.488 99.984 407.77C100.26 408.051 100.583 408.269 100.952 408.425C101.321 408.581 101.722 408.659 102.156 408.659ZM108.882 410V401.06H112.215C112.823 401.06 113.36 401.169 113.827 401.388C114.294 401.608 114.66 401.928 114.925 402.349C115.19 402.77 115.323 403.282 115.323 403.886C115.323 404.5 115.176 405.024 114.883 405.456C114.59 405.89 114.196 406.21 113.7 406.418L115.752 410H113.904L111.702 406.076L112.764 406.7H110.517V410H108.882ZM110.517 405.26H112.236C112.53 405.26 112.785 405.202 113.001 405.087C113.217 404.972 113.385 404.811 113.506 404.605C113.627 404.398 113.688 404.157 113.688 403.883C113.688 403.603 113.627 403.36 113.506 403.154C113.385 402.948 113.217 402.787 113.001 402.672C112.785 402.557 112.53 402.5 112.236 402.5H110.517V405.26ZM117.414 410V401.06H120.336C121.282 401.06 122.105 401.25 122.804 401.629C123.503 402.007 124.044 402.532 124.428 403.203C124.812 403.875 125.004 404.649 125.004 405.528C125.004 406.399 124.812 407.173 124.428 407.848C124.044 408.523 123.503 409.05 122.804 409.43C122.105 409.81 121.282 410 120.336 410H117.414ZM119.049 408.56H120.372C120.98 408.56 121.506 408.435 121.951 408.185C122.396 407.935 122.742 407.583 122.988 407.128C123.234 406.674 123.357 406.138 123.357 405.52C123.357 404.903 123.234 404.369 122.987 403.918C122.74 403.467 122.395 403.118 121.95 402.871C121.506 402.624 120.98 402.5 120.372 402.5H119.049V408.56Z" fill="#94A3B8"/>
<path d="M296.7 410V401.36H301.74V402.428H297.768V405.146H301.02V406.214H297.768V410H296.7ZM305.4 410.18C304.754 410.18 304.198 410.034 303.732 409.742C303.266 409.45 302.908 409.047 302.657 408.532C302.406 408.017 302.28 407.424 302.28 406.754C302.28 406.076 302.408 405.48 302.664 404.967C302.92 404.454 303.282 404.055 303.749 403.769C304.216 403.483 304.766 403.34 305.4 403.34C306.048 403.34 306.606 403.485 307.073 403.776C307.54 404.067 307.899 404.469 308.15 404.982C308.401 405.495 308.526 406.086 308.526 406.754C308.526 407.432 308.4 408.028 308.147 408.542C307.894 409.056 307.533 409.457 307.065 409.747C306.597 410.035 306.042 410.18 305.4 410.18ZM305.4 409.166C306.07 409.166 306.57 408.942 306.899 408.494C307.228 408.046 307.392 407.466 307.392 406.754C307.392 406.024 307.226 405.441 306.894 405.007C306.562 404.572 306.064 404.354 305.4 404.354C304.948 404.354 304.576 404.456 304.283 404.66C303.99 404.864 303.772 405.146 303.629 405.506C303.486 405.866 303.414 406.282 303.414 406.754C303.414 407.484 303.582 408.068 303.918 408.507C304.254 408.947 304.748 409.166 305.4 409.166ZM309.846 410V403.52H310.8V405.086L310.644 404.882C310.72 404.682 310.819 404.498 310.941 404.33C311.063 404.162 311.2 404.024 311.352 403.916C311.518 403.782 311.708 403.679 311.921 403.607C312.134 403.535 312.35 403.492 312.57 403.478C312.79 403.464 312.996 403.478 313.188 403.52V404.522C312.964 404.464 312.718 404.449 312.449 404.477C312.18 404.505 311.932 404.602 311.706 404.768C311.496 404.918 311.335 405.098 311.222 405.309C311.109 405.521 311.03 405.749 310.986 405.995C310.942 406.241 310.92 406.492 310.92 406.748V410H309.846ZM316.71 413.06C316.37 413.06 316.038 413.008 315.714 412.906C315.39 412.803 315.093 412.646 314.823 412.436C314.553 412.226 314.328 411.96 314.148 411.638L315.126 411.122C315.286 411.44 315.513 411.67 315.806 411.813C316.099 411.956 316.402 412.028 316.716 412.028C317.128 412.028 317.47 411.953 317.741 411.803C318.012 411.653 318.213 411.43 318.344 411.134C318.475 410.838 318.538 410.47 318.534 410.03V408.26H318.66V403.52H319.608V410.042C319.608 410.22 319.603 410.39 319.592 410.553C319.581 410.716 319.56 410.878 319.53 411.038C319.446 411.498 319.28 411.877 319.032 412.175C318.784 412.473 318.464 412.695 318.072 412.841C317.68 412.987 317.226 413.06 316.71 413.06ZM316.632 410.18C316.028 410.18 315.51 410.03 315.077 409.729C314.644 409.428 314.311 409.019 314.078 408.501C313.845 407.984 313.728 407.402 313.728 406.754C313.728 406.106 313.845 405.525 314.078 405.01C314.311 404.495 314.644 404.088 315.077 403.789C315.51 403.49 316.026 403.34 316.626 403.34C317.236 403.34 317.75 403.488 318.167 403.785C318.584 404.082 318.899 404.488 319.113 405.003C319.327 405.518 319.434 406.102 319.434 406.754C319.434 407.4 319.327 407.981 319.113 408.498C318.899 409.015 318.584 409.425 318.168 409.727C317.752 410.029 317.24 410.18 316.632 410.18ZM316.764 409.202C317.2 409.202 317.558 409.097 317.838 408.887C318.118 408.677 318.325 408.387 318.459 408.019C318.593 407.649 318.66 407.228 318.66 406.754C318.66 406.276 318.593 405.854 318.458 405.486C318.323 405.12 318.117 404.833 317.841 404.627C317.565 404.421 317.216 404.318 316.794 404.318C316.354 404.318 315.991 404.426 315.705 404.642C315.419 404.858 315.207 405.15 315.069 405.518C314.931 405.886 314.862 406.298 314.862 406.754C314.862 407.214 314.932 407.629 315.072 407.999C315.212 408.369 315.423 408.662 315.704 408.878C315.985 409.094 316.338 409.202 316.764 409.202ZM324.048 410.18C323.402 410.18 322.846 410.034 322.38 409.742C321.914 409.45 321.555 409.047 321.304 408.532C321.053 408.017 320.928 407.424 320.928 406.754C320.928 406.076 321.056 405.48 321.312 404.967C321.568 404.454 321.929 404.055 322.396 403.769C322.863 403.483 323.414 403.34 324.048 403.34C324.696 403.34 325.254 403.485 325.721 403.776C326.188 404.067 326.546 404.469 326.797 404.982C327.049 405.495 327.174 406.086 327.174 406.754C327.174 407.432 327.048 408.028 326.794 408.542C326.541 409.056 326.181 409.457 325.713 409.747C325.245 410.035 324.69 410.18 324.048 410.18ZM324.048 409.166C324.718 409.166 325.217 408.942 325.546 408.494C325.875 408.046 326.04 407.466 326.04 406.754C326.04 406.024 325.874 405.441 325.542 405.007C325.21 404.572 324.712 404.354 324.048 404.354C323.596 404.354 323.223 404.456 322.93 404.66C322.637 404.864 322.419 405.146 322.276 405.506C322.133 405.866 322.062 406.282 322.062 406.754C322.062 407.484 322.23 408.068 322.566 408.507C322.902 408.947 323.396 409.166 324.048 409.166ZM332.112 410C331.726 410.078 331.347 410.11 330.974 410.096C330.601 410.082 330.268 410.006 329.975 409.868C329.682 409.73 329.46 409.514 329.31 409.22C329.182 408.966 329.113 408.708 329.103 408.446C329.093 408.184 329.088 407.886 329.088 407.552V401.72H330.156V407.504C330.156 407.77 330.159 407.997 330.165 408.184C330.171 408.37 330.212 408.532 330.288 408.668C330.432 408.926 330.661 409.076 330.975 409.119C331.289 409.162 331.668 409.15 332.112 409.082V410ZM327.774 404.402V403.52H332.112V404.402H327.774ZM335.082 407.648C335.082 407.348 335.101 407.076 335.139 406.831C335.177 406.586 335.26 406.346 335.388 406.112C335.502 405.89 335.639 405.708 335.8 405.566C335.961 405.424 336.133 405.287 336.316 405.155C336.499 405.023 336.682 404.86 336.864 404.666C337.022 404.488 337.127 404.308 337.18 404.126C337.233 403.944 337.26 403.75 337.26 403.544C337.26 403.366 337.238 403.204 337.195 403.058C337.152 402.912 337.084 402.786 336.99 402.68C336.846 402.502 336.667 402.378 336.453 402.31C336.239 402.24 336.016 402.206 335.784 402.206C335.564 402.206 335.357 402.236 335.163 402.297C334.969 402.359 334.808 402.452 334.68 402.578C334.55 402.694 334.455 402.836 334.395 403.003C334.335 403.169 334.306 403.348 334.308 403.538H333.192C333.216 403.192 333.298 402.862 333.439 402.547C333.58 402.232 333.778 401.972 334.032 401.768C334.266 401.568 334.535 401.421 334.84 401.327C335.145 401.233 335.452 401.186 335.76 401.186C336.168 401.186 336.554 401.249 336.919 401.374C337.284 401.499 337.59 401.704 337.836 401.99C338.024 402.196 338.164 402.431 338.256 402.695C338.348 402.959 338.394 403.236 338.394 403.526C338.394 403.882 338.322 404.214 338.179 404.522C338.036 404.83 337.846 405.108 337.608 405.356C337.474 405.5 337.33 405.632 337.176 405.752C337.022 405.872 336.876 405.993 336.739 406.113C336.602 406.234 336.494 406.366 336.414 406.508C336.308 406.696 336.248 406.869 336.235 407.029C336.222 407.188 336.216 407.394 336.216 407.648H335.082ZM335.088 410V408.686H336.216V410H335.088Z" fill="#2B6CEE"/>
<rect x="51" y="421" width="288" height="54" rx="24" fill="#1E2532"/>
<rect x="51.5" y="421.5" width="287" height="53" rx="23.5" stroke="#334155" stroke-opacity="0.5"/>
<g clip-path="url(#clip3_6_77)">
<path d="M101.264 450.824C100.912 450.824 100.592 450.744 100.304 450.584C100.016 450.419 99.7867 450.195 99.616 449.912C99.4453 449.629 99.36 449.312 99.36 448.96C99.36 448.603 99.4453 448.283 99.616 448C99.7867 447.717 100.016 447.496 100.304 447.336C100.592 447.176 100.912 447.096 101.264 447.096C101.595 447.096 101.899 447.176 102.176 447.336C102.453 447.496 102.675 447.717 102.84 448C103.011 448.283 103.096 448.603 103.096 448.96C103.096 449.312 103.011 449.629 102.84 449.912C102.675 450.195 102.453 450.419 102.176 450.584C101.899 450.744 101.595 450.824 101.264 450.824ZM111.717 450.824C111.365 450.824 111.045 450.744 110.757 450.584C110.469 450.419 110.24 450.195 110.069 449.912C109.898 449.629 109.813 449.312 109.813 448.96C109.813 448.603 109.898 448.283 110.069 448C110.24 447.717 110.469 447.496 110.757 447.336C111.045 447.176 111.365 447.096 111.717 447.096C112.048 447.096 112.352 447.176 112.629 447.336C112.906 447.496 113.128 447.717 113.293 448C113.464 448.283 113.549 448.603 113.549 448.96C113.549 449.312 113.464 449.629 113.293 449.912C113.128 450.195 112.906 450.419 112.629 450.584C112.352 450.744 112.048 450.824 111.717 450.824ZM122.17 450.824C121.818 450.824 121.498 450.744 121.21 450.584C120.922 450.419 120.693 450.195 120.522 449.912C120.352 449.629 120.266 449.312 120.266 448.96C120.266 448.603 120.352 448.283 120.522 448C120.693 447.717 120.922 447.496 121.21 447.336C121.498 447.176 121.818 447.096 122.17 447.096C122.501 447.096 122.805 447.176 123.082 447.336C123.36 447.496 123.581 447.717 123.746 448C123.917 448.283 124.002 448.603 124.002 448.96C124.002 449.312 123.917 449.629 123.746 449.912C123.581 450.195 123.36 450.419 123.082 450.584C122.805 450.744 122.501 450.824 122.17 450.824ZM132.623 450.824C132.271 450.824 131.951 450.744 131.663 450.584C131.375 450.419 131.146 450.195 130.975 449.912C130.805 449.629 130.719 449.312 130.719 448.96C130.719 448.603 130.805 448.283 130.975 448C131.146 447.717 131.375 447.496 131.663 447.336C131.951 447.176 132.271 447.096 132.623 447.096C132.954 447.096 133.258 447.176 133.535 447.336C133.813 447.496 134.034 447.717 134.199 448C134.37 448.283 134.455 448.603 134.455 448.96C134.455 449.312 134.37 449.629 134.199 449.912C134.034 450.195 133.813 450.419 133.535 450.584C133.258 450.744 132.954 450.824 132.623 450.824ZM143.077 450.824C142.725 450.824 142.405 450.744 142.117 450.584C141.829 450.419 141.599 450.195 141.429 449.912C141.258 449.629 141.173 449.312 141.173 448.96C141.173 448.603 141.258 448.283 141.429 448C141.599 447.717 141.829 447.496 142.117 447.336C142.405 447.176 142.725 447.096 143.077 447.096C143.407 447.096 143.711 447.176 143.989 447.336C144.266 447.496 144.487 447.717 144.653 448C144.823 448.283 144.909 448.603 144.909 448.96C144.909 449.312 144.823 449.629 144.653 449.912C144.487 450.195 144.266 450.419 143.989 450.584C143.711 450.744 143.407 450.824 143.077 450.824ZM153.53 450.824C153.178 450.824 152.858 450.744 152.57 450.584C152.282 450.419 152.052 450.195 151.882 449.912C151.711 449.629 151.626 449.312 151.626 448.96C151.626 448.603 151.711 448.283 151.882 448C152.052 447.717 152.282 447.496 152.57 447.336C152.858 447.176 153.178 447.096 153.53 447.096C153.86 447.096 154.164 447.176 154.442 447.336C154.719 447.496 154.94 447.717 155.106 448C155.276 448.283 155.362 448.603 155.362 448.96C155.362 449.312 155.276 449.629 155.106 449.912C154.94 450.195 154.719 450.419 154.442 450.584C154.164 450.744 153.86 450.824 153.53 450.824ZM163.983 450.824C163.631 450.824 163.311 450.744 163.023 450.584C162.735 450.419 162.505 450.195 162.335 449.912C162.164 449.629 162.079 449.312 162.079 448.96C162.079 448.603 162.164 448.283 162.335 448C162.505 447.717 162.735 447.496 163.023 447.336C163.311 447.176 163.631 447.096 163.983 447.096C164.313 447.096 164.617 447.176 164.895 447.336C165.172 447.496 165.393 447.717 165.559 448C165.729 448.283 165.815 448.603 165.815 448.96C165.815 449.312 165.729 449.629 165.559 449.912C165.393 450.195 165.172 450.419 164.895 450.584C164.617 450.744 164.313 450.824 163.983 450.824ZM174.436 450.824C174.084 450.824 173.764 450.744 173.476 450.584C173.188 450.419 172.959 450.195 172.788 449.912C172.617 449.629 172.532 449.312 172.532 448.96C172.532 448.603 172.617 448.283 172.788 448C172.959 447.717 173.188 447.496 173.476 447.336C173.764 447.176 174.084 447.096 174.436 447.096C174.767 447.096 175.071 447.176 175.348 447.336C175.625 447.496 175.847 447.717 176.012 448C176.183 448.283 176.268 448.603 176.268 448.96C176.268 449.312 176.183 449.629 176.012 449.912C175.847 450.195 175.625 450.419 175.348 450.584C175.071 450.744 174.767 450.824 174.436 450.824Z" fill="#64748B"/>
</g>
<path d="M70 456.333C69.5417 456.333 69.1493 456.17 68.8229 455.844C68.4965 455.517 68.3333 455.125 68.3333 454.667V446.333C68.3333 445.875 68.4965 445.483 68.8229 445.156C69.1493 444.83 69.5417 444.667 70 444.667H70.8333V443C70.8333 441.847 71.2396 440.865 72.0521 440.052C72.8646 439.24 73.8472 438.833 75 438.833C76.1528 438.833 77.1354 439.24 77.9479 440.052C78.7604 440.865 79.1667 441.847 79.1667 443V444.667H80C80.4583 444.667 80.8507 444.83 81.1771 445.156C81.5035 445.483 81.6667 445.875 81.6667 446.333V454.667C81.6667 455.125 81.5035 455.517 81.1771 455.844C80.8507 456.17 80.4583 456.333 80 456.333H70ZM70 454.667H80V446.333H70V454.667ZM75 452.167C75.4583 452.167 75.8507 452.003 76.1771 451.677C76.5035 451.351 76.6667 450.958 76.6667 450.5C76.6667 450.042 76.5035 449.649 76.1771 449.323C75.8507 448.997 75.4583 448.833 75 448.833C74.5417 448.833 74.1493 448.997 73.8229 449.323C73.4965 449.649 73.3333 450.042 73.3333 450.5C73.3333 450.958 73.4965 451.351 73.8229 451.677C74.1493 452.003 74.5417 452.167 75 452.167ZM72.5 444.667H77.5V443C77.5 442.306 77.257 441.715 76.7708 441.229C76.2847 440.743 75.6945 440.5 75 440.5C74.3056 440.5 73.7153 440.743 73.2292 441.229C72.7431 441.715 72.5 442.306 72.5 443V444.667ZM70 454.667V446.333V454.667Z" fill="#94A3B8"/>
<g filter="url(#filter5_d_6_77)">
<rect x="51" y="499" width="288" height="54.02" rx="24" fill="url(#paint2_linear_6_77)" shape-rendering="crispEdges"/>
<path d="M140.47 533V531.333H146.303V519.667H140.47V518H146.303C146.762 518 147.154 518.163 147.48 518.49C147.807 518.816 147.97 519.208 147.97 519.667V531.333C147.97 531.792 147.807 532.184 147.48 532.51C147.154 532.837 146.762 533 146.303 533H140.47ZM138.803 529.667L137.658 528.458L139.783 526.333H132.97V524.667H139.783L137.658 522.542L138.803 521.333L142.97 525.5L138.803 529.667Z" fill="white"/>
<path d="M161.372 532.692C160.623 532.692 159.925 532.554 159.278 532.278C158.631 532.002 158.077 531.615 157.614 531.118C157.151 530.621 156.809 530.043 156.588 529.384L158.4 528.592C158.693 529.283 159.111 529.821 159.654 530.206C160.197 530.591 160.809 530.784 161.492 530.784C161.876 530.784 162.209 530.723 162.49 530.602C162.771 530.481 162.991 530.313 163.148 530.098C163.305 529.883 163.384 529.631 163.384 529.34C163.384 528.985 163.28 528.694 163.072 528.466C162.864 528.238 162.549 528.059 162.128 527.928L159.84 527.192C158.917 526.899 158.219 526.466 157.746 525.894C157.273 525.322 157.036 524.644 157.036 523.86C157.036 523.175 157.205 522.571 157.542 522.05C157.879 521.529 158.349 521.121 158.952 520.828C159.555 520.535 160.245 520.388 161.024 520.388C161.739 520.388 162.395 520.513 162.994 520.762C163.593 521.011 164.107 521.357 164.538 521.8C164.969 522.243 165.289 522.765 165.5 523.368L163.708 524.164C163.476 523.572 163.125 523.113 162.654 522.786C162.183 522.459 161.641 522.296 161.028 522.296C160.665 522.296 160.345 522.356 160.066 522.476C159.787 522.596 159.572 522.767 159.42 522.99C159.268 523.213 159.192 523.471 159.192 523.764C159.192 524.095 159.299 524.387 159.512 524.64C159.725 524.893 160.048 525.088 160.48 525.224L162.668 525.916C163.623 526.217 164.338 526.641 164.814 527.188C165.29 527.735 165.528 528.407 165.528 529.204C165.528 529.884 165.351 530.487 164.998 531.012C164.645 531.537 164.157 531.949 163.536 532.246C162.915 532.543 162.193 532.692 161.372 532.692ZM171.424 532.692C170.528 532.692 169.743 532.489 169.07 532.084C168.397 531.679 167.873 531.131 167.5 530.44C167.127 529.749 166.94 528.98 166.94 528.132C166.94 527.26 167.131 526.485 167.514 525.806C167.897 525.127 168.414 524.592 169.066 524.2C169.718 523.808 170.453 523.612 171.272 523.612C171.947 523.612 172.545 523.723 173.066 523.944C173.587 524.165 174.029 524.473 174.39 524.866C174.751 525.259 175.027 525.711 175.216 526.22C175.405 526.729 175.5 527.276 175.5 527.86C175.5 528.015 175.493 528.171 175.478 528.328C175.463 528.485 175.437 528.625 175.4 528.748H168.68V527.148H174.208L173.212 527.892C173.316 527.401 173.295 526.964 173.15 526.58C173.005 526.196 172.769 525.892 172.442 525.668C172.115 525.444 171.725 525.332 171.272 525.332C170.827 525.332 170.435 525.443 170.098 525.664C169.761 525.885 169.504 526.206 169.328 526.626C169.152 527.046 169.083 527.553 169.12 528.148C169.075 528.687 169.146 529.159 169.334 529.566C169.522 529.973 169.799 530.289 170.166 530.514C170.533 530.739 170.96 530.852 171.448 530.852C171.925 530.852 172.331 530.751 172.666 530.548C173.001 530.345 173.265 530.076 173.46 529.74L175.156 530.56C174.985 530.976 174.718 531.345 174.354 531.666C173.99 531.987 173.559 532.239 173.062 532.42C172.565 532.601 172.019 532.692 171.424 532.692ZM181.28 532.692C180.413 532.692 179.638 532.493 178.954 532.094C178.27 531.695 177.729 531.151 177.33 530.462C176.931 529.773 176.732 528.997 176.732 528.136C176.732 527.275 176.929 526.502 177.324 525.818C177.719 525.134 178.26 524.595 178.948 524.202C179.636 523.809 180.413 523.612 181.28 523.612C181.901 523.612 182.479 523.72 183.012 523.936C183.545 524.152 184.005 524.451 184.392 524.832C184.779 525.213 185.059 525.661 185.232 526.176L183.4 526.988C183.235 526.545 182.963 526.192 182.586 525.928C182.209 525.664 181.773 525.532 181.28 525.532C180.827 525.532 180.421 525.643 180.064 525.866C179.707 526.089 179.425 526.398 179.22 526.794C179.015 527.19 178.912 527.643 178.912 528.152C178.912 528.659 179.015 529.11 179.22 529.506C179.425 529.902 179.707 530.212 180.064 530.436C180.421 530.66 180.827 530.772 181.28 530.772C181.781 530.772 182.218 530.64 182.59 530.376C182.962 530.112 183.232 529.756 183.4 529.308L185.232 530.14C185.067 530.628 184.791 531.065 184.404 531.452C184.017 531.839 183.557 532.142 183.024 532.362C182.491 532.582 181.909 532.692 181.28 532.692ZM189.924 532.692C189.247 532.692 188.661 532.543 188.166 532.244C187.671 531.945 187.293 531.529 187.03 530.994C186.767 530.459 186.636 529.837 186.636 529.128V523.804H188.736V528.948C188.736 529.311 188.809 529.629 188.956 529.904C189.103 530.179 189.31 530.392 189.578 530.544C189.846 530.696 190.151 530.772 190.492 530.772C190.841 530.772 191.149 530.695 191.414 530.542C191.679 530.389 191.886 530.172 192.034 529.892C192.182 529.612 192.256 529.284 192.256 528.908V523.804H194.356V532.5H192.376V530.788L192.54 531.092C192.337 531.623 192.005 532.022 191.542 532.29C191.079 532.558 190.54 532.692 189.924 532.692ZM196.3 532.5V523.804H198.28V525.728L198.12 525.448C198.315 524.795 198.629 524.341 199.064 524.086C199.499 523.831 200.017 523.704 200.62 523.704H201.14V525.564H200.388C199.793 525.564 199.313 525.746 198.948 526.11C198.583 526.474 198.4 526.988 198.4 527.652V532.5H196.3ZM206.416 532.692C205.52 532.692 204.735 532.489 204.062 532.084C203.389 531.679 202.865 531.131 202.492 530.44C202.119 529.749 201.932 528.98 201.932 528.132C201.932 527.26 202.123 526.485 202.506 525.806C202.889 525.127 203.406 524.592 204.058 524.2C204.71 523.808 205.445 523.612 206.264 523.612C206.939 523.612 207.537 523.723 208.058 523.944C208.579 524.165 209.021 524.473 209.382 524.866C209.743 525.259 210.019 525.711 210.208 526.22C210.397 526.729 210.492 527.276 210.492 527.86C210.492 528.015 210.485 528.171 210.47 528.328C210.455 528.485 210.429 528.625 210.392 528.748H203.672V527.148H209.2L208.204 527.892C208.308 527.401 208.287 526.964 208.142 526.58C207.997 526.196 207.761 525.892 207.434 525.668C207.107 525.444 206.717 525.332 206.264 525.332C205.819 525.332 205.427 525.443 205.09 525.664C204.753 525.885 204.496 526.206 204.32 526.626C204.144 527.046 204.075 527.553 204.112 528.148C204.067 528.687 204.138 529.159 204.326 529.566C204.514 529.973 204.791 530.289 205.158 530.514C205.525 530.739 205.952 530.852 206.44 530.852C206.917 530.852 207.323 530.751 207.658 530.548C207.993 530.345 208.257 530.076 208.452 529.74L210.148 530.56C209.977 530.976 209.71 531.345 209.346 531.666C208.982 531.987 208.551 532.239 208.054 532.42C207.557 532.601 207.011 532.692 206.416 532.692ZM215.1 532.5V520.58H217.28V530.58H222.38V532.5H215.1ZM227.868 532.692C227.017 532.692 226.243 532.495 225.546 532.102C224.849 531.709 224.293 531.169 223.88 530.484C223.467 529.799 223.26 529.02 223.26 528.148C223.26 527.271 223.466 526.492 223.878 525.812C224.29 525.132 224.844 524.595 225.54 524.202C226.236 523.809 227.012 523.612 227.868 523.612C228.724 523.612 229.498 523.808 230.19 524.2C230.882 524.592 231.433 525.128 231.844 525.808C232.255 526.488 232.46 527.268 232.46 528.148C232.46 529.023 232.253 529.803 231.838 530.488C231.423 531.173 230.87 531.712 230.178 532.104C229.486 532.496 228.716 532.692 227.868 532.692ZM227.868 530.772C228.34 530.772 228.756 530.66 229.116 530.436C229.476 530.212 229.76 529.901 229.968 529.504C230.176 529.107 230.28 528.655 230.28 528.148C230.28 527.641 230.176 527.193 229.968 526.802C229.76 526.411 229.476 526.102 229.116 525.874C228.756 525.646 228.34 525.532 227.868 525.532C227.396 525.532 226.978 525.646 226.614 525.874C226.25 526.102 225.963 526.411 225.754 526.802C225.545 527.193 225.44 527.641 225.44 528.148C225.44 528.655 225.545 529.107 225.754 529.504C225.963 529.901 226.25 530.212 226.614 530.436C226.978 530.66 227.396 530.772 227.868 530.772ZM238.276 536.02C237.625 536.02 237.022 535.913 236.466 535.7C235.91 535.487 235.433 535.191 235.036 534.812C234.639 534.433 234.348 533.988 234.164 533.476L236.108 532.74C236.239 533.145 236.495 533.473 236.876 533.724C237.257 533.975 237.721 534.1 238.268 534.1C238.695 534.1 239.071 534.021 239.396 533.862C239.721 533.703 239.975 533.471 240.158 533.164C240.341 532.857 240.432 532.492 240.432 532.068V530.092L240.828 530.568C240.529 531.091 240.131 531.484 239.632 531.748C239.133 532.012 238.561 532.144 237.916 532.144C237.108 532.144 236.384 531.958 235.744 531.586C235.104 531.214 234.602 530.704 234.238 530.056C233.874 529.408 233.692 528.676 233.692 527.86C233.692 527.041 233.874 526.313 234.238 525.674C234.602 525.035 235.099 524.532 235.73 524.164C236.361 523.796 237.077 523.612 237.88 523.612C238.525 523.612 239.095 523.746 239.59 524.014C240.085 524.282 240.497 524.676 240.828 525.196L240.552 525.712V523.804H242.532V532.068C242.532 532.828 242.349 533.507 241.982 534.104C241.615 534.701 241.113 535.17 240.476 535.51C239.839 535.85 239.105 536.02 238.276 536.02ZM238.184 530.212C238.627 530.212 239.016 530.113 239.352 529.914C239.688 529.715 239.952 529.441 240.144 529.09C240.336 528.739 240.432 528.337 240.432 527.884C240.432 527.431 240.334 527.027 240.138 526.672C239.942 526.317 239.676 526.039 239.34 525.836C239.004 525.633 238.619 525.532 238.184 525.532C237.739 525.532 237.341 525.633 236.99 525.836C236.639 526.039 236.365 526.317 236.168 526.67C235.971 527.023 235.872 527.428 235.872 527.884C235.872 528.329 235.971 528.727 236.168 529.078C236.365 529.429 236.639 529.705 236.988 529.908C237.337 530.111 237.736 530.212 238.184 530.212ZM244.476 532.5V523.804H246.576V532.5H244.476ZM244.476 522.82V520.58H246.576V522.82H244.476ZM248.508 532.5V523.804H250.488V525.516L250.324 525.212C250.529 524.681 250.863 524.282 251.324 524.014C251.785 523.746 252.324 523.612 252.94 523.612C253.588 523.612 254.159 523.751 254.652 524.028C255.145 524.305 255.531 524.691 255.81 525.184C256.089 525.677 256.228 526.249 256.228 526.9V532.5H254.128V527.396C254.128 527.009 254.055 526.679 253.908 526.404C253.761 526.129 253.556 525.915 253.291 525.762C253.026 525.609 252.721 525.532 252.377 525.532C252.032 525.532 251.725 525.609 251.456 525.762C251.187 525.915 250.978 526.13 250.83 526.406C250.682 526.682 250.608 527.012 250.608 527.396V532.5H248.508Z" fill="white"/>
</g>
<rect x="139" y="665.02" width="48" height="48" rx="24" fill="#1E2532"/>
<rect x="139.5" y="665.52" width="47" height="47" rx="23.5" stroke="#334155" stroke-opacity="0.5"/>
<g clip-path="url(#clip4_6_77)">
<path d="M171.8 689.228C171.8 688.578 171.742 687.953 171.633 687.353H163V690.903H167.933C167.717 692.045 167.067 693.012 166.092 693.662V695.97H169.067C170.8 694.37 171.8 692.02 171.8 689.228Z" fill="#4285F4"/>
<path d="M163 698.187C165.475 698.187 167.55 697.37 169.067 695.97L166.092 693.662C165.275 694.212 164.233 694.545 163 694.545C160.617 694.545 158.592 692.937 157.867 690.77H154.817V693.137C156.325 696.128 159.417 698.187 163 698.187Z" fill="#34A853"/>
<path d="M157.867 690.762C157.683 690.212 157.575 689.628 157.575 689.02C157.575 688.412 157.683 687.828 157.867 687.278V684.912H154.817C154.192 686.145 153.833 687.537 153.833 689.02C153.833 690.503 154.192 691.895 154.817 693.128L157.192 691.245L157.867 690.762Z" fill="#FBBC05"/>
<path d="M163 683.503C164.35 683.503 165.55 683.97 166.508 684.87L169.133 682.245C167.542 680.762 165.475 679.853 163 679.853C159.417 679.853 156.325 681.912 154.817 684.912L157.867 687.278C158.592 685.112 160.617 683.503 163 683.503Z" fill="#EA4335"/>
</g>
<rect x="203" y="665.02" width="48" height="48" rx="24" fill="#1E2532"/>
<rect x="203.5" y="665.52" width="47" height="47" rx="23.5" stroke="#334155" stroke-opacity="0.5"/>
<path d="M231.208 695.92C230.392 696.712 229.5 696.653 228.642 696.253C227.733 695.837 226.908 695.853 225.942 696.253C224.742 696.77 224.108 696.62 223.392 695.92C219.325 691.728 219.925 685.345 224.542 685.112C225.667 685.17 226.45 685.728 227.108 685.728C228.092 685.728 229.15 684.887 230.175 684.995C231.425 685.087 232.408 685.612 232.983 686.52C230.55 687.895 230.942 691.312 233.417 692.37C233.1 693.328 232.608 694.578 231.208 695.92ZM227.025 685.062C226.9 683.203 228.408 681.67 230.142 681.52C230.383 683.67 228.192 685.27 227.025 685.062Z" fill="white"/>
<mask id="path-38-inside-1_6_77" fill="white">
<path d="M51 616.52H110.975V617.52H51V616.52Z"/>
</mask>
<path d="M51 616.52V617.52H110.975V616.52V615.52H51V616.52Z" fill="#334155" mask="url(#path-38-inside-1_6_77)"/>
<path d="M132.243 622.164C131.583 622.164 130.97 622.049 130.403 621.818C129.836 621.587 129.341 621.262 128.918 620.844C128.495 620.426 128.164 619.937 127.926 619.376C127.688 618.815 127.569 618.204 127.569 617.544C127.569 616.884 127.687 616.274 127.922 615.713C128.157 615.152 128.486 614.664 128.909 614.249C129.332 613.834 129.827 613.511 130.394 613.281C130.961 613.051 131.577 612.936 132.243 612.936C132.909 612.936 133.526 613.052 134.093 613.283C134.66 613.514 135.155 613.837 135.578 614.252C136.001 614.667 136.33 615.154 136.565 615.714C136.8 616.274 136.917 616.884 136.917 617.544C136.917 618.204 136.798 618.815 136.56 619.376C136.322 619.937 135.992 620.426 135.569 620.844C135.146 621.262 134.651 621.587 134.084 621.818C133.517 622.049 132.903 622.164 132.243 622.164ZM132.243 620.679C132.679 620.679 133.081 620.601 133.449 620.445C133.817 620.289 134.139 620.071 134.415 619.79C134.691 619.509 134.905 619.177 135.056 618.795C135.207 618.413 135.282 617.996 135.282 617.544C135.282 617.094 135.207 616.68 135.056 616.301C134.905 615.922 134.691 615.59 134.415 615.306C134.139 615.022 133.817 614.804 133.449 614.651C133.081 614.498 132.679 614.421 132.243 614.421C131.807 614.421 131.405 614.498 131.037 614.651C130.669 614.804 130.347 615.022 130.071 615.306C129.795 615.59 129.582 615.922 129.431 616.301C129.28 616.68 129.204 617.094 129.204 617.544C129.204 617.996 129.28 618.413 129.431 618.795C129.582 619.177 129.795 619.509 130.071 619.79C130.347 620.071 130.67 620.289 131.039 620.445C131.408 620.601 131.809 620.679 132.243 620.679ZM139.569 622.02V613.08H142.902C143.51 613.08 144.048 613.19 144.515 613.409C144.982 613.628 145.348 613.948 145.613 614.369C145.878 614.79 146.01 615.302 146.01 615.906C146.01 616.52 145.864 617.044 145.571 617.477C145.278 617.91 144.883 618.23 144.387 618.438L146.439 622.02H144.591L142.389 618.096L143.451 618.72H141.204V622.02H139.569ZM141.204 617.28H142.923C143.217 617.28 143.472 617.223 143.688 617.108C143.904 616.993 144.073 616.832 144.194 616.625C144.315 616.418 144.375 616.177 144.375 615.903C144.375 615.623 144.315 615.38 144.194 615.174C144.073 614.968 143.904 614.808 143.688 614.693C143.472 614.578 143.217 614.52 142.923 614.52H141.204V617.28ZM156.243 622.164C155.605 622.164 155.015 622.049 154.472 621.818C153.929 621.587 153.456 621.264 153.053 620.849C152.65 620.434 152.336 619.946 152.111 619.386C151.886 618.826 151.773 618.213 151.773 617.547C151.773 616.881 151.884 616.267 152.106 615.704C152.328 615.141 152.641 614.653 153.044 614.24C153.447 613.827 153.92 613.506 154.463 613.278C155.006 613.05 155.599 612.936 156.243 612.936C156.881 612.936 157.454 613.044 157.962 613.26C158.47 613.476 158.901 613.762 159.254 614.117C159.607 614.472 159.858 614.861 160.008 615.285L158.55 615.978C158.38 615.524 158.095 615.151 157.695 614.859C157.295 614.567 156.811 614.421 156.243 614.421C155.683 614.421 155.189 614.553 154.761 614.817C154.333 615.081 154.001 615.446 153.764 615.912C153.527 616.378 153.408 616.923 153.408 617.547C153.408 618.169 153.527 618.715 153.764 619.185C154.001 619.655 154.333 620.022 154.761 620.285C155.189 620.548 155.683 620.679 156.243 620.679C156.811 620.679 157.295 620.534 157.695 620.243C158.095 619.952 158.38 619.579 158.55 619.125L160.008 619.818C159.858 620.24 159.607 620.629 159.254 620.984C158.901 621.339 158.47 621.624 157.962 621.84C157.454 622.056 156.881 622.164 156.243 622.164ZM166.935 622.164C166.275 622.164 165.662 622.049 165.095 621.818C164.528 621.587 164.033 621.262 163.61 620.844C163.187 620.426 162.856 619.937 162.618 619.376C162.38 618.815 162.261 618.204 162.261 617.544C162.261 616.884 162.379 616.274 162.614 615.713C162.849 615.152 163.178 614.664 163.601 614.249C164.024 613.834 164.519 613.511 165.086 613.281C165.653 613.051 166.269 612.936 166.935 612.936C167.601 612.936 168.218 613.052 168.785 613.283C169.352 613.514 169.847 613.837 170.27 614.252C170.693 614.667 171.022 615.154 171.257 615.714C171.492 616.274 171.609 616.884 171.609 617.544C171.609 618.204 171.49 618.815 171.252 619.376C171.014 619.937 170.684 620.426 170.261 620.844C169.838 621.262 169.343 621.587 168.776 621.818C168.209 622.049 167.595 622.164 166.935 622.164ZM166.935 620.679C167.371 620.679 167.773 620.601 168.141 620.445C168.509 620.289 168.831 620.071 169.107 619.79C169.383 619.509 169.597 619.177 169.748 618.795C169.899 618.413 169.974 617.996 169.974 617.544C169.974 617.094 169.899 616.68 169.748 616.301C169.597 615.922 169.383 615.59 169.107 615.306C168.831 615.022 168.509 614.804 168.141 614.651C167.773 614.498 167.371 614.421 166.935 614.421C166.499 614.421 166.097 614.498 165.729 614.651C165.361 614.804 165.039 615.022 164.763 615.306C164.487 615.59 164.274 615.922 164.123 616.301C163.972 616.68 163.896 617.094 163.896 617.544C163.896 617.996 163.972 618.413 164.123 618.795C164.274 619.177 164.487 619.509 164.763 619.79C165.039 620.071 165.362 620.289 165.731 620.445C166.1 620.601 166.501 620.679 166.935 620.679ZM174.261 622.02V613.08H175.542L180.453 619.704L179.796 619.839V613.08H181.431V622.02H180.141L175.293 615.348L175.896 615.213V622.02H174.261ZM185.946 622.02V614.52H183.627V613.08H189.867V614.52H187.581V622.02H185.946ZM192.057 622.02V613.08H193.692V622.02H192.057ZM196.605 622.02V613.08H197.886L202.797 619.704L202.14 619.839V613.08H203.775V622.02H202.485L197.637 615.348L198.24 615.213V622.02H196.605ZM210.147 622.164C209.461 622.164 208.851 622.02 208.317 621.732C207.783 621.444 207.365 621.049 207.062 620.547C206.759 620.045 206.607 619.474 206.607 618.834V613.08H208.242V618.744C208.242 619.116 208.324 619.449 208.488 619.743C208.652 620.037 208.878 620.267 209.165 620.432C209.452 620.597 209.779 620.679 210.147 620.679C210.521 620.679 210.85 620.597 211.134 620.432C211.418 620.267 211.642 620.037 211.806 619.743C211.97 619.449 212.052 619.116 212.052 618.744V613.08H213.687V618.834C213.687 619.474 213.536 620.045 213.233 620.547C212.93 621.049 212.512 621.444 211.979 621.732C211.446 622.02 210.835 622.164 210.147 622.164ZM216.513 622.02V613.08H222.462V614.52H218.148V616.818H222.222V618.258H218.148V620.58H222.462V622.02H216.513ZM229.86 622.02L227.463 613.08H229.218L231.096 620.697H230.64L232.605 613.08H234.3L236.262 620.697H235.803L237.684 613.08H239.439L237.042 622.02H235.167L233.19 614.61H233.712L231.735 622.02H229.86ZM241.629 622.02V613.08H243.264V622.02H241.629ZM247.77 622.02V614.52H245.451V613.08H251.691V614.52H249.405V622.02H247.77ZM253.881 622.02V613.08H255.516V616.983H259.326V613.08H260.961V622.02H259.326V618.423H255.516V622.02H253.881Z" fill="#64748B"/>
<mask id="path-41-inside-2_6_77" fill="white">
<path d="M279.025 616.52H339V617.52H279.025V616.52Z"/>
</mask>
<path d="M279.025 616.52V617.52H339V616.52V615.52H279.025V616.52Z" fill="#334155" mask="url(#path-41-inside-2_6_77)"/>
</g>
<g opacity="0.05" filter="url(#filter6_f_6_77)">
<rect x="-128" y="-128" width="384" height="384" rx="192" fill="white"/>
</g>
<g opacity="0.1" filter="url(#filter7_f_6_77)">
<rect x="198" y="442" width="320" height="320" rx="160" fill="#C084FC"/>
</g>
<g opacity="0.1" filter="url(#filter8_f_6_77)">
<rect x="3" y="628" width="384" height="384" rx="192" fill="#60A5FA"/>
</g>
</g>
<defs>
<filter id="filter0_dd_6_77" x="143" y="62" width="104" height="104" filterUnits="userSpaceOnUse" color-interpolation-filters="sRGB">
<feFlood flood-opacity="0" result="BackgroundImageFix"/>
<feColorMatrix in="SourceAlpha" type="matrix" values="0 0 0 0 0 0 0 0 0 0 0 0 0 0 0 0 0 0 127 0" result="hardAlpha"/>
<feMorphology radius="4" operator="erode" in="SourceAlpha" result="effect1_dropShadow_6_77"/>
<feOffset dy="4"/>
<feGaussianBlur stdDeviation="3"/>
<feComposite in2="hardAlpha" operator="out"/>
<feColorMatrix type="matrix" values="0 0 0 0 0.168627 0 0 0 0 0.423529 0 0 0 0 0.933333 0 0 0 0.3 0"/>
<feBlend mode="normal" in2="BackgroundImageFix" result="effect1_dropShadow_6_77"/>
<feColorMatrix in="SourceAlpha" type="matrix" values="0 0 0 0 0 0 0 0 0 0 0 0 0 0 0 0 0 0 127 0" result="hardAlpha"/>
<feMorphology radius="3" operator="erode" in="SourceAlpha" result="effect2_dropShadow_6_77"/>
<feOffset dy="10"/>
<feGaussianBlur stdDeviation="7.5"/>
<feComposite in2="hardAlpha" operator="out"/>
<feColorMatrix type="matrix" values="0 0 0 0 0.168627 0 0 0 0 0.423529 0 0 0 0 0.933333 0 0 0 0.3 0"/>
<feBlend mode="normal" in2="effect1_dropShadow_6_77" result="effect2_dropShadow_6_77"/>
<feBlend mode="normal" in="SourceGraphic" in2="effect2_dropShadow_6_77" result="shape"/>
</filter>
<filter id="filter1_d_6_77" x="93" y="27" width="204" height="204" filterUnits="userSpaceOnUse" color-interpolation-filters="sRGB">
<feFlood flood-opacity="0" result="BackgroundImageFix"/>
<feColorMatrix in="SourceAlpha" type="matrix" values="0 0 0 0 0 0 0 0 0 0 0 0 0 0 0 0 0 0 127 0" result="hardAlpha"/>
<feMorphology radius="12" operator="erode" in="SourceAlpha" result="effect1_dropShadow_6_77"/>
<feOffset dy="25"/>
<feGaussianBlur stdDeviation="25"/>
<feComposite in2="hardAlpha" operator="out"/>
<feColorMatrix type="matrix" values="0 0 0 0 0.121569 0 0 0 0 0.239216 0 0 0 0 0.537255 0 0 0 0.5 0"/>
<feBlend mode="normal" in2="BackgroundImageFix" result="effect1_dropShadow_6_77"/>
<feBlend mode="normal" in="SourceGraphic" in2="effect1_dropShadow_6_77" result="shape"/>
</filter>
<filter id="filter2_dd_6_77" x="167.799" y="91.7635" width="64" height="64" filterUnits="userSpaceOnUse" color-interpolation-filters="sRGB">
<feFlood flood-opacity="0" result="BackgroundImageFix"/>
<feColorMatrix in="SourceAlpha" type="matrix" values="0 0 0 0 0 0 0 0 0 0 0 0 0 0 0 0 0 0 127 0" result="hardAlpha"/>
<feMorphology radius="4" operator="erode" in="SourceAlpha" result="effect1_dropShadow_6_77"/>
<feOffset dy="4"/>
<feGaussianBlur stdDeviation="3"/>
<feComposite in2="hardAlpha" operator="out"/>
<feColorMatrix type="matrix" values="0 0 0 0 0 0 0 0 0 0 0 0 0 0 0 0 0 0 0.1 0"/>
<feBlend mode="normal" in2="BackgroundImageFix" result="effect1_dropShadow_6_77"/>
<feColorMatrix in="SourceAlpha" type="matrix" values="0 0 0 0 0 0 0 0 0 0 0 0 0 0 0 0 0 0 127 0" result="hardAlpha"/>
<feMorphology radius="3" operator="erode" in="SourceAlpha" result="effect2_dropShadow_6_77"/>
<feOffset dy="10"/>
<feGaussianBlur stdDeviation="7.5"/>
<feComposite in2="hardAlpha" operator="out"/>
<feColorMatrix type="matrix" values="0 0 0 0 0 0 0 0 0 0 0 0 0 0 0 0 0 0 0.1 0"/>
<feBlend mode="normal" in2="effect1_dropShadow_6_77" result="effect2_dropShadow_6_77"/>
<feBlend mode="normal" in="SourceGraphic" in2="effect2_dropShadow_6_77" result="shape"/>
</filter>
<clipPath id="bgblur_1_6_77_clip_path" transform="translate(-14 -262)"><rect x="26" y="274" width="338" height="472" rx="20"/>
</clipPath><filter id="filter4_d_6_77" x="-12" y="261" width="414" height="548.02" filterUnits="userSpaceOnUse" color-interpolation-filters="sRGB">
<feFlood flood-opacity="0" result="BackgroundImageFix"/>
<feColorMatrix in="SourceAlpha" type="matrix" values="0 0 0 0 0 0 0 0 0 0 0 0 0 0 0 0 0 0 127 0" result="hardAlpha"/>
<feMorphology radius="12" operator="erode" in="SourceAlpha" result="effect1_dropShadow_6_77"/>
<feOffset dy="25"/>
<feGaussianBlur stdDeviation="25"/>
<feComposite in2="hardAlpha" operator="out"/>
<feColorMatrix type="matrix" values="0 0 0 0 0 0 0 0 0 0 0 0 0 0 0 0 0 0 0.25 0"/>
<feBlend mode="normal" in2="BackgroundImageFix" result="effect1_dropShadow_6_77"/>
<feBlend mode="normal" in="SourceGraphic" in2="effect1_dropShadow_6_77" result="shape"/>
</filter>
<filter id="filter5_d_6_77" x="36" y="484" width="318" height="84.02" filterUnits="userSpaceOnUse" color-interpolation-filters="sRGB">
<feFlood flood-opacity="0" result="BackgroundImageFix"/>
<feColorMatrix in="SourceAlpha" type="matrix" values="0 0 0 0 0 0 0 0 0 0 0 0 0 0 0 0 0 0 127 0" result="hardAlpha"/>
<feOffset/>
<feGaussianBlur stdDeviation="7.5"/>
<feComposite in2="hardAlpha" operator="out"/>
<feColorMatrix type="matrix" values="0 0 0 0 0.168627 0 0 0 0 0.423529 0 0 0 0 0.933333 0 0 0 0.5 0"/>
<feBlend mode="normal" in2="BackgroundImageFix" result="effect1_dropShadow_6_77"/>
<feBlend mode="normal" in="SourceGraphic" in2="effect1_dropShadow_6_77" result="shape"/>
</filter>
<filter id="filter6_f_6_77" x="-192" y="-192" width="512" height="512" filterUnits="userSpaceOnUse" color-interpolation-filters="sRGB">
<feFlood flood-opacity="0" result="BackgroundImageFix"/>
<feBlend mode="normal" in="SourceGraphic" in2="BackgroundImageFix" result="shape"/>
<feGaussianBlur stdDeviation="32" result="effect1_foregroundBlur_6_77"/>
</filter>
<filter id="filter7_f_6_77" x="134" y="378" width="448" height="448" filterUnits="userSpaceOnUse" color-interpolation-filters="sRGB">
<feFlood flood-opacity="0" result="BackgroundImageFix"/>
<feBlend mode="normal" in="SourceGraphic" in2="BackgroundImageFix" result="shape"/>
<feGaussianBlur stdDeviation="32" result="effect1_foregroundBlur_6_77"/>
</filter>
<filter id="filter8_f_6_77" x="-61" y="564" width="512" height="512" filterUnits="userSpaceOnUse" color-interpolation-filters="sRGB">
<feFlood flood-opacity="0" result="BackgroundImageFix"/>
<feBlend mode="normal" in="SourceGraphic" in2="BackgroundImageFix" result="shape"/>
<feGaussianBlur stdDeviation="32" result="effect1_foregroundBlur_6_77"/>
</filter>
<linearGradient id="paint0_linear_6_77" x1="-131.459" y1="297.974" x2="521.459" y2="586.026" gradientUnits="userSpaceOnUse">
<stop stop-color="#1F3D89"/>
<stop offset="1" stop-color="#5B21B6"/>
</linearGradient>
<linearGradient id="paint1_linear_6_77" x1="155" y1="64" x2="235" y2="144" gradientUnits="userSpaceOnUse">
<stop stop-color="#2B6CEE"/>
<stop offset="1" stop-color="#4F46E5"/>
</linearGradient>
<linearGradient id="paint2_linear_6_77" x1="51" y1="526.01" x2="339" y2="526.01" gradientUnits="userSpaceOnUse">
<stop stop-color="#2B6CEE"/>
<stop offset="1" stop-color="#4F46E5"/>
</linearGradient>
<clipPath id="clip0_6_77">
<rect width="390" height="884" fill="white"/>
</clipPath>
<clipPath id="clip2_6_77">
<rect width="226" height="22" fill="white" transform="translate(96 339)"/>
</clipPath>
<clipPath id="clip3_6_77">
<rect width="226" height="22" fill="white" transform="translate(96 437)"/>
</clipPath>
<clipPath id="clip4_6_77">
<rect width="20" height="20" fill="white" transform="translate(153 679.02)"/>
</clipPath>
</defs>
</svg>
