<svg width="390" height="884" viewBox="0 0 390 884" fill="none" xmlns="http://www.w3.org/2000/svg">
<rect width="390" height="884" fill="#F6F6F8"/>
<g clip-path="url(#clip0_1_2)">
<rect width="390" height="884" fill="url(#paint0_linear_1_2)"/>
<g opacity="0.05" filter="url(#filter0_f_1_2)">
<rect x="-128" y="-128" width="384" height="384" rx="192" fill="white"/>
</g>
<g opacity="0.1" filter="url(#filter1_f_1_2)">
<rect x="198" y="442" width="320" height="320" rx="160" fill="#C084FC"/>
</g>
<g opacity="0.1" filter="url(#filter2_f_1_2)">
<rect x="3" y="628" width="384" height="384" rx="192" fill="#60A5FA"/>
</g>
<rect x="131" y="273.5" width="128" height="128" rx="64" fill="white"/>
<g filter="url(#filter3_d_1_2)">
<rect x="131" y="273.5" width="128" height="128" rx="64" fill="white" fill-opacity="0.01" shape-rendering="crispEdges"/>
</g>
<path d="M195 363.736C188.861 362.212 183.792 358.738 179.795 353.315C175.798 347.893 173.799 341.871 173.799 335.25V319.171L195 311.264L216.201 319.171V335.25C216.201 341.871 214.203 347.893 210.205 353.315C206.208 358.738 201.14 362.212 195 363.736Z" fill="#1F3D89"/>
<rect x="180.799" y="328.264" width="38" height="38" rx="19" fill="#5B21B6"/>
<rect x="180.799" y="328.264" width="38" height="38" rx="19" stroke="white" stroke-width="2"/>
<g filter="url(#filter4_dd_1_2)">
<rect x="179.799" y="327.264" width="40" height="40" rx="20" fill="white" fill-opacity="0.01" shape-rendering="crispEdges"/>
</g>
<path d="M196.986 354.764C195.681 354.764 194.573 354.309 193.663 353.399C192.754 352.489 192.299 351.382 192.299 350.076C192.299 349.451 192.417 348.854 192.653 348.284C192.889 347.715 193.229 347.208 193.674 346.764L199.299 341.139C199.743 340.694 200.25 340.354 200.82 340.118C201.389 339.882 201.986 339.764 202.611 339.764C203.917 339.764 205.025 340.218 205.934 341.128C206.844 342.038 207.299 343.145 207.299 344.451C207.299 345.076 207.181 345.673 206.945 346.243C206.709 346.812 206.368 347.319 205.924 347.764L200.299 353.389C199.854 353.833 199.347 354.173 198.778 354.409C198.209 354.645 197.611 354.764 196.986 354.764ZM202.528 348.805L204.757 346.597C205.035 346.319 205.25 345.993 205.403 345.618C205.556 345.243 205.632 344.854 205.632 344.451C205.632 343.618 205.337 342.906 204.747 342.316C204.156 341.725 203.445 341.43 202.611 341.43C202.209 341.43 201.82 341.507 201.445 341.659C201.07 341.812 200.743 342.027 200.466 342.305L198.257 344.534L202.528 348.805ZM196.986 353.097C197.389 353.097 197.778 353.02 198.153 352.868C198.528 352.715 198.854 352.5 199.132 352.222L201.341 349.993L197.07 345.722L194.841 347.93C194.563 348.208 194.347 348.534 194.195 348.909C194.042 349.284 193.966 349.673 193.966 350.076C193.966 350.909 194.261 351.621 194.851 352.211C195.441 352.802 196.153 353.097 196.986 353.097Z" fill="white"/>
<g filter="url(#filter5_d_1_2)">
<path d="M97.2491 434.5V408.309H107.977C109.945 408.309 111.642 408.662 113.067 409.368C114.492 410.074 115.591 411.079 116.363 412.382C117.135 413.686 117.522 415.228 117.522 417.009C117.522 418.808 117.129 420.341 116.343 421.608C115.558 422.874 114.437 423.838 112.982 424.498C111.527 425.159 109.798 425.489 107.795 425.489H100.956V420.581H106.661C107.634 420.581 108.448 420.452 109.104 420.195C109.759 419.938 110.253 419.546 110.587 419.02C110.92 418.494 111.087 417.824 111.087 417.009C111.087 416.189 110.92 415.508 110.587 414.968C110.253 414.427 109.758 414.021 109.102 413.749C108.445 413.478 107.629 413.342 106.653 413.342H103.448V434.5H97.2491ZM111.628 434.5L105.246 422.531H111.894L118.434 434.5H111.628ZM118.725 434.5L126.263 422.022L126.259 426.799L119.089 414.848H125.599L127.107 417.66C127.642 418.68 128.134 419.716 128.584 420.767C129.033 421.819 129.482 422.836 129.93 423.82H127.783C128.26 422.845 128.727 421.83 129.183 420.774C129.639 419.718 130.149 418.68 130.714 417.66L132.301 414.848H138.688L131.349 426.819V422.076L138.951 434.5H132.485L130.591 431.09C130.032 430.067 129.518 429.024 129.049 427.962C128.58 426.899 128.11 425.881 127.638 424.905H129.789C129.344 425.881 128.899 426.899 128.453 427.962C128.007 429.024 127.513 430.067 126.969 431.09L125.106 434.5H118.725ZM152.652 434.852C150.159 434.852 147.97 434.309 146.083 433.223C144.196 432.138 142.725 430.593 141.669 428.587C140.613 426.582 140.086 424.203 140.086 421.449C140.086 418.591 140.642 416.157 141.756 414.148C142.869 412.138 144.369 410.604 146.255 409.545C148.141 408.486 150.247 407.957 152.574 407.957C154.082 407.957 155.485 408.173 156.784 408.606C158.084 409.038 159.239 409.653 160.251 410.45C161.262 411.248 162.081 412.189 162.708 413.273C163.335 414.357 163.73 415.55 163.893 416.852H157.616C157.471 416.311 157.254 415.826 156.964 415.399C156.675 414.971 156.321 414.609 155.901 414.311C155.482 414.013 155.004 413.787 154.466 413.633C153.929 413.479 153.335 413.402 152.686 413.402C151.418 413.402 150.313 413.713 149.37 414.335C148.428 414.957 147.702 415.862 147.19 417.051C146.679 418.24 146.424 419.68 146.424 421.368C146.424 423.07 146.673 424.518 147.172 425.715C147.672 426.912 148.388 427.826 149.323 428.458C150.257 429.09 151.385 429.407 152.705 429.407C153.879 429.407 154.875 429.211 155.692 428.82C156.51 428.429 157.13 427.875 157.552 427.157C157.974 426.439 158.185 425.593 158.185 424.62L159.361 424.773H152.95V420.225H164.18V423.665C164.18 426.002 163.686 428.005 162.698 429.675C161.71 431.344 160.348 432.624 158.612 433.515C156.876 434.406 154.889 434.852 152.652 434.852ZM173.662 434.746C172.293 434.746 171.097 434.44 170.072 433.829C169.048 433.217 168.256 432.356 167.694 431.245C167.133 430.135 166.853 428.838 166.853 427.355V414.848H172.983V426.169C172.983 427.271 173.265 428.137 173.831 428.765C174.396 429.393 175.182 429.707 176.188 429.707C176.858 429.707 177.443 429.563 177.942 429.273C178.441 428.983 178.832 428.565 179.114 428.019C179.396 427.472 179.537 426.821 179.537 426.064V414.848H185.671V434.5H179.901L179.794 429.536H180.055C179.571 431.109 178.813 432.37 177.783 433.321C176.753 434.271 175.379 434.746 173.662 434.746ZM194.311 434.85C193.059 434.85 191.945 434.636 190.967 434.207C189.989 433.778 189.223 433.135 188.67 432.277C188.117 431.42 187.84 430.342 187.84 429.044C187.84 427.954 188.032 427.036 188.415 426.288C188.798 425.541 189.328 424.933 190.005 424.467C190.683 424 191.461 423.643 192.341 423.394C193.222 423.146 194.159 422.981 195.153 422.9C196.271 422.801 197.171 422.697 197.851 422.588C198.532 422.48 199.028 422.314 199.341 422.093C199.654 421.872 199.81 421.561 199.81 421.16V421.082C199.81 420.626 199.705 420.242 199.494 419.927C199.282 419.613 198.979 419.372 198.583 419.205C198.188 419.039 197.707 418.955 197.14 418.955C196.577 418.955 196.077 419.039 195.64 419.208C195.204 419.376 194.844 419.611 194.562 419.912C194.28 420.214 194.082 420.571 193.969 420.983L188.403 420.262C188.666 419.138 189.177 418.152 189.934 417.304C190.692 416.457 191.682 415.795 192.905 415.317C194.127 414.84 195.559 414.602 197.199 414.602C198.416 414.602 199.555 414.745 200.616 415.033C201.676 415.32 202.605 415.743 203.402 416.3C204.199 416.858 204.822 417.544 205.269 418.357C205.717 419.17 205.94 420.103 205.94 421.157V434.5H200.17V431.748H200.013C199.657 432.419 199.208 432.984 198.667 433.444C198.126 433.903 197.494 434.253 196.771 434.492C196.048 434.731 195.228 434.85 194.311 434.85ZM196.178 430.786C196.869 430.786 197.492 430.647 198.047 430.368C198.601 430.089 199.043 429.703 199.371 429.211C199.7 428.719 199.864 428.151 199.864 427.505V425.622C199.69 425.712 199.472 425.799 199.207 425.882C198.943 425.965 198.652 426.04 198.336 426.107C198.02 426.174 197.704 426.233 197.387 426.284C197.07 426.335 196.769 426.383 196.482 426.427C195.88 426.512 195.369 426.655 194.947 426.857C194.526 427.058 194.205 427.317 193.984 427.632C193.764 427.946 193.654 428.323 193.654 428.761C193.654 429.2 193.763 429.57 193.981 429.872C194.199 430.173 194.497 430.401 194.875 430.555C195.252 430.709 195.687 430.786 196.178 430.786ZM209.104 434.5V414.848H215.048V418.432H215.259C215.613 417.133 216.198 416.169 217.014 415.538C217.83 414.908 218.775 414.593 219.849 414.593C220.137 414.593 220.435 414.612 220.744 414.651C221.053 414.689 221.337 414.745 221.595 414.82V420.152C221.306 420.048 220.922 419.971 220.445 419.92C219.967 419.868 219.54 419.843 219.163 419.843C218.412 419.843 217.738 420.008 217.141 420.338C216.544 420.668 216.077 421.127 215.739 421.715C215.402 422.302 215.234 422.988 215.234 423.772V434.5H209.104ZM229.43 434.788C227.979 434.788 226.656 434.41 225.46 433.654C224.264 432.897 223.314 431.771 222.611 430.274C221.908 428.778 221.557 426.919 221.557 424.7C221.557 422.394 221.922 420.496 222.654 419.005C223.385 417.514 224.346 416.407 225.538 415.685C226.729 414.963 228.01 414.602 229.381 414.602C230.427 414.602 231.318 414.779 232.055 415.134C232.791 415.489 233.397 415.945 233.873 416.5C234.349 417.055 234.705 417.629 234.943 418.221H235.082V408.309H241.212V434.5H235.161V431.312H234.943C234.687 431.907 234.318 432.468 233.835 432.995C233.353 433.522 232.749 433.953 232.024 434.287C231.299 434.621 230.435 434.788 229.43 434.788ZM231.521 429.994C232.298 429.994 232.963 429.774 233.516 429.334C234.069 428.895 234.492 428.278 234.785 427.486C235.078 426.693 235.224 425.762 235.224 424.691C235.224 423.603 235.078 422.664 234.787 421.874C234.496 421.084 234.073 420.474 233.52 420.042C232.967 419.611 232.301 419.395 231.521 419.395C230.733 419.395 230.067 419.615 229.521 420.055C228.975 420.495 228.562 421.111 228.281 421.904C228 422.697 227.86 423.626 227.86 424.691C227.86 425.751 228.001 426.68 228.283 427.478C228.566 428.277 228.98 428.896 229.527 429.335C230.074 429.775 230.739 429.994 231.521 429.994ZM244.376 434.5V414.848H250.506V434.5H244.376ZM247.432 412.553C246.558 412.553 245.811 412.263 245.19 411.683C244.569 411.103 244.259 410.407 244.259 409.595C244.259 408.767 244.569 408.066 245.19 407.493C245.811 406.919 246.558 406.632 247.432 406.632C248.306 406.632 249.054 406.919 249.676 407.491C250.297 408.064 250.608 408.765 250.608 409.595C250.608 410.408 250.297 411.104 249.676 411.684C249.054 412.263 248.306 412.553 247.432 412.553ZM259.16 434.85C257.909 434.85 256.794 434.636 255.816 434.207C254.838 433.778 254.072 433.135 253.519 432.277C252.966 431.42 252.69 430.342 252.69 429.044C252.69 427.954 252.881 427.036 253.264 426.288C253.647 425.541 254.177 424.933 254.855 424.467C255.532 424 256.311 423.643 257.191 423.394C258.071 423.146 259.008 422.981 260.002 422.9C261.121 422.801 262.02 422.697 262.7 422.588C263.381 422.48 263.877 422.314 264.19 422.093C264.503 421.872 264.66 421.561 264.66 421.16V421.082C264.66 420.626 264.554 420.242 264.343 419.927C264.132 419.613 263.828 419.372 263.433 419.205C263.037 419.039 262.556 418.955 261.989 418.955C261.426 418.955 260.926 419.039 260.489 419.208C260.053 419.376 259.694 419.611 259.411 419.912C259.129 420.214 258.931 420.571 258.818 420.983L253.252 420.262C253.516 419.138 254.026 418.152 254.784 417.304C255.541 416.457 256.531 415.795 257.754 415.317C258.977 414.84 260.408 414.602 262.048 414.602C263.266 414.602 264.405 414.745 265.465 415.033C266.526 415.32 267.454 415.743 268.252 416.3C269.049 416.858 269.671 417.544 270.118 418.357C270.566 419.17 270.79 420.103 270.79 421.157V434.5H265.02V431.748H264.862C264.506 432.419 264.057 432.984 263.516 433.444C262.975 433.903 262.343 434.253 261.62 434.492C260.897 434.731 260.077 434.85 259.16 434.85ZM261.027 430.786C261.718 430.786 262.341 430.647 262.896 430.368C263.451 430.089 263.892 429.703 264.221 429.211C264.549 428.719 264.713 428.151 264.713 427.505V425.622C264.54 425.712 264.321 425.799 264.056 425.882C263.792 425.965 263.502 426.04 263.186 426.107C262.869 426.174 262.553 426.233 262.236 426.284C261.92 426.335 261.618 426.383 261.331 426.427C260.73 426.512 260.218 426.655 259.796 426.857C259.375 427.058 259.054 427.317 258.834 427.632C258.613 427.946 258.503 428.323 258.503 428.761C258.503 429.2 258.612 429.57 258.83 429.872C259.048 430.173 259.346 430.401 259.724 430.555C260.102 430.709 260.536 430.786 261.027 430.786ZM280.083 423.284V434.5H273.953V414.848H279.719L279.83 419.812H279.565C280.046 418.245 280.801 416.985 281.828 416.031C282.855 415.078 284.234 414.602 285.962 414.602C287.34 414.602 288.538 414.907 289.556 415.519C290.575 416.131 291.364 416.991 291.925 418.1C292.487 419.209 292.767 420.507 292.767 421.993V434.5H286.637V423.178C286.637 422.076 286.355 421.211 285.791 420.583C285.227 419.954 284.443 419.64 283.437 419.64C282.775 419.64 282.192 419.785 281.687 420.075C281.182 420.365 280.788 420.78 280.506 421.32C280.224 421.861 280.083 422.515 280.083 423.284Z" fill="white"/>
</g>
<path d="M67.5925 464.5H65.0725V463.135H67.5055C68.2767 463.135 68.9178 462.991 69.4288 462.702C69.9397 462.414 70.3223 461.991 70.5764 461.433C70.8305 460.876 70.9575 460.195 70.9575 459.392C70.9575 458.595 70.831 457.92 70.5779 457.368C70.3249 456.816 69.9495 456.397 69.4519 456.11C68.9542 455.823 68.3341 455.679 67.5917 455.679H65.0203V454.314H67.6916C68.6949 454.314 69.5538 454.517 70.2681 454.923C70.9825 455.329 71.5311 455.912 71.9141 456.671C72.297 457.43 72.4885 458.337 72.4885 459.392C72.4885 460.453 72.2963 461.365 71.9119 462.128C71.5275 462.891 70.9701 463.477 70.2398 463.886C69.5094 464.295 68.627 464.5 67.5925 464.5ZM65.8418 454.314V464.5H64.2797V454.314H65.8418ZM77.1832 464.5V454.314H83.5944V455.657H78.7453V458.692H83.2509V460.025H78.7453V463.157H83.64V464.5H77.1832ZM92.6571 464.637C91.776 464.637 90.9895 464.428 90.2975 464.01C89.6055 463.592 89.061 462.993 88.664 462.212C88.267 461.431 88.0684 460.499 88.0684 459.414C88.0684 458.324 88.2676 457.389 88.6658 456.607C89.0641 455.826 89.6094 455.226 90.3018 454.807C90.9942 454.387 91.7793 454.178 92.6571 454.178C93.1934 454.178 93.6976 454.255 94.1695 454.409C94.6415 454.563 95.0634 454.788 95.4354 455.085C95.8074 455.381 96.1159 455.741 96.3609 456.166C96.6059 456.59 96.7716 457.072 96.8578 457.613H95.2883C95.2236 457.286 95.1113 456.998 94.9514 456.749C94.7915 456.5 94.5948 456.29 94.3611 456.117C94.1275 455.945 93.8672 455.815 93.5803 455.728C93.2934 455.641 92.9906 455.597 92.6719 455.597C92.0883 455.597 91.5658 455.745 91.1043 456.039C90.6429 456.334 90.2797 456.765 90.0148 457.333C89.7498 457.9 89.6173 458.594 89.6173 459.414C89.6173 460.236 89.7511 460.93 90.0188 461.497C90.2864 462.064 90.6506 462.492 91.1112 462.782C91.5718 463.072 92.0912 463.217 92.6694 463.217C92.9882 463.217 93.2908 463.173 93.5772 463.084C93.8637 462.995 94.1242 462.865 94.3587 462.694C94.5931 462.524 94.7907 462.313 94.9514 462.063C95.1121 461.812 95.2252 461.525 95.2907 461.202H96.8603C96.7835 461.706 96.6265 462.166 96.3893 462.584C96.152 463.001 95.8493 463.364 95.481 463.672C95.1127 463.98 94.6901 464.218 94.2133 464.386C93.7364 464.553 93.2177 464.637 92.6571 464.637ZM105.738 464.637C104.857 464.637 104.07 464.428 103.377 464.01C102.683 463.592 102.136 462.993 101.736 462.212C101.336 461.431 101.136 460.499 101.136 459.414C101.136 458.324 101.336 457.389 101.736 456.607C102.136 455.826 102.683 455.226 103.377 454.807C104.07 454.387 104.857 454.178 105.738 454.178C106.618 454.178 107.404 454.387 108.095 454.807C108.786 455.226 109.331 455.826 109.73 456.607C110.129 457.389 110.328 458.324 110.328 459.414C110.328 460.499 110.129 461.432 109.73 462.213C109.331 462.994 108.786 463.593 108.095 464.011C107.404 464.428 106.618 464.637 105.738 464.637ZM105.738 463.217C106.318 463.217 106.836 463.071 107.294 462.78C107.752 462.489 108.114 462.06 108.38 461.493C108.646 460.926 108.779 460.233 108.779 459.414C108.779 458.587 108.646 457.889 108.38 457.322C108.114 456.755 107.752 456.325 107.294 456.034C106.836 455.743 106.318 455.597 105.738 455.597C105.155 455.597 104.634 455.744 104.174 456.037C103.714 456.33 103.351 456.76 103.085 457.328C102.818 457.895 102.685 458.59 102.685 459.414C102.685 460.233 102.818 460.925 103.085 461.49C103.351 462.055 103.714 462.484 104.174 462.777C104.634 463.071 105.155 463.217 105.738 463.217ZM118.338 464.5H115.818V463.135H118.251C119.023 463.135 119.664 462.991 120.175 462.702C120.686 462.414 121.068 461.991 121.322 461.433C121.576 460.876 121.703 460.195 121.703 459.392C121.703 458.595 121.577 457.92 121.324 457.368C121.071 456.816 120.695 456.397 120.198 456.11C119.7 455.823 119.08 455.679 118.338 455.679H115.766V454.314H118.438C119.441 454.314 120.3 454.517 121.014 454.923C121.728 455.329 122.277 455.912 122.66 456.671C123.043 457.43 123.234 458.337 123.234 459.392C123.234 460.453 123.042 461.365 122.658 462.128C122.273 462.891 121.716 463.477 120.986 463.886C120.255 464.295 119.373 464.5 118.338 464.5ZM116.588 454.314V464.5H115.026V454.314H116.588ZM127.929 464.5V454.314H134.34V455.657H129.491V458.692H133.997V460.025H129.491V463.157H134.386V464.5H127.929ZM140.168 464.602C139.887 464.602 139.648 464.505 139.452 464.31C139.256 464.114 139.158 463.877 139.158 463.596C139.158 463.315 139.256 463.077 139.452 462.882C139.648 462.687 139.887 462.589 140.168 462.589C140.449 462.589 140.688 462.687 140.884 462.882C141.08 463.077 141.178 463.315 141.178 463.596C141.178 463.877 141.08 464.114 140.884 464.31C140.688 464.505 140.449 464.602 140.168 464.602ZM152.605 464.5V454.314H156.254C157.041 454.314 157.695 454.46 158.218 454.751C158.74 455.042 159.132 455.436 159.392 455.934C159.653 456.431 159.783 456.994 159.783 457.621C159.783 458.249 159.652 458.813 159.391 459.312C159.129 459.811 158.736 460.207 158.212 460.498C157.689 460.789 157.032 460.935 156.243 460.935H153.746V459.612H156.091C156.591 459.612 156.997 459.526 157.308 459.354C157.618 459.182 157.846 458.945 157.989 458.644C158.133 458.343 158.205 458.002 158.205 457.621C158.205 457.239 158.133 456.899 157.989 456.602C157.846 456.305 157.618 456.072 157.305 455.903C156.992 455.734 156.584 455.649 156.08 455.649H154.168V464.5H152.605ZM164.388 464.5V454.314H168.037C168.823 454.314 169.477 454.45 170 454.722C170.523 454.994 170.914 455.371 171.175 455.853C171.436 456.335 171.566 456.889 171.566 457.516C171.566 458.144 171.435 458.694 171.173 459.165C170.911 459.636 170.518 460.003 169.995 460.263C169.471 460.524 168.815 460.655 168.025 460.655H165.282V459.321H167.874C168.374 459.321 168.778 459.249 169.087 459.105C169.396 458.962 169.624 458.755 169.769 458.486C169.914 458.217 169.987 457.893 169.987 457.516C169.987 457.13 169.914 456.799 169.769 456.522C169.624 456.244 169.395 456.029 169.084 455.877C168.774 455.725 168.366 455.649 167.862 455.649H165.95V464.5H164.388ZM170.178 464.5L167.712 459.897H169.441L171.952 464.5H170.178ZM180.504 464.637C179.623 464.637 178.836 464.428 178.143 464.01C177.449 463.592 176.902 462.993 176.502 462.212C176.102 461.431 175.902 460.499 175.902 459.414C175.902 458.324 176.102 457.389 176.502 456.607C176.902 455.826 177.449 455.226 178.143 454.807C178.836 454.387 179.623 454.178 180.504 454.178C181.384 454.178 182.17 454.387 182.861 454.807C183.552 455.226 184.098 455.826 184.496 456.607C184.895 457.389 185.094 458.324 185.094 459.414C185.094 460.499 184.895 461.432 184.496 462.213C184.098 462.994 183.552 463.593 182.861 464.011C182.17 464.428 181.384 464.637 180.504 464.637ZM180.504 463.217C181.084 463.217 181.602 463.071 182.06 462.78C182.518 462.489 182.88 462.06 183.146 461.493C183.412 460.926 183.545 460.233 183.545 459.414C183.545 458.587 183.412 457.889 183.146 457.322C182.88 456.755 182.518 456.325 182.06 456.034C181.602 455.743 181.084 455.597 180.504 455.597C179.921 455.597 179.4 455.744 178.94 456.037C178.48 456.33 178.117 456.76 177.851 457.328C177.584 457.895 177.451 458.59 177.451 459.414C177.451 460.233 177.584 460.925 177.851 461.49C178.117 462.055 178.48 462.484 178.94 462.777C179.4 463.071 179.921 463.217 180.504 463.217ZM188.859 455.657V454.314H196.763V455.657H193.598V464.5H192.035V455.657H188.859ZM201.307 464.5V454.314H207.719V455.657H202.87V458.692H207.375V460.025H202.87V463.157H207.764V464.5H201.307ZM216.781 464.637C215.9 464.637 215.114 464.428 214.422 464.01C213.73 463.592 213.185 462.993 212.788 462.212C212.391 461.431 212.193 460.499 212.193 459.414C212.193 458.324 212.392 457.389 212.79 456.607C213.188 455.826 213.734 455.226 214.426 454.807C215.118 454.387 215.904 454.178 216.781 454.178C217.318 454.178 217.822 454.255 218.294 454.409C218.766 454.563 219.188 454.788 219.56 455.085C219.932 455.381 220.24 455.741 220.485 456.166C220.73 456.59 220.896 457.072 220.982 457.613H219.413C219.348 457.286 219.235 456.998 219.076 456.749C218.916 456.5 218.719 456.29 218.485 456.117C218.252 455.945 217.991 455.815 217.705 455.728C217.418 455.641 217.115 455.597 216.796 455.597C216.213 455.597 215.69 455.745 215.229 456.039C214.767 456.334 214.404 456.765 214.139 457.333C213.874 457.9 213.742 458.594 213.742 459.414C213.742 460.236 213.875 460.93 214.143 461.497C214.411 462.064 214.775 462.492 215.235 462.782C215.696 463.072 216.215 463.217 216.794 463.217C217.112 463.217 217.415 463.173 217.701 463.084C217.988 462.995 218.248 462.865 218.483 462.694C218.717 462.524 218.915 462.313 219.076 462.063C219.236 461.812 219.349 461.525 219.415 461.202H220.984C220.908 461.706 220.751 462.166 220.513 462.584C220.276 463.001 219.973 463.364 219.605 463.672C219.237 463.98 218.814 464.218 218.337 464.386C217.861 464.553 217.342 464.637 216.781 464.637ZM225.108 455.657V454.314H233.012V455.657H229.847V464.5H228.285V455.657H225.108ZM238.082 464.602C237.8 464.602 237.562 464.505 237.366 464.31C237.17 464.114 237.072 463.877 237.072 463.596C237.072 463.315 237.17 463.077 237.366 462.882C237.562 462.687 237.8 462.589 238.082 462.589C238.363 462.589 238.602 462.687 238.798 462.882C238.994 463.077 239.092 463.315 239.092 463.596C239.092 463.877 238.994 464.114 238.798 464.31C238.602 464.505 238.363 464.602 238.082 464.602ZM249.74 464.5L253.367 454.314H255.28L258.968 464.5H257.283L255.299 458.834C255.145 458.373 254.975 457.831 254.791 457.207C254.607 456.583 254.394 455.834 254.153 454.96H254.468C254.232 455.841 254.022 456.598 253.839 457.229C253.656 457.861 253.494 458.395 253.353 458.834L251.429 464.5H249.74ZM251.705 461.816V460.514H257.003V461.816H251.705ZM266.558 464.5H264.038V463.135H266.471C267.242 463.135 267.883 462.991 268.394 462.702C268.905 462.414 269.288 461.991 269.542 461.433C269.796 460.876 269.923 460.195 269.923 459.392C269.923 458.595 269.796 457.92 269.543 457.368C269.29 456.816 268.915 456.397 268.417 456.11C267.92 455.823 267.3 455.679 266.557 455.679H263.986V454.314H266.657C267.66 454.314 268.519 454.517 269.234 454.923C269.948 455.329 270.497 455.912 270.88 456.671C271.262 457.43 271.454 458.337 271.454 459.392C271.454 460.453 271.262 461.365 270.877 462.128C270.493 462.891 269.936 463.477 269.205 463.886C268.475 464.295 267.592 464.5 266.558 464.5ZM264.807 454.314V464.5H263.245V454.314H264.807ZM276.149 464.5V454.314H277.711V458.621H282.754V454.314H284.316V464.5H282.754V459.964H277.711V464.5H276.149ZM289.373 464.5V454.314H295.785V455.657H290.936V458.692H295.441V460.025H290.936V463.157H295.83V464.5H289.373ZM300.616 464.5V454.314H304.265C305.051 454.314 305.705 454.45 306.228 454.722C306.75 454.994 307.142 455.371 307.403 455.853C307.663 456.335 307.794 456.889 307.794 457.516C307.794 458.144 307.663 458.694 307.401 459.165C307.139 459.636 306.746 460.003 306.223 460.263C305.699 460.524 305.043 460.655 304.253 460.655H301.51V459.321H304.102C304.602 459.321 305.006 459.249 305.315 459.105C305.624 458.962 305.851 458.755 305.997 458.486C306.142 458.217 306.215 457.893 306.215 457.516C306.215 457.13 306.142 456.799 305.997 456.522C305.851 456.244 305.623 456.029 305.312 455.877C305.001 455.725 304.594 455.649 304.09 455.649H302.178V464.5H300.616ZM306.406 464.5L303.94 459.897H305.669L308.18 464.5H306.406ZM312.487 464.5V454.314H318.898V455.657H314.049V458.692H318.555V460.025H314.049V463.157H318.944V464.5H312.487ZM324.726 464.602C324.445 464.602 324.206 464.505 324.01 464.31C323.814 464.114 323.716 463.877 323.716 463.596C323.716 463.315 323.814 463.077 324.01 462.882C324.206 462.687 324.445 462.589 324.726 462.589C325.007 462.589 325.246 462.687 325.442 462.882C325.638 463.077 325.736 463.315 325.736 463.596C325.736 463.877 325.638 464.114 325.442 464.31C325.246 464.505 325.007 464.602 324.726 464.602Z" fill="url(#paint1_linear_1_2)"/>
<path d="M67.5925 464.5H65.0725V463.135H67.5055C68.2767 463.135 68.9178 462.991 69.4288 462.702C69.9397 462.414 70.3223 461.991 70.5764 461.433C70.8305 460.876 70.9575 460.195 70.9575 459.392C70.9575 458.595 70.831 457.92 70.5779 457.368C70.3249 456.816 69.9495 456.397 69.4519 456.11C68.9542 455.823 68.3341 455.679 67.5917 455.679H65.0203V454.314H67.6916C68.6949 454.314 69.5538 454.517 70.2681 454.923C70.9825 455.329 71.5311 455.912 71.9141 456.671C72.297 457.43 72.4885 458.337 72.4885 459.392C72.4885 460.453 72.2963 461.365 71.9119 462.128C71.5275 462.891 70.9701 463.477 70.2398 463.886C69.5094 464.295 68.627 464.5 67.5925 464.5ZM65.8418 454.314V464.5H64.2797V454.314H65.8418ZM77.1832 464.5V454.314H83.5944V455.657H78.7453V458.692H83.2509V460.025H78.7453V463.157H83.64V464.5H77.1832ZM92.6571 464.637C91.776 464.637 90.9895 464.428 90.2975 464.01C89.6055 463.592 89.061 462.993 88.664 462.212C88.267 461.431 88.0684 460.499 88.0684 459.414C88.0684 458.324 88.2676 457.389 88.6658 456.607C89.0641 455.826 89.6094 455.226 90.3018 454.807C90.9942 454.387 91.7793 454.178 92.6571 454.178C93.1934 454.178 93.6976 454.255 94.1695 454.409C94.6415 454.563 95.0634 454.788 95.4354 455.085C95.8074 455.381 96.1159 455.741 96.3609 456.166C96.6059 456.59 96.7716 457.072 96.8578 457.613H95.2883C95.2236 457.286 95.1113 456.998 94.9514 456.749C94.7915 456.5 94.5948 456.29 94.3611 456.117C94.1275 455.945 93.8672 455.815 93.5803 455.728C93.2934 455.641 92.9906 455.597 92.6719 455.597C92.0883 455.597 91.5658 455.745 91.1043 456.039C90.6429 456.334 90.2797 456.765 90.0148 457.333C89.7498 457.9 89.6173 458.594 89.6173 459.414C89.6173 460.236 89.7511 460.93 90.0188 461.497C90.2864 462.064 90.6506 462.492 91.1112 462.782C91.5718 463.072 92.0912 463.217 92.6694 463.217C92.9882 463.217 93.2908 463.173 93.5772 463.084C93.8637 462.995 94.1242 462.865 94.3587 462.694C94.5931 462.524 94.7907 462.313 94.9514 462.063C95.1121 461.812 95.2252 461.525 95.2907 461.202H96.8603C96.7835 461.706 96.6265 462.166 96.3893 462.584C96.152 463.001 95.8493 463.364 95.481 463.672C95.1127 463.98 94.6901 464.218 94.2133 464.386C93.7364 464.553 93.2177 464.637 92.6571 464.637ZM105.738 464.637C104.857 464.637 104.07 464.428 103.377 464.01C102.683 463.592 102.136 462.993 101.736 462.212C101.336 461.431 101.136 460.499 101.136 459.414C101.136 458.324 101.336 457.389 101.736 456.607C102.136 455.826 102.683 455.226 103.377 454.807C104.07 454.387 104.857 454.178 105.738 454.178C106.618 454.178 107.404 454.387 108.095 454.807C108.786 455.226 109.331 455.826 109.73 456.607C110.129 457.389 110.328 458.324 110.328 459.414C110.328 460.499 110.129 461.432 109.73 462.213C109.331 462.994 108.786 463.593 108.095 464.011C107.404 464.428 106.618 464.637 105.738 464.637ZM105.738 463.217C106.318 463.217 106.836 463.071 107.294 462.78C107.752 462.489 108.114 462.06 108.38 461.493C108.646 460.926 108.779 460.233 108.779 459.414C108.779 458.587 108.646 457.889 108.38 457.322C108.114 456.755 107.752 456.325 107.294 456.034C106.836 455.743 106.318 455.597 105.738 455.597C105.155 455.597 104.634 455.744 104.174 456.037C103.714 456.33 103.351 456.76 103.085 457.328C102.818 457.895 102.685 458.59 102.685 459.414C102.685 460.233 102.818 460.925 103.085 461.49C103.351 462.055 103.714 462.484 104.174 462.777C104.634 463.071 105.155 463.217 105.738 463.217ZM118.338 464.5H115.818V463.135H118.251C119.023 463.135 119.664 462.991 120.175 462.702C120.686 462.414 121.068 461.991 121.322 461.433C121.576 460.876 121.703 460.195 121.703 459.392C121.703 458.595 121.577 457.92 121.324 457.368C121.071 456.816 120.695 456.397 120.198 456.11C119.7 455.823 119.08 455.679 118.338 455.679H115.766V454.314H118.438C119.441 454.314 120.3 454.517 121.014 454.923C121.728 455.329 122.277 455.912 122.66 456.671C123.043 457.43 123.234 458.337 123.234 459.392C123.234 460.453 123.042 461.365 122.658 462.128C122.273 462.891 121.716 463.477 120.986 463.886C120.255 464.295 119.373 464.5 118.338 464.5ZM116.588 454.314V464.5H115.026V454.314H116.588ZM127.929 464.5V454.314H134.34V455.657H129.491V458.692H133.997V460.025H129.491V463.157H134.386V464.5H127.929ZM140.168 464.602C139.887 464.602 139.648 464.505 139.452 464.31C139.256 464.114 139.158 463.877 139.158 463.596C139.158 463.315 139.256 463.077 139.452 462.882C139.648 462.687 139.887 462.589 140.168 462.589C140.449 462.589 140.688 462.687 140.884 462.882C141.08 463.077 141.178 463.315 141.178 463.596C141.178 463.877 141.08 464.114 140.884 464.31C140.688 464.505 140.449 464.602 140.168 464.602ZM152.605 464.5V454.314H156.254C157.041 454.314 157.695 454.46 158.218 454.751C158.74 455.042 159.132 455.436 159.392 455.934C159.653 456.431 159.783 456.994 159.783 457.621C159.783 458.249 159.652 458.813 159.391 459.312C159.129 459.811 158.736 460.207 158.212 460.498C157.689 460.789 157.032 460.935 156.243 460.935H153.746V459.612H156.091C156.591 459.612 156.997 459.526 157.308 459.354C157.618 459.182 157.846 458.945 157.989 458.644C158.133 458.343 158.205 458.002 158.205 457.621C158.205 457.239 158.133 456.899 157.989 456.602C157.846 456.305 157.618 456.072 157.305 455.903C156.992 455.734 156.584 455.649 156.08 455.649H154.168V464.5H152.605ZM164.388 464.5V454.314H168.037C168.823 454.314 169.477 454.45 170 454.722C170.523 454.994 170.914 455.371 171.175 455.853C171.436 456.335 171.566 456.889 171.566 457.516C171.566 458.144 171.435 458.694 171.173 459.165C170.911 459.636 170.518 460.003 169.995 460.263C169.471 460.524 168.815 460.655 168.025 460.655H165.282V459.321H167.874C168.374 459.321 168.778 459.249 169.087 459.105C169.396 458.962 169.624 458.755 169.769 458.486C169.914 458.217 169.987 457.893 169.987 457.516C169.987 457.13 169.914 456.799 169.769 456.522C169.624 456.244 169.395 456.029 169.084 455.877C168.774 455.725 168.366 455.649 167.862 455.649H165.95V464.5H164.388ZM170.178 464.5L167.712 459.897H169.441L171.952 464.5H170.178ZM180.504 464.637C179.623 464.637 178.836 464.428 178.143 464.01C177.449 463.592 176.902 462.993 176.502 462.212C176.102 461.431 175.902 460.499 175.902 459.414C175.902 458.324 176.102 457.389 176.502 456.607C176.902 455.826 177.449 455.226 178.143 454.807C178.836 454.387 179.623 454.178 180.504 454.178C181.384 454.178 182.17 454.387 182.861 454.807C183.552 455.226 184.098 455.826 184.496 456.607C184.895 457.389 185.094 458.324 185.094 459.414C185.094 460.499 184.895 461.432 184.496 462.213C184.098 462.994 183.552 463.593 182.861 464.011C182.17 464.428 181.384 464.637 180.504 464.637ZM180.504 463.217C181.084 463.217 181.602 463.071 182.06 462.78C182.518 462.489 182.88 462.06 183.146 461.493C183.412 460.926 183.545 460.233 183.545 459.414C183.545 458.587 183.412 457.889 183.146 457.322C182.88 456.755 182.518 456.325 182.06 456.034C181.602 455.743 181.084 455.597 180.504 455.597C179.921 455.597 179.4 455.744 178.94 456.037C178.48 456.33 178.117 456.76 177.851 457.328C177.584 457.895 177.451 458.59 177.451 459.414C177.451 460.233 177.584 460.925 177.851 461.49C178.117 462.055 178.48 462.484 178.94 462.777C179.4 463.071 179.921 463.217 180.504 463.217ZM188.859 455.657V454.314H196.763V455.657H193.598V464.5H192.035V455.657H188.859ZM201.307 464.5V454.314H207.719V455.657H202.87V458.692H207.375V460.025H202.87V463.157H207.764V464.5H201.307ZM216.781 464.637C215.9 464.637 215.114 464.428 214.422 464.01C213.73 463.592 213.185 462.993 212.788 462.212C212.391 461.431 212.193 460.499 212.193 459.414C212.193 458.324 212.392 457.389 212.79 456.607C213.188 455.826 213.734 455.226 214.426 454.807C215.118 454.387 215.904 454.178 216.781 454.178C217.318 454.178 217.822 454.255 218.294 454.409C218.766 454.563 219.188 454.788 219.56 455.085C219.932 455.381 220.24 455.741 220.485 456.166C220.73 456.59 220.896 457.072 220.982 457.613H219.413C219.348 457.286 219.235 456.998 219.076 456.749C218.916 456.5 218.719 456.29 218.485 456.117C218.252 455.945 217.991 455.815 217.705 455.728C217.418 455.641 217.115 455.597 216.796 455.597C216.213 455.597 215.69 455.745 215.229 456.039C214.767 456.334 214.404 456.765 214.139 457.333C213.874 457.9 213.742 458.594 213.742 459.414C213.742 460.236 213.875 460.93 214.143 461.497C214.411 462.064 214.775 462.492 215.235 462.782C215.696 463.072 216.215 463.217 216.794 463.217C217.112 463.217 217.415 463.173 217.701 463.084C217.988 462.995 218.248 462.865 218.483 462.694C218.717 462.524 218.915 462.313 219.076 462.063C219.236 461.812 219.349 461.525 219.415 461.202H220.984C220.908 461.706 220.751 462.166 220.513 462.584C220.276 463.001 219.973 463.364 219.605 463.672C219.237 463.98 218.814 464.218 218.337 464.386C217.861 464.553 217.342 464.637 216.781 464.637ZM225.108 455.657V454.314H233.012V455.657H229.847V464.5H228.285V455.657H225.108ZM238.082 464.602C237.8 464.602 237.562 464.505 237.366 464.31C237.17 464.114 237.072 463.877 237.072 463.596C237.072 463.315 237.17 463.077 237.366 462.882C237.562 462.687 237.8 462.589 238.082 462.589C238.363 462.589 238.602 462.687 238.798 462.882C238.994 463.077 239.092 463.315 239.092 463.596C239.092 463.877 238.994 464.114 238.798 464.31C238.602 464.505 238.363 464.602 238.082 464.602ZM249.74 464.5L253.367 454.314H255.28L258.968 464.5H257.283L255.299 458.834C255.145 458.373 254.975 457.831 254.791 457.207C254.607 456.583 254.394 455.834 254.153 454.96H254.468C254.232 455.841 254.022 456.598 253.839 457.229C253.656 457.861 253.494 458.395 253.353 458.834L251.429 464.5H249.74ZM251.705 461.816V460.514H257.003V461.816H251.705ZM266.558 464.5H264.038V463.135H266.471C267.242 463.135 267.883 462.991 268.394 462.702C268.905 462.414 269.288 461.991 269.542 461.433C269.796 460.876 269.923 460.195 269.923 459.392C269.923 458.595 269.796 457.92 269.543 457.368C269.29 456.816 268.915 456.397 268.417 456.11C267.92 455.823 267.3 455.679 266.557 455.679H263.986V454.314H266.657C267.66 454.314 268.519 454.517 269.234 454.923C269.948 455.329 270.497 455.912 270.88 456.671C271.262 457.43 271.454 458.337 271.454 459.392C271.454 460.453 271.262 461.365 270.877 462.128C270.493 462.891 269.936 463.477 269.205 463.886C268.475 464.295 267.592 464.5 266.558 464.5ZM264.807 454.314V464.5H263.245V454.314H264.807ZM276.149 464.5V454.314H277.711V458.621H282.754V454.314H284.316V464.5H282.754V459.964H277.711V464.5H276.149ZM289.373 464.5V454.314H295.785V455.657H290.936V458.692H295.441V460.025H290.936V463.157H295.83V464.5H289.373ZM300.616 464.5V454.314H304.265C305.051 454.314 305.705 454.45 306.228 454.722C306.75 454.994 307.142 455.371 307.403 455.853C307.663 456.335 307.794 456.889 307.794 457.516C307.794 458.144 307.663 458.694 307.401 459.165C307.139 459.636 306.746 460.003 306.223 460.263C305.699 460.524 305.043 460.655 304.253 460.655H301.51V459.321H304.102C304.602 459.321 305.006 459.249 305.315 459.105C305.624 458.962 305.851 458.755 305.997 458.486C306.142 458.217 306.215 457.893 306.215 457.516C306.215 457.13 306.142 456.799 305.997 456.522C305.851 456.244 305.623 456.029 305.312 455.877C305.001 455.725 304.594 455.649 304.09 455.649H302.178V464.5H300.616ZM306.406 464.5L303.94 459.897H305.669L308.18 464.5H306.406ZM312.487 464.5V454.314H318.898V455.657H314.049V458.692H318.555V460.025H314.049V463.157H318.944V464.5H312.487ZM324.726 464.602C324.445 464.602 324.206 464.505 324.01 464.31C323.814 464.114 323.716 463.877 323.716 463.596C323.716 463.315 323.814 463.077 324.01 462.882C324.206 462.687 324.445 462.589 324.726 462.589C325.007 462.589 325.246 462.687 325.442 462.882C325.638 463.077 325.736 463.315 325.736 463.596C325.736 463.877 325.638 464.114 325.442 464.31C325.246 464.505 325.007 464.602 324.726 464.602Z" fill="#DBEAFE" fill-opacity="0.9"/>
<rect x="99" y="695" width="192" height="6" rx="3" fill="white" fill-opacity="0.2"/>
<rect x="99" y="695" width="64" height="6" rx="3" fill="white"/>
<path d="M100.926 729V720.27H106.421V721.421H102.265V724.021H106.127V725.164H102.265V727.849H106.461V729H100.926ZM110.415 729.136C109.94 729.136 109.518 729.068 109.149 728.93C108.781 728.793 108.478 728.59 108.241 728.323C108.005 728.056 107.848 727.729 107.77 727.345L108.984 727.091C109.075 727.432 109.243 727.684 109.487 727.846C109.732 728.009 110.044 728.09 110.424 728.09C110.841 728.09 111.172 728.004 111.418 727.831C111.663 727.658 111.786 727.449 111.786 727.205C111.786 726.996 111.711 726.824 111.559 726.687C111.408 726.55 111.176 726.447 110.863 726.378L109.761 726.129C109.154 725.992 108.703 725.773 108.406 725.473C108.109 725.174 107.961 724.788 107.961 724.317C107.961 723.928 108.069 723.587 108.286 723.294C108.503 723.002 108.802 722.774 109.183 722.611C109.563 722.449 110.001 722.367 110.494 722.367C110.967 722.367 111.371 722.436 111.707 722.574C112.043 722.711 112.315 722.902 112.524 723.147C112.734 723.391 112.884 723.676 112.976 724L111.82 724.256C111.737 724.025 111.594 723.822 111.392 723.647C111.19 723.472 110.895 723.385 110.507 723.385C110.151 723.385 109.853 723.465 109.615 723.625C109.376 723.786 109.257 723.99 109.257 724.239C109.257 724.455 109.337 724.631 109.496 724.767C109.655 724.902 109.914 725.011 110.272 725.092L111.325 725.327C111.932 725.463 112.382 725.678 112.675 725.972C112.968 726.266 113.115 726.641 113.115 727.096C113.115 727.495 113.001 727.847 112.773 728.154C112.545 728.46 112.228 728.701 111.822 728.875C111.416 729.049 110.947 729.136 110.415 729.136ZM117.33 722.449V723.497H113.776V722.449H117.33ZM114.733 720.891H116.022V727.228C116.022 727.493 116.077 727.687 116.188 727.809C116.298 727.932 116.481 727.994 116.737 727.994C116.804 727.994 116.892 727.986 117.001 727.97C117.11 727.954 117.204 727.938 117.282 727.922L117.51 728.955C117.372 729.001 117.225 729.034 117.068 729.054C116.912 729.075 116.758 729.085 116.608 729.085C116.011 729.085 115.55 728.932 115.223 728.627C114.897 728.321 114.733 727.891 114.733 727.334V720.891ZM120.501 729.144C120.087 729.144 119.712 729.067 119.377 728.914C119.042 728.761 118.776 728.536 118.581 728.239C118.385 727.941 118.287 727.578 118.287 727.147C118.287 726.775 118.359 726.47 118.502 726.232C118.646 725.994 118.839 725.805 119.082 725.666C119.324 725.526 119.595 725.421 119.894 725.351C120.193 725.281 120.498 725.227 120.809 725.191C121.196 725.144 121.51 725.106 121.751 725.077C121.993 725.048 122.171 724.999 122.287 724.931C122.403 724.862 122.46 724.751 122.46 724.598V724.565C122.46 724.32 122.413 724.113 122.319 723.944C122.225 723.774 122.085 723.644 121.899 723.553C121.712 723.463 121.481 723.417 121.203 723.417C120.92 723.417 120.677 723.461 120.472 723.549C120.268 723.637 120.102 723.749 119.974 723.884C119.845 724.02 119.75 724.162 119.687 724.311L118.474 723.999C118.623 723.606 118.837 723.291 119.114 723.052C119.391 722.814 119.71 722.64 120.068 722.531C120.427 722.422 120.8 722.367 121.186 722.367C121.449 722.367 121.729 722.399 122.025 722.462C122.322 722.525 122.601 722.638 122.863 722.801C123.124 722.964 123.337 723.195 123.502 723.493C123.667 723.791 123.749 724.177 123.749 724.651V729H122.502V728.103H122.436C122.351 728.272 122.225 728.437 122.057 728.597C121.889 728.757 121.677 728.888 121.42 728.99C121.163 729.093 120.857 729.144 120.501 729.144ZM120.787 728.112C121.14 728.112 121.441 728.043 121.691 727.905C121.94 727.766 122.132 727.585 122.265 727.359C122.398 727.134 122.465 726.895 122.465 726.641V725.799C122.418 725.845 122.329 725.887 122.198 725.925C122.067 725.963 121.918 725.996 121.752 726.026C121.585 726.055 121.423 726.079 121.265 726.1C121.108 726.12 120.979 726.137 120.879 726.149C120.637 726.18 120.416 726.232 120.214 726.306C120.012 726.38 119.852 726.486 119.733 726.622C119.615 726.759 119.555 726.94 119.555 727.165C119.555 727.373 119.609 727.547 119.715 727.687C119.822 727.827 119.968 727.933 120.152 728.004C120.337 728.076 120.549 728.112 120.787 728.112ZM128.734 729.13C128.339 729.13 128.017 729.062 127.765 728.927C127.514 728.792 127.317 728.634 127.174 728.454C127.032 728.274 126.922 728.114 126.845 727.975H126.739V729H125.483V720.27H126.772V723.516H126.845C126.922 723.38 127.029 723.222 127.168 723.042C127.306 722.863 127.5 722.706 127.749 722.57C127.998 722.435 128.326 722.367 128.733 722.367C129.26 722.367 129.729 722.5 130.14 722.766C130.551 723.031 130.875 723.416 131.113 723.92C131.351 724.424 131.471 725.03 131.471 725.74C131.471 726.446 131.353 727.052 131.119 727.557C130.885 728.063 130.562 728.452 130.15 728.723C129.739 728.994 129.267 729.13 128.734 729.13ZM128.448 728.032C128.824 728.032 129.138 727.93 129.391 727.727C129.644 727.524 129.834 727.248 129.962 726.901C130.091 726.553 130.155 726.163 130.155 725.73C130.155 725.301 130.091 724.915 129.965 724.574C129.838 724.232 129.649 723.962 129.396 723.764C129.143 723.565 128.827 723.466 128.448 723.466C128.079 723.466 127.769 723.56 127.517 723.749C127.264 723.938 127.074 724.202 126.945 724.54C126.816 724.878 126.752 725.275 126.752 725.73C126.752 726.185 126.817 726.585 126.947 726.93C127.078 727.276 127.27 727.546 127.524 727.74C127.778 727.935 128.086 728.032 128.448 728.032ZM134.19 720.27V729H132.901V720.27H134.19ZM135.924 729V722.449H137.213V729H135.924ZM136.573 721.45C136.352 721.45 136.161 721.375 136.002 721.225C135.843 721.074 135.763 720.894 135.763 720.684C135.763 720.47 135.843 720.288 136.002 720.14C136.161 719.992 136.352 719.918 136.573 719.918C136.797 719.918 136.988 719.992 137.148 720.14C137.307 720.288 137.387 720.47 137.387 720.684C137.387 720.894 137.307 721.075 137.148 721.225C136.988 721.375 136.797 721.45 136.573 721.45ZM141.3 729.136C140.825 729.136 140.403 729.068 140.034 728.93C139.666 728.793 139.363 728.59 139.126 728.323C138.889 728.056 138.732 727.729 138.655 727.345L139.869 727.091C139.96 727.432 140.128 727.684 140.372 727.846C140.617 728.009 140.929 728.09 141.309 728.09C141.726 728.09 142.057 728.004 142.302 727.831C142.548 727.658 142.671 727.449 142.671 727.205C142.671 726.996 142.595 726.824 142.444 726.687C142.292 726.55 142.06 726.447 141.748 726.378L140.646 726.129C140.039 725.992 139.588 725.773 139.291 725.473C138.994 725.174 138.846 724.788 138.846 724.317C138.846 723.928 138.954 723.587 139.171 723.294C139.388 723.002 139.687 722.774 140.067 722.611C140.448 722.449 140.885 722.367 141.379 722.367C141.851 722.367 142.256 722.436 142.591 722.574C142.927 722.711 143.2 722.902 143.409 723.147C143.618 723.391 143.769 723.676 143.861 724L142.704 724.256C142.622 724.025 142.479 723.822 142.277 723.647C142.075 723.472 141.78 723.385 141.392 723.385C141.035 723.385 140.738 723.465 140.499 723.625C140.261 723.786 140.142 723.99 140.142 724.239C140.142 724.455 140.222 724.631 140.381 724.767C140.54 724.902 140.799 725.011 141.157 725.092L142.209 725.327C142.817 725.463 143.267 725.678 143.56 725.972C143.853 726.266 144 726.641 144 727.096C144 727.495 143.886 727.847 143.658 728.154C143.43 728.46 143.113 728.701 142.707 728.875C142.301 729.049 141.832 729.136 141.3 729.136ZM146.7 725.119V729H145.411V720.27H146.689V724.053H146.52C146.71 723.467 146.987 723.04 147.349 722.771C147.712 722.502 148.151 722.367 148.666 722.367C149.112 722.367 149.502 722.461 149.838 722.648C150.173 722.834 150.434 723.111 150.62 723.477C150.806 723.844 150.898 724.297 150.898 724.838V729H149.605V724.998C149.605 724.527 149.482 724.157 149.236 723.89C148.99 723.623 148.654 723.489 148.225 723.489C147.935 723.489 147.674 723.553 147.443 723.68C147.213 723.807 147.031 723.992 146.898 724.235C146.766 724.477 146.7 724.772 146.7 725.119ZM152.629 729V722.449H153.918V729H152.629ZM153.278 721.45C153.057 721.45 152.866 721.375 152.707 721.225C152.548 721.074 152.468 720.894 152.468 720.684C152.468 720.47 152.548 720.288 152.707 720.14C152.866 719.992 153.057 719.918 153.278 719.918C153.502 719.918 153.693 719.992 153.853 720.14C154.012 720.288 154.092 720.47 154.092 720.684C154.092 720.894 154.012 721.075 153.853 721.225C153.693 721.375 153.502 721.45 153.278 721.45ZM156.942 725.119V729H155.653V722.449H156.882L156.895 724.053H156.762C156.952 723.467 157.229 723.04 157.592 722.771C157.954 722.502 158.393 722.367 158.908 722.367C159.354 722.367 159.744 722.461 160.077 722.648C160.411 722.834 160.671 723.111 160.857 723.477C161.043 723.844 161.136 724.297 161.136 724.838V729H159.847V724.998C159.847 724.527 159.724 724.157 159.478 723.89C159.233 723.623 158.896 723.489 158.467 723.489C158.177 723.489 157.916 723.553 157.685 723.68C157.455 723.807 157.273 723.992 157.141 724.235C157.008 724.477 156.942 724.772 156.942 725.119ZM165.611 731.59C165.107 731.59 164.669 731.526 164.298 731.398C163.927 731.27 163.621 731.098 163.38 730.882C163.139 730.666 162.957 730.426 162.834 730.163L163.908 729.657C163.989 729.78 164.095 729.912 164.225 730.052C164.356 730.192 164.532 730.31 164.753 730.406C164.974 730.503 165.259 730.551 165.609 730.551C166.107 730.551 166.512 730.433 166.823 730.198C167.133 729.963 167.289 729.593 167.289 729.089V727.813H167.177C167.101 727.954 166.994 728.11 166.854 728.279C166.715 728.448 166.521 728.594 166.273 728.716C166.025 728.838 165.701 728.899 165.302 728.899C164.789 728.899 164.326 728.778 163.913 728.535C163.5 728.293 163.173 727.934 162.932 727.459C162.691 726.984 162.57 726.398 162.57 725.702C162.57 725.005 162.69 724.408 162.93 723.91C163.17 723.413 163.497 723.031 163.912 722.766C164.327 722.5 164.796 722.367 165.319 722.367C165.723 722.367 166.051 722.434 166.302 722.568C166.553 722.702 166.749 722.859 166.892 723.04C167.035 723.221 167.144 723.38 167.221 723.516H167.311V722.449H168.571V729.095C168.571 729.667 168.441 730.137 168.182 730.506C167.922 730.875 167.568 731.148 167.122 731.325C166.675 731.501 166.171 731.59 165.611 731.59ZM165.602 727.828C165.968 727.828 166.277 727.743 166.529 727.573C166.781 727.402 166.972 727.157 167.103 726.836C167.233 726.515 167.299 726.13 167.299 725.682C167.299 725.243 167.234 724.857 167.105 724.526C166.976 724.194 166.786 723.934 166.534 723.747C166.282 723.559 165.971 723.466 165.602 723.466C165.224 723.466 164.907 723.564 164.653 723.761C164.398 723.958 164.206 724.223 164.078 724.557C163.95 724.89 163.886 725.265 163.886 725.682C163.886 726.108 163.951 726.483 164.08 726.805C164.21 727.128 164.402 727.379 164.657 727.559C164.912 727.739 165.227 727.828 165.602 727.828ZM175.858 729.136C175.383 729.136 174.961 729.068 174.593 728.93C174.224 728.793 173.921 728.59 173.685 728.323C173.448 728.056 173.291 727.729 173.213 727.345L174.427 727.091C174.518 727.432 174.686 727.684 174.931 727.846C175.175 728.009 175.488 728.09 175.868 728.09C176.284 728.09 176.615 728.004 176.861 727.831C177.107 727.658 177.23 727.449 177.23 727.205C177.23 726.996 177.154 726.824 177.002 726.687C176.851 726.55 176.619 726.447 176.307 726.378L175.204 726.129C174.598 725.992 174.146 725.773 173.849 725.473C173.553 725.174 173.404 724.788 173.404 724.317C173.404 723.928 173.513 723.587 173.73 723.294C173.947 723.002 174.245 722.774 174.626 722.611C175.007 722.449 175.444 722.367 175.938 722.367C176.41 722.367 176.814 722.436 177.15 722.574C177.486 722.711 177.759 722.902 177.968 723.147C178.177 723.391 178.328 723.676 178.42 724L177.263 724.256C177.18 724.025 177.038 723.822 176.835 723.647C176.633 723.472 176.338 723.385 175.951 723.385C175.594 723.385 175.296 723.465 175.058 723.625C174.82 723.786 174.701 723.99 174.701 724.239C174.701 724.455 174.78 724.631 174.939 724.767C175.099 724.902 175.357 725.011 175.716 725.092L176.768 725.327C177.375 725.463 177.825 725.678 178.119 725.972C178.412 726.266 178.558 726.641 178.558 727.096C178.558 727.495 178.444 727.847 178.216 728.154C177.988 728.46 177.671 728.701 177.265 728.875C176.86 729.049 176.391 729.136 175.858 729.136ZM182.793 729.136C182.148 729.136 181.592 728.997 181.125 728.718C180.657 728.439 180.297 728.048 180.046 727.544C179.794 727.04 179.668 726.449 179.668 725.771C179.668 725.098 179.791 724.507 180.039 723.996C180.286 723.485 180.636 723.086 181.089 722.799C181.542 722.511 182.073 722.367 182.681 722.367C183.056 722.367 183.417 722.428 183.767 722.551C184.116 722.673 184.429 722.865 184.706 723.127C184.983 723.389 185.203 723.729 185.365 724.146C185.527 724.564 185.608 725.068 185.608 725.658V726.116H180.385V725.153H184.943L184.341 725.471C184.341 725.071 184.279 724.717 184.155 724.411C184.03 724.104 183.845 723.865 183.6 723.692C183.355 723.52 183.05 723.433 182.686 723.433C182.321 723.433 182.01 723.521 181.752 723.697C181.494 723.873 181.297 724.104 181.161 724.392C181.026 724.679 180.958 724.992 180.958 725.332V725.986C180.958 726.435 181.035 726.815 181.189 727.126C181.343 727.437 181.56 727.673 181.838 727.832C182.117 727.991 182.439 728.07 182.806 728.07C183.046 728.07 183.265 728.036 183.461 727.967C183.658 727.898 183.827 727.794 183.969 727.656C184.11 727.517 184.219 727.346 184.295 727.142L185.504 727.427C185.401 727.766 185.226 728.064 184.977 728.321C184.729 728.578 184.42 728.778 184.05 728.921C183.681 729.065 183.262 729.136 182.793 729.136ZM189.772 729.136C189.157 729.136 188.621 728.996 188.163 728.714C187.705 728.432 187.349 728.038 187.096 727.53C186.843 727.023 186.716 726.433 186.716 725.761C186.716 725.08 186.843 724.485 187.096 723.976C187.349 723.467 187.705 723.071 188.163 722.79C188.621 722.508 189.157 722.367 189.772 722.367C190.113 722.367 190.432 722.411 190.728 722.5C191.025 722.588 191.293 722.715 191.533 722.881C191.772 723.046 191.975 723.249 192.142 723.488C192.308 723.727 192.432 723.998 192.512 724.3L191.292 724.594C191.249 724.425 191.182 724.271 191.093 724.132C191.003 723.993 190.894 723.873 190.767 723.772C190.639 723.671 190.492 723.593 190.326 723.539C190.16 723.484 189.977 723.457 189.778 723.457C189.382 723.457 189.055 723.561 188.797 723.77C188.539 723.978 188.346 724.256 188.219 724.603C188.092 724.951 188.028 725.336 188.028 725.759C188.028 726.176 188.092 726.557 188.219 726.903C188.346 727.25 188.539 727.527 188.797 727.735C189.055 727.942 189.382 728.046 189.778 728.046C189.981 728.046 190.166 728.018 190.336 727.962C190.505 727.905 190.655 727.825 190.786 727.72C190.918 727.615 191.028 727.49 191.118 727.344C191.207 727.197 191.273 727.036 191.316 726.861L192.532 727.153C192.454 727.463 192.331 727.74 192.163 727.984C191.995 728.227 191.791 728.435 191.55 728.608C191.309 728.78 191.039 728.912 190.738 729.001C190.438 729.091 190.116 729.136 189.772 729.136ZM196.176 729.082C195.731 729.082 195.341 728.989 195.005 728.802C194.669 728.615 194.409 728.337 194.223 727.969C194.037 727.602 193.944 727.149 193.944 726.611V722.449H195.233V726.451C195.233 726.922 195.356 727.292 195.604 727.559C195.851 727.826 196.189 727.96 196.617 727.96C196.908 727.96 197.169 727.896 197.397 727.769C197.626 727.642 197.807 727.456 197.939 727.212C198.072 726.967 198.138 726.674 198.138 726.331V722.449H199.432V729H198.198L198.19 727.396H198.318C198.124 727.988 197.845 728.417 197.479 728.683C197.113 728.949 196.678 729.082 196.176 729.082ZM201.163 729V722.449H202.41V723.501H202.48C202.601 723.145 202.812 722.866 203.113 722.662C203.414 722.459 203.757 722.358 204.139 722.358C204.222 722.358 204.316 722.361 204.423 722.367C204.529 722.373 204.616 722.38 204.684 722.389V723.619C204.638 723.605 204.548 723.59 204.415 723.574C204.281 723.558 204.146 723.55 204.009 723.55C203.712 723.55 203.444 723.613 203.208 723.739C202.972 723.865 202.786 724.038 202.652 724.259C202.518 724.48 202.451 724.734 202.451 725.023V729H201.163ZM208.398 729.136C207.754 729.136 207.197 728.997 206.73 728.718C206.263 728.439 205.903 728.048 205.651 727.544C205.399 727.04 205.273 726.449 205.273 725.771C205.273 725.098 205.397 724.507 205.644 723.996C205.892 723.485 206.242 723.086 206.695 722.799C207.148 722.511 207.678 722.367 208.287 722.367C208.661 722.367 209.023 722.428 209.372 722.551C209.721 722.673 210.034 722.865 210.312 723.127C210.589 723.389 210.808 723.729 210.97 724.146C211.132 724.564 211.213 725.068 211.213 725.658V726.116H205.99V725.153H210.549L209.947 725.471C209.947 725.071 209.885 724.717 209.76 724.411C209.635 724.104 209.451 723.865 209.205 723.692C208.96 723.52 208.655 723.433 208.291 723.433C207.927 723.433 207.616 723.521 207.358 723.697C207.099 723.873 206.903 724.104 206.767 724.392C206.631 724.679 206.563 724.992 206.563 725.332V725.986C206.563 726.435 206.64 726.815 206.795 727.126C206.949 727.437 207.165 727.673 207.444 727.832C207.722 727.991 208.045 728.07 208.412 728.07C208.652 728.07 208.87 728.036 209.067 727.967C209.263 727.898 209.432 727.794 209.574 727.656C209.716 727.517 209.825 727.346 209.9 727.142L211.11 727.427C211.007 727.766 210.831 728.064 210.583 728.321C210.334 728.578 210.025 728.778 209.656 728.921C209.286 729.065 208.867 729.136 208.398 729.136ZM218.576 729.136C217.962 729.136 217.425 728.996 216.967 728.714C216.51 728.432 216.154 728.038 215.901 727.53C215.648 727.023 215.521 726.433 215.521 725.761C215.521 725.08 215.648 724.485 215.901 723.976C216.154 723.467 216.51 723.071 216.967 722.79C217.425 722.508 217.962 722.367 218.576 722.367C218.917 722.367 219.236 722.411 219.533 722.5C219.83 722.588 220.098 722.715 220.337 722.881C220.577 723.046 220.78 723.249 220.946 723.488C221.113 723.727 221.236 723.998 221.317 724.3L220.097 724.594C220.053 724.425 219.987 724.271 219.897 724.132C219.808 723.993 219.699 723.873 219.571 723.772C219.444 723.671 219.297 723.593 219.131 723.539C218.965 723.484 218.782 723.457 218.583 723.457C218.187 723.457 217.86 723.561 217.602 723.77C217.344 723.978 217.151 724.256 217.024 724.603C216.896 724.951 216.833 725.336 216.833 725.759C216.833 726.176 216.896 726.557 217.024 726.903C217.151 727.25 217.344 727.527 217.602 727.735C217.86 727.942 218.187 728.046 218.583 728.046C218.785 728.046 218.971 728.018 219.14 727.962C219.31 727.905 219.46 727.825 219.591 727.72C219.722 727.615 219.833 727.49 219.922 727.344C220.012 727.197 220.078 727.036 220.121 726.861L221.336 727.153C221.259 727.463 221.136 727.74 220.968 727.984C220.8 728.227 220.595 728.435 220.355 728.608C220.114 728.78 219.843 728.912 219.543 729.001C219.243 729.091 218.921 729.136 218.576 729.136ZM225.503 729.136C224.888 729.136 224.352 728.996 223.894 728.714C223.436 728.432 223.08 728.038 222.827 727.53C222.574 727.023 222.447 726.433 222.447 725.761C222.447 725.08 222.574 724.485 222.827 723.976C223.08 723.467 223.436 723.071 223.894 722.79C224.352 722.508 224.888 722.367 225.503 722.367C226.121 722.367 226.66 722.508 227.119 722.79C227.578 723.071 227.934 723.467 228.187 723.976C228.44 724.485 228.567 725.08 228.567 725.761C228.567 726.433 228.44 727.023 228.187 727.53C227.934 728.038 227.578 728.432 227.119 728.714C226.66 728.996 226.121 729.136 225.503 729.136ZM225.503 728.046C225.902 728.046 226.231 727.942 226.491 727.733C226.751 727.524 226.945 727.246 227.071 726.9C227.197 726.553 227.26 726.173 227.26 725.759C227.26 725.342 227.197 724.959 227.071 724.61C226.945 724.261 226.751 723.982 226.491 723.772C226.231 723.562 225.902 723.457 225.503 723.457C225.107 723.457 224.781 723.562 224.523 723.772C224.266 723.982 224.074 724.26 223.948 724.608C223.822 724.955 223.759 725.339 223.759 725.759C223.759 726.173 223.822 726.553 223.948 726.9C224.074 727.246 224.266 727.524 224.523 727.733C224.781 727.942 225.107 728.046 225.503 728.046ZM231.285 725.119V729H229.997V722.449H231.225L231.239 724.053H231.106C231.296 723.467 231.572 723.04 231.935 722.771C232.298 722.502 232.737 722.367 233.252 722.367C233.698 722.367 234.087 722.461 234.421 722.648C234.755 722.834 235.015 723.111 235.201 723.477C235.387 723.844 235.48 724.297 235.48 724.838V729H234.191V724.998C234.191 724.527 234.068 724.157 233.822 723.89C233.576 723.623 233.239 723.489 232.811 723.489C232.521 723.489 232.26 723.553 232.029 723.68C231.799 723.807 231.617 723.992 231.484 724.235C231.352 724.477 231.285 724.772 231.285 725.119ZM238.504 725.119V729H237.215V722.449H238.444L238.457 724.053H238.325C238.515 723.467 238.791 723.04 239.154 722.771C239.517 722.502 239.956 722.367 240.471 722.367C240.916 722.367 241.306 722.461 241.64 722.648C241.974 722.834 242.234 723.111 242.42 723.477C242.605 723.844 242.698 724.297 242.698 724.838V729H241.41V724.998C241.41 724.527 241.287 724.157 241.041 723.89C240.795 723.623 240.458 723.489 240.03 723.489C239.739 723.489 239.479 723.553 239.248 723.68C239.017 723.807 238.836 723.992 238.703 724.235C238.571 724.477 238.504 724.772 238.504 725.119ZM247.258 729.136C246.613 729.136 246.057 728.997 245.589 728.718C245.122 728.439 244.762 728.048 244.51 727.544C244.258 727.04 244.133 726.449 244.133 725.771C244.133 725.098 244.256 724.507 244.504 723.996C244.751 723.485 245.101 723.086 245.554 722.799C246.007 722.511 246.538 722.367 247.146 722.367C247.521 722.367 247.882 722.428 248.231 722.551C248.581 722.673 248.894 722.865 249.171 723.127C249.448 723.389 249.668 723.729 249.83 724.146C249.992 724.564 250.072 725.068 250.072 725.658V726.116H244.849V725.153H249.408L248.806 725.471C248.806 725.071 248.744 724.717 248.619 724.411C248.495 724.104 248.31 723.865 248.065 723.692C247.819 723.52 247.515 723.433 247.15 723.433C246.786 723.433 246.475 723.521 246.217 723.697C245.959 723.873 245.762 724.104 245.626 724.392C245.49 724.679 245.422 724.992 245.422 725.332V725.986C245.422 726.435 245.5 726.815 245.654 727.126C245.808 727.437 246.025 727.673 246.303 727.832C246.581 727.991 246.904 728.07 247.271 728.07C247.511 728.07 247.73 728.036 247.926 727.967C248.123 727.898 248.292 727.794 248.434 727.656C248.575 727.517 248.684 727.346 248.76 727.142L249.969 727.427C249.866 727.766 249.69 728.064 249.442 728.321C249.193 728.578 248.884 728.778 248.515 728.921C248.146 729.065 247.727 729.136 247.258 729.136ZM254.237 729.136C253.622 729.136 253.085 728.996 252.628 728.714C252.17 728.432 251.814 728.038 251.561 727.53C251.308 727.023 251.181 726.433 251.181 725.761C251.181 725.08 251.308 724.485 251.561 723.976C251.814 723.467 252.17 723.071 252.628 722.79C253.085 722.508 253.622 722.367 254.237 722.367C254.578 722.367 254.896 722.411 255.193 722.5C255.49 722.588 255.758 722.715 255.997 722.881C256.237 723.046 256.44 723.249 256.606 723.488C256.773 723.727 256.897 723.998 256.977 724.3L255.757 724.594C255.714 724.425 255.647 724.271 255.558 724.132C255.468 723.993 255.359 723.873 255.232 723.772C255.104 723.671 254.957 723.593 254.791 723.539C254.625 723.484 254.442 723.457 254.243 723.457C253.847 723.457 253.52 723.561 253.262 723.77C253.004 723.978 252.811 724.256 252.684 724.603C252.557 724.951 252.493 725.336 252.493 725.759C252.493 726.176 252.557 726.557 252.684 726.903C252.811 727.25 253.004 727.527 253.262 727.735C253.52 727.942 253.847 728.046 254.243 728.046C254.445 728.046 254.631 728.018 254.8 727.962C254.97 727.905 255.12 727.825 255.251 727.72C255.383 727.615 255.493 727.49 255.583 727.344C255.672 727.197 255.738 727.036 255.781 726.861L256.997 727.153C256.919 727.463 256.796 727.74 256.628 727.984C256.46 728.227 256.255 728.435 256.015 728.608C255.774 728.78 255.504 728.912 255.203 729.001C254.903 729.091 254.581 729.136 254.237 729.136ZM261.213 722.449V723.497H257.659V722.449H261.213ZM258.616 720.891H259.905V727.228C259.905 727.493 259.96 727.687 260.071 727.809C260.181 727.932 260.364 727.994 260.619 727.994C260.686 727.994 260.775 727.986 260.884 727.97C260.993 727.954 261.087 727.938 261.165 727.922L261.393 728.955C261.255 729.001 261.108 729.034 260.951 729.054C260.794 729.075 260.641 729.085 260.491 729.085C259.894 729.085 259.433 728.932 259.106 728.627C258.779 728.321 258.616 727.891 258.616 727.334V720.891ZM262.493 729V722.449H263.782V729H262.493ZM263.141 721.45C262.92 721.45 262.73 721.375 262.57 721.225C262.411 721.074 262.331 720.894 262.331 720.684C262.331 720.47 262.411 720.288 262.57 720.14C262.73 719.992 262.92 719.918 263.141 719.918C263.365 719.918 263.557 719.992 263.716 720.14C263.875 720.288 263.955 720.47 263.955 720.684C263.955 720.894 263.875 721.075 263.716 721.225C263.557 721.375 263.365 721.45 263.141 721.45ZM268.271 729.136C267.656 729.136 267.119 728.996 266.661 728.714C266.203 728.432 265.847 728.038 265.594 727.53C265.341 727.023 265.215 726.433 265.215 725.761C265.215 725.08 265.341 724.485 265.594 723.976C265.847 723.467 266.203 723.071 266.661 722.79C267.119 722.508 267.656 722.367 268.271 722.367C268.889 722.367 269.427 722.508 269.886 722.79C270.346 723.071 270.702 723.467 270.955 723.976C271.208 724.485 271.335 725.08 271.335 725.761C271.335 726.433 271.208 727.023 270.955 727.53C270.702 728.038 270.346 728.432 269.886 728.714C269.427 728.996 268.889 729.136 268.271 729.136ZM268.271 728.046C268.669 728.046 268.999 727.942 269.259 727.733C269.519 727.524 269.712 727.246 269.838 726.9C269.965 726.553 270.028 726.173 270.028 725.759C270.028 725.342 269.965 724.959 269.838 724.61C269.712 724.261 269.519 723.982 269.259 723.772C268.999 723.562 268.669 723.457 268.271 723.457C267.875 723.457 267.548 723.562 267.291 723.772C267.033 723.982 266.842 724.26 266.715 724.608C266.589 724.955 266.526 725.339 266.526 725.759C266.526 726.173 266.589 726.553 266.715 726.9C266.842 727.246 267.033 727.524 267.291 727.733C267.548 727.942 267.875 728.046 268.271 728.046ZM274.053 725.119V729H272.764V722.449H273.993L274.006 724.053H273.874C274.064 723.467 274.34 723.04 274.703 722.771C275.066 722.502 275.505 722.367 276.02 722.367C276.465 722.367 276.855 722.461 277.189 722.648C277.523 722.834 277.782 723.111 277.968 723.477C278.154 723.844 278.247 724.297 278.247 724.838V729H276.958V724.998C276.958 724.527 276.835 724.157 276.59 723.89C276.344 723.623 276.007 723.489 275.579 723.489C275.288 723.489 275.027 723.553 274.797 723.68C274.566 723.807 274.384 723.992 274.252 724.235C274.119 724.477 274.053 724.772 274.053 725.119ZM280.937 729.088C280.695 729.088 280.491 729.004 280.323 728.837C280.155 728.67 280.071 728.466 280.071 728.225C280.071 727.984 280.155 727.781 280.323 727.613C280.491 727.446 280.695 727.362 280.937 727.362C281.178 727.362 281.382 727.446 281.55 727.613C281.718 727.781 281.802 727.984 281.802 728.225C281.802 728.466 281.718 728.67 281.55 728.837C281.382 729.004 281.178 729.088 280.937 729.088ZM284.575 729.088C284.334 729.088 284.129 729.004 283.961 728.837C283.793 728.67 283.709 728.466 283.709 728.225C283.709 727.984 283.793 727.781 283.961 727.613C284.129 727.446 284.334 727.362 284.575 727.362C284.816 727.362 285.021 727.446 285.189 727.613C285.357 727.781 285.441 727.984 285.441 728.225C285.441 728.466 285.357 728.67 285.189 728.837C285.021 729.004 284.816 729.088 284.575 729.088ZM288.214 729.088C287.973 729.088 287.768 729.004 287.6 728.837C287.432 728.67 287.348 728.466 287.348 728.225C287.348 727.984 287.432 727.781 287.6 727.613C287.768 727.446 287.973 727.362 288.214 727.362C288.455 727.362 288.66 727.446 288.828 727.613C288.996 727.781 289.08 727.984 289.08 728.225C289.08 728.466 288.996 728.67 288.828 728.837C288.66 729.004 288.455 729.088 288.214 729.088Z" fill="white" fill-opacity="0.6"/>
<path d="M135.032 768L132.399 760.725H133.602L135.015 764.772C135.12 765.085 135.24 765.468 135.376 765.921C135.512 766.374 135.664 766.907 135.834 767.521H135.607C135.776 766.894 135.927 766.357 136.059 765.911C136.192 765.465 136.308 765.085 136.409 764.772L137.784 760.725H138.99L136.394 768H135.032ZM140.943 768V767.197L143.413 764.642C143.667 764.375 143.879 764.139 144.049 763.934C144.219 763.728 144.348 763.531 144.436 763.342C144.523 763.152 144.567 762.95 144.567 762.735C144.567 762.493 144.51 762.284 144.397 762.109C144.284 761.933 144.131 761.798 143.938 761.703C143.745 761.609 143.525 761.562 143.279 761.562C143.019 761.562 142.793 761.614 142.601 761.72C142.41 761.825 142.261 761.974 142.157 762.166C142.052 762.358 142 762.584 142 762.845H140.934C140.934 762.401 141.036 762.012 141.24 761.679C141.444 761.346 141.724 761.087 142.08 760.903C142.436 760.719 142.842 760.627 143.299 760.627C143.758 760.627 144.164 760.718 144.514 760.899C144.864 761.081 145.138 761.327 145.337 761.639C145.535 761.95 145.634 762.303 145.634 762.697C145.634 762.963 145.584 763.224 145.486 763.477C145.388 763.731 145.215 764.018 144.966 764.337C144.717 764.656 144.366 765.044 143.914 765.5L142.486 766.992V767.048H145.748V768H140.943ZM148.919 768.073C148.718 768.073 148.547 768.003 148.407 767.864C148.267 767.725 148.197 767.555 148.197 767.354C148.197 767.154 148.267 766.984 148.407 766.844C148.547 766.705 148.718 766.635 148.919 766.635C149.12 766.635 149.29 766.705 149.43 766.844C149.57 766.984 149.64 767.154 149.64 767.354C149.64 767.555 149.57 767.725 149.43 767.864C149.29 768.003 149.12 768.073 148.919 768.073ZM154.392 768.098C153.828 768.098 153.346 767.951 152.948 767.657C152.549 767.364 152.244 766.939 152.033 766.384C151.821 765.829 151.716 765.157 151.716 764.367C151.716 763.58 151.822 762.908 152.035 762.351C152.248 761.794 152.553 761.368 152.952 761.071C153.35 760.775 153.83 760.627 154.392 760.627C154.954 760.627 155.435 760.775 155.835 761.072C156.235 761.368 156.54 761.795 156.752 762.351C156.963 762.908 157.068 763.58 157.068 764.367C157.068 765.155 156.963 765.826 156.754 766.383C156.544 766.939 156.24 767.364 155.841 767.657C155.443 767.951 154.96 768.098 154.392 768.098ZM154.392 767.145C154.728 767.145 155.013 767.035 155.247 766.817C155.481 766.598 155.659 766.282 155.782 765.868C155.905 765.455 155.966 764.954 155.966 764.367C155.966 763.777 155.905 763.273 155.782 762.857C155.659 762.441 155.481 762.123 155.247 761.903C155.013 761.684 154.728 761.574 154.392 761.574C154.057 761.574 153.772 761.684 153.537 761.905C153.303 762.126 153.125 762.444 153.002 762.859C152.879 763.274 152.817 763.777 152.817 764.367C152.817 764.954 152.879 765.455 153.001 765.868C153.124 766.282 153.302 766.598 153.537 766.817C153.771 767.035 154.056 767.145 154.392 767.145ZM159.869 768.073C159.668 768.073 159.497 768.003 159.357 767.864C159.217 767.725 159.147 767.555 159.147 767.354C159.147 767.154 159.217 766.984 159.357 766.844C159.497 766.705 159.668 766.635 159.869 766.635C160.07 766.635 160.241 766.705 160.381 766.844C160.521 766.984 160.591 767.154 160.591 767.354C160.591 767.555 160.521 767.725 160.381 767.864C160.241 768.003 160.07 768.073 159.869 768.073ZM162.939 766.583V765.686L166.077 760.725H166.787V762.047H166.336L164.101 765.58V765.638H168.411V766.583H162.939ZM166.382 768V766.314L166.395 765.901V760.725H167.451V768H166.382ZM176.278 765.925C175.991 765.925 175.729 765.855 175.492 765.715C175.254 765.575 175.065 765.386 174.925 765.148C174.785 764.911 174.715 764.649 174.715 764.362C174.715 764.073 174.785 763.81 174.925 763.574C175.065 763.338 175.254 763.15 175.492 763.01C175.729 762.87 175.991 762.8 176.278 762.8C176.567 762.8 176.83 762.87 177.066 763.01C177.302 763.15 177.49 763.338 177.63 763.574C177.77 763.81 177.84 764.073 177.84 764.362C177.84 764.649 177.77 764.911 177.63 765.148C177.49 765.386 177.302 765.575 177.066 765.715C176.83 765.855 176.567 765.925 176.278 765.925ZM183.86 768L186.45 760.725H187.816L190.451 768H189.247L187.83 763.953C187.72 763.623 187.599 763.236 187.468 762.791C187.336 762.345 187.184 761.81 187.011 761.186H187.236C187.068 761.815 186.918 762.356 186.787 762.807C186.657 763.258 186.541 763.64 186.44 763.953L185.066 768H183.86ZM185.263 766.083V765.153H189.047V766.083H185.263ZM193.622 760.725V768H192.506V760.725H193.622ZM199.354 763.905V764.835H196.122V763.905H199.354ZM201.854 768V760.725H204.461C205.022 760.725 205.49 760.829 205.863 761.036C206.236 761.244 206.516 761.526 206.702 761.881C206.889 762.237 206.982 762.638 206.982 763.087C206.982 763.535 206.888 763.938 206.701 764.294C206.514 764.651 206.233 764.933 205.859 765.141C205.486 765.349 205.016 765.453 204.452 765.453H202.67V764.509H204.344C204.701 764.509 204.991 764.447 205.213 764.324C205.435 764.201 205.598 764.032 205.7 763.817C205.803 763.602 205.854 763.358 205.854 763.087C205.854 762.814 205.803 762.571 205.7 762.359C205.598 762.147 205.435 761.98 205.211 761.859C204.988 761.738 204.696 761.678 204.336 761.678H202.97V768H201.854ZM212.302 768.098C211.674 768.098 211.111 767.948 210.616 767.65C210.121 767.351 209.73 766.923 209.444 766.366C209.158 765.808 209.015 765.142 209.015 764.367C209.015 763.589 209.158 762.92 209.444 762.362C209.73 761.804 210.121 761.376 210.616 761.076C211.111 760.777 211.674 760.627 212.302 760.627C212.931 760.627 213.492 760.777 213.986 761.076C214.48 761.376 214.869 761.804 215.154 762.362C215.439 762.92 215.581 763.589 215.581 764.367C215.581 765.142 215.439 765.809 215.154 766.367C214.869 766.924 214.48 767.352 213.986 767.65C213.492 767.949 212.931 768.098 212.302 768.098ZM212.302 767.084C212.717 767.084 213.087 766.98 213.414 766.772C213.741 766.564 214 766.257 214.19 765.852C214.38 765.447 214.475 764.952 214.475 764.367C214.475 763.776 214.38 763.278 214.19 762.873C214 762.468 213.741 762.161 213.414 761.953C213.087 761.745 212.717 761.641 212.302 761.641C211.886 761.641 211.514 761.746 211.185 761.955C210.857 762.164 210.598 762.472 210.407 762.877C210.217 763.282 210.122 763.779 210.122 764.367C210.122 764.952 210.217 765.447 210.407 765.85C210.598 766.254 210.857 766.56 211.185 766.77C211.514 766.979 211.886 767.084 212.302 767.084ZM219.27 768L217.297 760.725H218.471L219.521 764.892C219.585 765.151 219.645 765.419 219.701 765.696C219.757 765.974 219.811 766.254 219.864 766.536C219.917 766.819 219.968 767.102 220.015 767.385H219.853C219.905 767.102 219.958 766.819 220.012 766.536C220.066 766.254 220.123 765.974 220.183 765.696C220.243 765.419 220.306 765.151 220.371 764.892L221.452 760.725H222.672L223.745 764.892C223.813 765.151 223.877 765.419 223.935 765.696C223.994 765.974 224.052 766.254 224.108 766.536C224.165 766.819 224.219 767.102 224.271 767.385H224.096C224.147 767.102 224.199 766.819 224.252 766.536C224.305 766.254 224.36 765.974 224.419 765.696C224.478 765.419 224.538 765.151 224.599 764.892L225.645 760.725H226.827L224.847 768H223.56L222.405 763.687C222.316 763.349 222.234 762.982 222.16 762.586C222.085 762.19 222.009 761.753 221.932 761.275H222.185C222.104 761.732 222.03 762.153 221.963 762.541C221.896 762.929 221.813 763.311 221.712 763.687L220.56 768H219.27ZM228.883 768V760.725H233.462V761.684H229.999V763.851H233.217V764.803H229.999V767.041H233.495V768H228.883ZM235.913 768V760.725H238.519C239.081 760.725 239.549 760.822 239.922 761.016C240.295 761.21 240.575 761.479 240.761 761.824C240.947 762.168 241.04 762.564 241.04 763.011C241.04 763.46 240.947 763.853 240.76 764.189C240.573 764.526 240.292 764.788 239.918 764.974C239.544 765.16 239.075 765.253 238.511 765.253H236.552V764.301H238.403C238.76 764.301 239.049 764.249 239.27 764.147C239.491 764.044 239.653 763.897 239.757 763.704C239.861 763.512 239.913 763.281 239.913 763.011C239.913 762.736 239.861 762.499 239.757 762.301C239.653 762.103 239.49 761.949 239.268 761.841C239.046 761.732 238.755 761.678 238.395 761.678H237.029V768H235.913ZM240.049 768L238.287 764.712H239.522L241.316 768H240.049ZM243.393 768V760.725H247.972V761.684H244.508V763.851H247.727V764.803H244.508V767.041H248.005V768H243.393ZM252.789 768H250.989V767.025H252.727C253.278 767.025 253.736 766.922 254.101 766.716C254.466 766.51 254.739 766.208 254.921 765.81C255.102 765.411 255.193 764.925 255.193 764.351C255.193 763.782 255.102 763.3 254.922 762.906C254.741 762.512 254.473 762.212 254.117 762.007C253.762 761.802 253.319 761.7 252.789 761.7H250.952V760.725H252.86C253.577 760.725 254.19 760.87 254.7 761.16C255.211 761.45 255.602 761.866 255.876 762.408C256.15 762.95 256.286 763.598 256.286 764.351C256.286 765.109 256.149 765.76 255.874 766.305C255.6 766.85 255.202 767.269 254.68 767.561C254.158 767.854 253.528 768 252.789 768ZM251.539 760.725V768H250.423V760.725H251.539Z" fill="white" fill-opacity="0.3"/>
</g>
<defs>
<filter id="filter0_f_1_2" x="-192" y="-192" width="512" height="512" filterUnits="userSpaceOnUse" color-interpolation-filters="sRGB">
<feFlood flood-opacity="0" result="BackgroundImageFix"/>
<feBlend mode="normal" in="SourceGraphic" in2="BackgroundImageFix" result="shape"/>
<feGaussianBlur stdDeviation="32" result="effect1_foregroundBlur_1_2"/>
</filter>
<filter id="filter1_f_1_2" x="134" y="378" width="448" height="448" filterUnits="userSpaceOnUse" color-interpolation-filters="sRGB">
<feFlood flood-opacity="0" result="BackgroundImageFix"/>
<feBlend mode="normal" in="SourceGraphic" in2="BackgroundImageFix" result="shape"/>
<feGaussianBlur stdDeviation="32" result="effect1_foregroundBlur_1_2"/>
</filter>
<filter id="filter2_f_1_2" x="-61" y="564" width="512" height="512" filterUnits="userSpaceOnUse" color-interpolation-filters="sRGB">
<feFlood flood-opacity="0" result="BackgroundImageFix"/>
<feBlend mode="normal" in="SourceGraphic" in2="BackgroundImageFix" result="shape"/>
<feGaussianBlur stdDeviation="32" result="effect1_foregroundBlur_1_2"/>
</filter>
<filter id="filter3_d_1_2" x="93" y="260.5" width="204" height="204" filterUnits="userSpaceOnUse" color-interpolation-filters="sRGB">
<feFlood flood-opacity="0" result="BackgroundImageFix"/>
<feColorMatrix in="SourceAlpha" type="matrix" values="0 0 0 0 0 0 0 0 0 0 0 0 0 0 0 0 0 0 127 0" result="hardAlpha"/>
<feMorphology radius="12" operator="erode" in="SourceAlpha" result="effect1_dropShadow_1_2"/>
<feOffset dy="25"/>
<feGaussianBlur stdDeviation="25"/>
<feComposite in2="hardAlpha" operator="out"/>
<feColorMatrix type="matrix" values="0 0 0 0 0.121569 0 0 0 0 0.239216 0 0 0 0 0.537255 0 0 0 0.5 0"/>
<feBlend mode="normal" in2="BackgroundImageFix" result="effect1_dropShadow_1_2"/>
<feBlend mode="normal" in="SourceGraphic" in2="effect1_dropShadow_1_2" result="shape"/>
</filter>
<filter id="filter4_dd_1_2" x="167.799" y="325.264" width="64" height="64" filterUnits="userSpaceOnUse" color-interpolation-filters="sRGB">
<feFlood flood-opacity="0" result="BackgroundImageFix"/>
<feColorMatrix in="SourceAlpha" type="matrix" values="0 0 0 0 0 0 0 0 0 0 0 0 0 0 0 0 0 0 127 0" result="hardAlpha"/>
<feMorphology radius="4" operator="erode" in="SourceAlpha" result="effect1_dropShadow_1_2"/>
<feOffset dy="4"/>
<feGaussianBlur stdDeviation="3"/>
<feComposite in2="hardAlpha" operator="out"/>
<feColorMatrix type="matrix" values="0 0 0 0 0 0 0 0 0 0 0 0 0 0 0 0 0 0 0.1 0"/>
<feBlend mode="normal" in2="BackgroundImageFix" result="effect1_dropShadow_1_2"/>
<feColorMatrix in="SourceAlpha" type="matrix" values="0 0 0 0 0 0 0 0 0 0 0 0 0 0 0 0 0 0 127 0" result="hardAlpha"/>
<feMorphology radius="3" operator="erode" in="SourceAlpha" result="effect2_dropShadow_1_2"/>
<feOffset dy="10"/>
<feGaussianBlur stdDeviation="7.5"/>
<feComposite in2="hardAlpha" operator="out"/>
<feColorMatrix type="matrix" values="0 0 0 0 0 0 0 0 0 0 0 0 0 0 0 0 0 0 0.1 0"/>
<feBlend mode="normal" in2="effect1_dropShadow_1_2" result="effect2_dropShadow_1_2"/>
<feBlend mode="normal" in="SourceGraphic" in2="effect2_dropShadow_1_2" result="shape"/>
</filter>
<filter id="filter5_d_1_2" x="94.65" y="401.5" width="200.7" height="42" filterUnits="userSpaceOnUse" color-interpolation-filters="sRGB">
<feFlood flood-opacity="0" result="BackgroundImageFix"/>
<feColorMatrix in="SourceAlpha" type="matrix" values="0 0 0 0 0 0 0 0 0 0 0 0 0 0 0 0 0 0 127 0" result="hardAlpha"/>
<feOffset dy="1"/>
<feGaussianBlur stdDeviation="0.5"/>
<feComposite in2="hardAlpha" operator="out"/>
<feColorMatrix type="matrix" values="0 0 0 0 0 0 0 0 0 0 0 0 0 0 0 0 0 0 0.05 0"/>
<feBlend mode="normal" in2="BackgroundImageFix" result="effect1_dropShadow_1_2"/>
<feBlend mode="normal" in="SourceGraphic" in2="effect1_dropShadow_1_2" result="shape"/>
</filter>
<linearGradient id="paint0_linear_1_2" x1="-131.459" y1="297.974" x2="521.459" y2="586.026" gradientUnits="userSpaceOnUse">
<stop stop-color="#1F3D89"/>
<stop offset="1" stop-color="#5B21B6"/>
</linearGradient>
<linearGradient id="paint1_linear_1_2" x1="61.75" y1="459.5" x2="328.25" y2="459.5" gradientUnits="userSpaceOnUse">
<stop stop-color="white"/>
<stop offset="0.5" stop-color="#A5B4FC"/>
<stop offset="1" stop-color="white"/>
</linearGradient>
<clipPath id="clip0_1_2">
<rect width="390" height="884" fill="white"/>
</clipPath>
</defs>
</svg>
